{"glyphs":{"0":{"ha":825,"x_min":44,"x_max":779,"o":"m 413 963 q 685 835 590 963 q 779 469 779 707 q 685 103 779 232 q 413 -25 590 -25 q 140 103 235 -25 q 44 469 44 232 q 140 835 44 708 q 413 963 235 963 m 413 782 q 344 753 369 782 q 308 658 319 725 q 297 469 297 590 q 308 280 297 347 q 344 184 319 213 q 413 156 369 156 q 480 183 456 156 q 515 277 504 210 q 526 469 526 344 q 515 662 526 594 q 480 756 504 729 q 413 782 456 782 z "},"1":{"ha":657,"x_min":10,"x_max":554,"o":"m 554 942 l 554 0 l 314 0 l 314 704 l 117 583 l 10 746 l 335 942 l 554 942 z "},"2":{"ha":726,"x_min":1,"x_max":692,"o":"m 335 963 q 517 926 442 963 q 632 827 593 889 q 671 690 671 765 q 643 553 671 617 q 540 403 615 489 q 317 188 464 317 l 692 188 l 665 0 l 36 0 l 36 172 q 279 416 201 332 q 388 555 357 500 q 418 664 418 610 q 389 745 418 715 q 308 775 360 775 q 222 752 260 775 q 144 679 183 729 l 1 794 q 145 918 61 874 q 335 963 229 963 z "},"3":{"ha":731,"x_min":-12,"x_max":693,"o":"m 338 963 q 514 931 440 963 q 625 846 588 900 q 663 724 663 792 q 615 582 663 639 q 476 497 567 525 q 633 430 572 488 q 693 264 693 372 q 651 119 693 185 q 524 14 608 53 q 322 -25 440 -25 q -12 122 107 -25 l 118 249 q 209 182 165 203 q 306 161 253 161 q 403 193 365 161 q 440 283 440 225 q 404 378 440 349 q 296 408 368 408 l 215 408 l 243 575 l 299 575 q 391 604 358 575 q 424 683 424 633 q 392 756 424 731 q 308 782 361 782 q 128 701 211 782 l 6 831 q 338 963 142 963 z "},"4":{"ha":799,"x_min":33,"x_max":774,"o":"m 774 378 l 774 194 l 672 194 l 672 0 l 431 0 l 429 194 l 33 194 l 33 357 l 296 968 l 507 892 l 288 378 l 432 378 l 460 592 l 672 592 l 672 378 l 774 378 z "},"5":{"ha":758,"x_min":13,"x_max":719,"o":"m 646 767 l 313 767 l 313 593 q 447 624 379 624 q 587 587 525 624 q 684 480 649 550 q 719 314 719 410 q 672 137 719 214 q 538 17 625 60 q 336 -25 451 -25 q 13 124 135 -25 l 150 250 q 325 158 222 158 q 430 198 393 158 q 467 311 467 238 q 346 457 467 457 q 294 449 319 457 q 239 424 269 442 l 75 424 l 75 942 l 672 942 l 646 767 z "},"6":{"ha":796,"x_min":44,"x_max":768,"o":"m 496 638 q 637 600 575 638 q 733 492 699 563 q 768 322 768 421 q 726 148 768 228 q 603 22 683 68 q 415 -25 524 -25 q 137 95 229 -25 q 44 428 44 215 q 97 708 44 588 q 245 896 149 829 q 472 963 342 963 q 692 900 600 963 l 603 754 q 478 790 542 790 q 360 732 406 790 q 304 563 314 674 q 496 638 385 638 m 417 149 q 495 194 469 149 q 521 319 521 239 q 497 437 521 403 q 421 471 474 471 q 361 456 392 471 q 304 414 331 442 q 315 258 304 315 q 349 174 325 200 q 417 149 374 149 z "},"7":{"ha":660,"x_min":13,"x_max":640,"o":"m 640 942 l 640 776 l 296 -25 l 72 50 l 382 757 l 13 757 l 13 942 l 640 942 z "},"8":{"ha":819,"x_min":35,"x_max":785,"o":"m 600 506 q 740 397 696 458 q 785 256 785 335 q 740 115 785 179 q 609 13 696 51 q 404 -25 522 -25 q 206 12 290 -25 q 78 112 122 49 q 35 251 35 175 q 79 389 35 331 q 206 482 124 447 q 71 707 71 567 q 114 839 71 781 q 234 930 157 897 q 410 963 311 963 q 656 897 563 963 q 749 718 749 832 q 712 603 749 658 q 600 506 675 547 m 411 799 q 337 774 364 799 q 310 703 310 750 q 333 633 310 661 q 406 582 356 604 l 438 568 q 494 631 479 599 q 510 706 510 664 q 484 773 510 747 q 411 799 458 799 m 413 149 q 506 180 474 149 q 539 258 539 211 q 510 339 539 310 q 411 396 482 368 l 363 414 q 281 265 281 365 q 317 181 281 213 q 413 149 353 149 z "},"9":{"ha":793,"x_min":29,"x_max":758,"o":"m 393 963 q 664 863 569 963 q 758 597 758 763 q 693 279 758 407 q 494 74 628 151 q 146 -42 360 -3 l 97 129 q 297 192 219 157 q 421 277 374 226 q 490 404 468 328 q 408 342 453 363 q 300 322 363 322 q 165 360 226 322 q 66 468 103 397 q 29 633 29 539 q 76 805 29 731 q 207 921 124 879 q 393 963 290 963 m 379 492 q 447 510 414 492 q 504 564 479 528 q 495 699 506 650 q 460 769 485 747 q 390 790 435 790 q 307 753 338 790 q 276 644 276 715 q 379 492 276 492 z "},"\r":{"ha":317,"x_min":0,"x_max":0,"o":""}," ":{"ha":317,"x_min":0,"x_max":0,"o":""},"A":{"ha":828,"x_min":-26,"x_max":854,"o":"m 582 0 l 539 197 l 283 197 l 240 0 l -26 0 l 260 965 l 568 965 l 854 0 l 582 0 m 324 381 l 499 381 l 411 782 l 324 381 z "},"Á":{"ha":828,"x_min":-26,"x_max":854,"o":"m 582 0 l 539 197 l 283 197 l 240 0 l -26 0 l 260 965 l 568 965 l 854 0 l 582 0 m 324 381 l 499 381 l 411 782 l 324 381 m 528 1347 l 617 1165 l 274 1042 l 211 1167 l 528 1347 z "},"Ă":{"ha":828,"x_min":-26,"x_max":854,"o":"m 582 0 l 539 197 l 283 197 l 240 0 l -26 0 l 260 965 l 568 965 l 854 0 l 582 0 m 324 381 l 499 381 l 411 782 l 324 381 m 413 1039 q 239 1110 303 1039 q 165 1281 175 1181 l 297 1304 q 340 1235 311 1261 q 413 1208 368 1208 q 488 1235 458 1208 q 529 1304 517 1261 l 661 1281 q 588 1110 651 1181 q 413 1039 524 1039 z "},"Ắ":{"ha":828,"x_min":-26,"x_max":854,"o":"m 582 0 l 539 197 l 283 197 l 240 0 l -26 0 l 260 965 l 568 965 l 854 0 l 582 0 m 324 381 l 499 381 l 411 782 l 324 381 m 414 1022 q 240 1093 304 1022 q 167 1264 176 1164 l 299 1288 q 341 1218 313 1244 q 414 1192 369 1192 q 489 1218 460 1192 q 531 1288 518 1244 l 663 1264 q 589 1093 653 1164 q 414 1022 525 1022 m 515 1592 l 647 1463 l 418 1263 l 326 1344 l 515 1592 z "},"Ặ":{"ha":828,"x_min":-26,"x_max":854,"o":"m 582 0 l 539 197 l 283 197 l 240 0 l -26 0 l 260 965 l 568 965 l 854 0 l 582 0 m 324 381 l 499 381 l 411 782 l 324 381 m 413 1039 q 239 1110 303 1039 q 165 1281 175 1181 l 297 1304 q 340 1235 311 1261 q 413 1208 368 1208 q 488 1235 458 1208 q 529 1304 517 1261 l 661 1281 q 588 1110 651 1181 q 413 1039 524 1039 m 414 -350 q 312 -311 351 -350 q 272 -214 272 -272 q 312 -117 272 -156 q 414 -78 351 -78 q 516 -117 476 -78 q 556 -214 556 -156 q 516 -311 556 -272 q 414 -350 476 -350 z "},"Ằ":{"ha":828,"x_min":-26,"x_max":854,"o":"m 582 0 l 539 197 l 283 197 l 240 0 l -26 0 l 260 965 l 568 965 l 854 0 l 582 0 m 324 381 l 499 381 l 411 782 l 324 381 m 414 1022 q 240 1093 304 1022 q 167 1264 176 1164 l 299 1288 q 341 1218 313 1244 q 414 1192 369 1192 q 489 1218 460 1192 q 531 1288 518 1244 l 663 1264 q 589 1093 653 1164 q 414 1022 525 1022 m 310 1592 l 499 1344 l 406 1263 l 178 1463 l 310 1592 z "},"Ẳ":{"ha":828,"x_min":-26,"x_max":854,"o":"m 582 0 l 539 197 l 283 197 l 240 0 l -26 0 l 260 965 l 568 965 l 854 0 l 582 0 m 324 381 l 499 381 l 411 782 l 324 381 m 414 1022 q 240 1093 304 1022 q 167 1264 176 1164 l 299 1288 q 341 1218 313 1244 q 414 1192 369 1192 q 489 1218 460 1192 q 531 1288 518 1244 l 663 1264 q 589 1093 653 1164 q 414 1022 525 1022 m 347 1394 q 423 1408 400 1397 q 446 1446 446 1419 q 431 1476 446 1465 q 393 1486 417 1486 q 351 1482 369 1486 q 308 1468 332 1478 l 269 1565 q 426 1603 333 1603 q 560 1563 513 1603 q 607 1457 607 1522 q 576 1369 607 1403 q 489 1325 546 1336 l 489 1268 l 347 1268 l 347 1394 z "},"Ẵ":{"ha":828,"x_min":-26,"x_max":854,"o":"m 582 0 l 539 197 l 283 197 l 240 0 l -26 0 l 260 965 l 568 965 l 854 0 l 582 0 m 324 381 l 499 381 l 411 782 l 324 381 m 414 1022 q 240 1093 304 1022 q 167 1264 176 1164 l 299 1288 q 341 1218 313 1244 q 414 1192 369 1192 q 489 1218 460 1192 q 531 1288 518 1244 l 663 1264 q 589 1093 653 1164 q 414 1022 525 1022 m 497 1322 q 441 1331 465 1322 q 393 1357 417 1340 q 365 1372 379 1365 q 339 1378 351 1378 q 299 1365 314 1378 q 265 1324 283 1353 l 146 1378 q 222 1494 174 1449 q 333 1539 271 1539 q 390 1530 367 1539 q 440 1504 414 1521 q 468 1490 454 1496 q 494 1483 482 1483 q 533 1496 517 1483 q 567 1538 549 1508 l 686 1485 q 608 1367 657 1413 q 497 1322 560 1322 z "},"Ǎ":{"ha":828,"x_min":-26,"x_max":854,"o":"m 582 0 l 539 197 l 283 197 l 240 0 l -26 0 l 260 965 l 568 965 l 854 0 l 582 0 m 324 381 l 499 381 l 411 782 l 324 381 m 601 1325 l 688 1226 l 489 1039 l 339 1039 l 140 1226 l 226 1325 l 414 1207 l 601 1325 z "},"Â":{"ha":828,"x_min":-26,"x_max":854,"o":"m 582 0 l 539 197 l 283 197 l 240 0 l -26 0 l 260 965 l 568 965 l 854 0 l 582 0 m 324 381 l 499 381 l 411 782 l 324 381 m 226 1046 l 140 1144 l 339 1332 l 489 1332 l 688 1144 l 601 1046 l 414 1164 l 226 1046 z "},"Ấ":{"ha":828,"x_min":-26,"x_max":882,"o":"m 582 0 l 539 197 l 283 197 l 240 0 l -26 0 l 260 965 l 568 965 l 854 0 l 582 0 m 324 381 l 499 381 l 411 782 l 324 381 m 226 1003 l 140 1101 l 339 1289 l 489 1289 l 688 1101 l 601 1003 l 414 1121 l 226 1003 m 750 1549 l 882 1419 l 653 1219 l 561 1301 l 750 1549 z "},"Ậ":{"ha":828,"x_min":-26,"x_max":854,"o":"m 582 0 l 539 197 l 283 197 l 240 0 l -26 0 l 260 965 l 568 965 l 854 0 l 582 0 m 324 381 l 499 381 l 411 782 l 324 381 m 226 1046 l 140 1144 l 339 1332 l 489 1332 l 688 1144 l 601 1046 l 414 1164 l 226 1046 m 414 -350 q 312 -311 351 -350 q 272 -214 272 -272 q 312 -117 272 -156 q 414 -78 351 -78 q 516 -117 476 -78 q 556 -214 556 -156 q 516 -311 556 -272 q 414 -350 476 -350 z "},"Ầ":{"ha":828,"x_min":-53,"x_max":854,"o":"m 582 0 l 539 197 l 283 197 l 240 0 l -26 0 l 260 965 l 568 965 l 854 0 l 582 0 m 324 381 l 499 381 l 411 782 l 324 381 m 225 1003 l 139 1101 l 338 1289 l 488 1289 l 686 1101 l 600 1003 l 413 1121 l 225 1003 m 79 1549 l 268 1301 l 175 1219 l -53 1419 l 79 1549 z "},"Ẩ":{"ha":828,"x_min":-26,"x_max":854,"o":"m 582 0 l 539 197 l 283 197 l 240 0 l -26 0 l 260 965 l 568 965 l 854 0 l 582 0 m 324 381 l 499 381 l 411 782 l 324 381 m 225 1003 l 139 1101 l 338 1289 l 488 1289 l 686 1101 l 600 1003 l 413 1121 l 225 1003 m 592 1332 q 667 1346 644 1335 q 690 1383 690 1357 q 676 1413 690 1403 q 638 1424 661 1424 q 595 1419 614 1424 q 553 1406 576 1415 l 514 1503 q 671 1540 578 1540 q 804 1500 757 1540 q 851 1394 851 1460 q 821 1307 851 1340 q 733 1263 790 1274 l 733 1206 l 592 1206 l 592 1332 z "},"Ẫ":{"ha":828,"x_min":-26,"x_max":854,"o":"m 582 0 l 539 197 l 283 197 l 240 0 l -26 0 l 260 965 l 568 965 l 854 0 l 582 0 m 324 381 l 499 381 l 411 782 l 324 381 m 224 1003 l 138 1101 l 336 1289 l 486 1289 l 685 1101 l 599 1003 l 411 1121 l 224 1003 m 492 1325 q 435 1334 460 1325 q 388 1360 411 1343 q 360 1374 374 1368 q 333 1381 346 1381 q 293 1368 308 1381 q 260 1326 278 1356 l 140 1381 q 217 1497 168 1451 q 328 1542 265 1542 q 385 1533 361 1542 q 435 1507 408 1524 q 463 1492 449 1499 q 489 1486 476 1486 q 527 1499 511 1486 q 561 1540 543 1511 l 681 1488 q 603 1370 651 1415 q 492 1325 554 1325 z "},"Ȁ":{"ha":828,"x_min":-26,"x_max":854,"o":"m 582 0 l 539 197 l 283 197 l 240 0 l -26 0 l 260 965 l 568 965 l 854 0 l 582 0 m 324 381 l 499 381 l 411 782 l 324 381 m 229 1382 l 368 1099 l 244 1040 l 69 1301 l 229 1382 m 482 1382 l 611 1096 l 485 1046 l 321 1307 l 482 1382 z "},"Ä":{"ha":828,"x_min":-26,"x_max":854,"o":"m 582 0 l 539 197 l 283 197 l 240 0 l -26 0 l 260 965 l 568 965 l 854 0 l 582 0 m 324 381 l 499 381 l 411 782 l 324 381 m 246 1299 q 333 1264 297 1299 q 368 1179 368 1229 q 333 1094 368 1129 q 246 1060 297 1060 q 160 1094 196 1060 q 124 1179 124 1129 q 160 1264 124 1229 q 246 1299 196 1299 m 576 1299 q 663 1264 628 1299 q 699 1179 699 1229 q 663 1094 699 1129 q 576 1060 628 1060 q 490 1094 526 1060 q 454 1179 454 1129 q 490 1264 454 1229 q 576 1299 526 1299 z "},"Ǟ":{"ha":828,"x_min":-26,"x_max":854,"o":"m 582 0 l 539 197 l 283 197 l 240 0 l -26 0 l 260 965 l 568 965 l 854 0 l 582 0 m 324 381 l 499 381 l 411 782 l 324 381 m 247 1274 q 334 1239 299 1274 q 369 1154 369 1204 q 334 1069 369 1104 q 247 1035 299 1035 q 161 1069 197 1035 q 125 1154 125 1104 q 161 1239 125 1204 q 247 1274 197 1274 m 578 1274 q 665 1239 629 1274 q 700 1154 700 1204 q 665 1069 700 1104 q 578 1035 629 1035 q 492 1069 528 1035 q 456 1154 456 1104 q 492 1239 456 1204 q 578 1274 528 1274 m 638 1322 l 200 1322 l 200 1490 l 638 1490 l 638 1322 z "},"Ȧ":{"ha":828,"x_min":-26,"x_max":854,"o":"m 582 0 l 539 197 l 283 197 l 240 0 l -26 0 l 260 965 l 568 965 l 854 0 l 582 0 m 324 381 l 499 381 l 411 782 l 324 381 m 414 1314 q 516 1275 476 1314 q 556 1178 556 1236 q 516 1081 556 1119 q 414 1042 476 1042 q 312 1081 351 1042 q 272 1178 272 1119 q 312 1275 272 1236 q 414 1314 351 1314 z "},"Ạ":{"ha":828,"x_min":-26,"x_max":854,"o":"m 582 0 l 539 197 l 283 197 l 240 0 l -26 0 l 260 965 l 568 965 l 854 0 l 582 0 m 324 381 l 499 381 l 411 782 l 324 381 m 414 -350 q 312 -311 351 -350 q 272 -214 272 -272 q 312 -117 272 -156 q 414 -78 351 -78 q 516 -117 476 -78 q 556 -214 556 -156 q 516 -311 556 -272 q 414 -350 476 -350 z "},"Ǡ":{"ha":828,"x_min":-26,"x_max":854,"o":"m 582 0 l 539 197 l 283 197 l 240 0 l -26 0 l 260 965 l 568 965 l 854 0 l 582 0 m 324 381 l 499 381 l 411 782 l 324 381 m 410 1292 q 512 1253 472 1292 q 551 1156 551 1214 q 512 1058 551 1097 q 410 1019 472 1019 q 308 1058 347 1019 q 268 1156 268 1097 q 308 1253 268 1214 q 410 1292 347 1292 m 631 1322 l 193 1322 l 193 1490 l 631 1490 l 631 1322 z "},"À":{"ha":828,"x_min":-26,"x_max":854,"o":"m 582 0 l 539 197 l 283 197 l 240 0 l -26 0 l 260 965 l 568 965 l 854 0 l 582 0 m 324 381 l 499 381 l 411 782 l 324 381 m 299 1347 l 614 1167 l 551 1042 l 208 1165 l 299 1347 z "},"Ả":{"ha":828,"x_min":-26,"x_max":854,"o":"m 582 0 l 539 197 l 283 197 l 240 0 l -26 0 l 260 965 l 568 965 l 854 0 l 582 0 m 324 381 l 499 381 l 411 782 l 324 381 m 343 1188 q 419 1201 396 1190 q 442 1239 442 1213 q 427 1269 442 1258 q 389 1279 413 1279 q 347 1275 365 1279 q 304 1261 328 1271 l 265 1358 q 422 1396 329 1396 q 556 1356 508 1396 q 603 1250 603 1315 q 572 1163 603 1196 q 485 1118 542 1129 l 485 1061 l 343 1061 l 343 1188 z "},"Ȃ":{"ha":828,"x_min":-26,"x_max":854,"o":"m 582 0 l 539 197 l 283 197 l 240 0 l -26 0 l 260 965 l 568 965 l 854 0 l 582 0 m 324 381 l 499 381 l 411 782 l 324 381 m 413 1333 q 588 1260 524 1333 q 661 1078 653 1188 l 529 1054 q 488 1135 517 1106 q 413 1164 458 1164 q 297 1054 325 1164 l 165 1078 q 238 1260 174 1188 q 413 1333 301 1333 z "},"Ɑ":{"ha":956,"x_min":38,"x_max":931,"o":"m 872 264 q 885 194 872 217 q 931 154 897 171 l 858 -25 q 737 10 785 -14 q 660 79 689 35 q 557 2 615 29 q 417 -25 499 -25 q 217 34 303 -25 q 85 204 132 93 q 38 468 38 315 q 87 747 38 629 q 223 928 136 865 q 421 990 310 990 q 640 894 550 990 l 654 965 l 872 965 l 872 264 m 474 154 q 615 213 556 154 l 615 743 q 475 806 557 806 q 347 726 390 806 q 304 468 304 647 q 347 226 304 297 q 474 154 390 154 z "},"Ā":{"ha":828,"x_min":-26,"x_max":854,"o":"m 582 0 l 539 197 l 283 197 l 240 0 l -26 0 l 260 965 l 568 965 l 854 0 l 582 0 m 324 381 l 499 381 l 411 782 l 324 381 m 632 1081 l 194 1081 l 194 1249 l 632 1249 l 632 1081 z "},"Ą":{"ha":828,"x_min":-26,"x_max":854,"o":"m 719 0 q 558 -137 558 -57 q 631 -199 558 -199 q 715 -189 671 -199 l 699 -336 q 599 -347 651 -347 q 446 -301 506 -347 q 386 -179 386 -256 q 572 42 386 -37 l 539 197 l 283 197 l 240 0 l -26 0 l 260 965 l 568 965 l 854 0 l 719 0 m 324 381 l 499 381 l 411 782 l 324 381 z "},"Å":{"ha":828,"x_min":-26,"x_max":854,"o":"m 582 0 l 539 197 l 283 197 l 240 0 l -26 0 l 260 965 l 568 965 l 854 0 l 582 0 m 324 381 l 499 381 l 411 782 l 324 381 m 414 1393 q 563 1337 507 1393 q 618 1200 618 1281 q 593 1104 618 1149 q 522 1033 568 1060 q 414 1007 476 1007 q 307 1033 353 1007 q 236 1104 261 1060 q 211 1200 211 1149 q 267 1337 211 1281 q 414 1393 322 1393 m 414 1267 q 372 1250 388 1267 q 356 1200 356 1233 q 372 1151 356 1168 q 414 1133 388 1133 q 457 1151 440 1133 q 474 1200 474 1168 q 458 1250 474 1233 q 414 1267 442 1267 z "},"Ǻ":{"ha":828,"x_min":-26,"x_max":854,"o":"m 582 0 l 539 197 l 283 197 l 240 0 l -26 0 l 260 965 l 568 965 l 854 0 l 582 0 m 324 381 l 499 381 l 411 782 l 324 381 m 413 1382 q 561 1326 506 1382 q 617 1189 617 1269 q 592 1093 617 1138 q 521 1022 567 1049 q 413 996 475 996 q 306 1022 351 996 q 235 1093 260 1049 q 210 1189 210 1138 q 265 1326 210 1269 q 413 1382 321 1382 m 413 1256 q 370 1239 386 1256 q 354 1189 354 1222 q 370 1140 354 1157 q 413 1122 386 1122 q 456 1140 439 1122 q 472 1189 472 1157 q 456 1239 472 1222 q 413 1256 440 1256 m 528 1692 l 617 1510 l 274 1386 l 211 1511 l 528 1692 z "},"Ⱥ":{"ha":828,"x_min":-26,"x_max":854,"o":"m 606 0 l 558 197 l 410 197 l 331 -106 l 244 -85 l 319 197 l 265 197 l 218 0 l -26 0 l 260 965 l 524 965 l 546 1051 l 631 1032 l 592 885 l 854 0 l 606 0 m 306 368 l 364 368 l 444 669 l 411 807 l 306 368 m 456 368 l 517 368 l 488 490 l 456 368 z "},"Ã":{"ha":828,"x_min":-26,"x_max":854,"o":"m 582 0 l 539 197 l 283 197 l 240 0 l -26 0 l 260 965 l 568 965 l 854 0 l 582 0 m 324 381 l 499 381 l 411 782 l 324 381 m 494 1047 q 440 1057 463 1047 q 390 1085 417 1067 q 363 1101 376 1094 q 336 1108 349 1108 q 296 1094 311 1108 q 263 1049 281 1081 l 143 1107 q 219 1233 171 1183 q 331 1283 268 1283 q 388 1274 364 1283 q 438 1246 411 1264 q 465 1229 451 1236 q 492 1222 479 1222 q 531 1236 515 1222 q 564 1282 546 1250 l 683 1224 q 606 1097 654 1146 q 494 1047 557 1047 z "},"Æ":{"ha":1186,"x_min":-37,"x_max":1150,"o":"m 828 182 l 1150 182 l 1150 0 l 611 0 l 581 197 l 304 197 l 240 0 l -37 0 l 340 965 l 1100 965 l 1072 783 l 714 783 l 753 576 l 1088 576 l 1088 399 l 786 399 l 828 182 m 363 381 l 553 381 l 490 779 l 363 381 z "},"Ǽ":{"ha":1186,"x_min":-37,"x_max":1150,"o":"m 828 182 l 1150 182 l 1150 0 l 611 0 l 581 197 l 304 197 l 240 0 l -37 0 l 340 965 l 1100 965 l 1072 783 l 714 783 l 753 576 l 1088 576 l 1088 399 l 786 399 l 828 182 m 363 381 l 553 381 l 490 779 l 363 381 m 789 1347 l 878 1165 l 535 1042 l 472 1167 l 789 1347 z "},"Ǣ":{"ha":1186,"x_min":-37,"x_max":1150,"o":"m 828 182 l 1150 182 l 1150 0 l 611 0 l 581 197 l 304 197 l 240 0 l -37 0 l 340 965 l 1100 965 l 1072 783 l 714 783 l 753 576 l 1088 576 l 1088 399 l 786 399 l 828 182 m 363 381 l 553 381 l 490 779 l 363 381 m 893 1081 l 456 1081 l 456 1249 l 893 1249 l 893 1081 z "},"B":{"ha":860,"x_min":75,"x_max":832,"o":"m 615 511 q 772 440 713 492 q 832 283 832 389 q 718 63 832 126 q 400 0 604 0 l 75 0 l 75 965 l 363 965 q 681 908 571 965 q 792 717 792 850 q 741 581 792 632 q 615 511 690 531 m 332 786 l 332 585 l 399 585 q 499 610 467 585 q 531 690 531 635 q 497 764 531 742 q 386 786 463 786 l 332 786 m 401 183 q 525 208 483 183 q 567 299 567 232 q 528 391 567 363 q 415 419 489 419 l 332 419 l 332 183 l 401 183 z "},"Ḃ":{"ha":860,"x_min":75,"x_max":832,"o":"m 615 511 q 772 440 713 492 q 832 283 832 389 q 718 63 832 126 q 400 0 604 0 l 75 0 l 75 965 l 363 965 q 681 908 571 965 q 792 717 792 850 q 741 581 792 632 q 615 511 690 531 m 332 786 l 332 585 l 399 585 q 499 610 467 585 q 531 690 531 635 q 497 764 531 742 q 386 786 463 786 l 332 786 m 401 183 q 525 208 483 183 q 567 299 567 232 q 528 391 567 363 q 415 419 489 419 l 332 419 l 332 183 l 401 183 m 407 1314 q 509 1275 469 1314 q 549 1178 549 1236 q 509 1081 549 1119 q 407 1042 469 1042 q 305 1081 344 1042 q 265 1178 265 1119 q 305 1275 265 1236 q 407 1314 344 1314 z "},"Ḅ":{"ha":860,"x_min":75,"x_max":832,"o":"m 615 511 q 772 440 713 492 q 832 283 832 389 q 718 63 832 126 q 400 0 604 0 l 75 0 l 75 965 l 363 965 q 681 908 571 965 q 792 717 792 850 q 741 581 792 632 q 615 511 690 531 m 332 786 l 332 585 l 399 585 q 499 610 467 585 q 531 690 531 635 q 497 764 531 742 q 386 786 463 786 l 332 786 m 401 183 q 525 208 483 183 q 567 299 567 232 q 528 391 567 363 q 415 419 489 419 l 332 419 l 332 183 l 401 183 m 431 -350 q 328 -311 368 -350 q 289 -214 289 -272 q 328 -117 289 -156 q 431 -78 368 -78 q 533 -117 493 -78 q 572 -214 572 -156 q 533 -311 572 -272 q 431 -350 493 -350 z "},"Ꞵ":{"ha":860,"x_min":75,"x_max":832,"o":"m 615 511 q 772 441 711 492 q 832 288 832 390 q 727 67 832 135 q 464 0 622 0 q 332 11 399 0 l 332 -296 l 75 -296 l 75 965 l 363 965 q 681 908 571 965 q 792 717 792 850 q 741 581 792 632 q 615 511 690 531 m 424 183 q 567 306 567 183 q 533 392 567 364 q 438 419 499 419 l 399 419 l 413 585 l 424 585 q 501 610 472 585 q 531 685 531 636 q 497 763 531 740 q 386 786 464 786 l 332 786 l 332 189 q 424 183 372 183 z "},"Ɓ":{"ha":1082,"x_min":3,"x_max":1053,"o":"m 836 511 q 993 440 933 492 q 1053 283 1053 389 q 939 63 1053 126 q 621 0 825 0 l 296 0 l 296 785 l 260 785 q 199 729 199 785 q 204 689 199 708 q 221 642 210 669 l 65 575 q 19 660 36 619 q 3 746 3 701 q 76 907 3 849 q 274 965 150 965 l 583 965 q 902 908 792 965 q 1013 717 1013 850 q 962 581 1013 632 q 836 511 911 531 m 553 786 l 553 585 l 619 585 q 719 610 688 585 q 751 690 751 635 q 717 764 751 742 q 607 786 683 786 l 553 786 m 622 183 q 746 208 704 183 q 788 299 788 232 q 749 391 788 363 q 636 419 710 419 l 553 419 l 553 183 l 622 183 z "},"Ƀ":{"ha":882,"x_min":17,"x_max":853,"o":"m 636 511 q 793 440 733 492 q 853 283 853 389 q 739 63 853 126 q 421 0 625 0 l 96 0 l 96 247 l 17 247 l 17 363 l 96 363 l 96 965 l 383 965 q 702 908 592 965 q 813 717 813 850 q 762 581 813 632 q 636 511 711 531 m 353 786 l 353 585 l 419 585 q 519 610 488 585 q 551 690 551 635 q 517 764 551 742 q 407 786 483 786 l 353 786 m 422 183 q 546 208 504 183 q 588 299 588 232 q 549 391 588 363 q 436 419 510 419 l 353 419 l 353 363 l 496 363 l 496 247 l 353 247 l 353 183 l 422 183 z "},"Ƃ":{"ha":835,"x_min":75,"x_max":815,"o":"m 428 626 q 715 549 614 626 q 815 322 815 472 q 711 83 815 165 q 436 0 607 0 l 75 0 l 75 965 l 700 965 l 675 772 l 332 772 l 332 626 l 428 626 m 407 183 q 512 218 476 183 q 547 319 547 253 q 401 451 547 451 l 332 451 l 332 183 l 407 183 z "},"C":{"ha":804,"x_min":38,"x_max":800,"o":"m 486 990 q 651 963 578 990 q 789 881 725 935 l 668 738 q 585 786 625 769 q 499 803 544 803 q 356 724 407 803 q 304 485 304 644 q 356 247 304 325 q 501 169 408 169 q 594 190 551 169 q 686 249 636 210 l 800 104 q 663 11 743 47 q 490 -25 583 -25 q 251 34 353 -25 q 93 208 149 93 q 38 485 38 322 q 94 757 38 643 q 253 931 151 871 q 486 990 354 990 z "},"Ć":{"ha":804,"x_min":38,"x_max":800,"o":"m 486 990 q 651 963 578 990 q 789 881 725 935 l 668 738 q 585 786 625 769 q 499 803 544 803 q 356 724 407 803 q 304 485 304 644 q 356 247 304 325 q 501 169 408 169 q 594 190 551 169 q 686 249 636 210 l 800 104 q 663 11 743 47 q 490 -25 583 -25 q 251 34 353 -25 q 93 208 149 93 q 38 485 38 322 q 94 757 38 643 q 253 931 151 871 q 486 990 354 990 m 608 1347 l 697 1165 l 354 1042 l 292 1167 l 608 1347 z "},"Č":{"ha":804,"x_min":38,"x_max":800,"o":"m 486 990 q 651 963 578 990 q 789 881 725 935 l 668 738 q 585 786 625 769 q 499 803 544 803 q 356 724 407 803 q 304 485 304 644 q 356 247 304 325 q 501 169 408 169 q 594 190 551 169 q 686 249 636 210 l 800 104 q 663 11 743 47 q 490 -25 583 -25 q 251 34 353 -25 q 93 208 149 93 q 38 485 38 322 q 94 757 38 643 q 253 931 151 871 q 486 990 354 990 m 682 1325 l 768 1226 l 569 1039 l 419 1039 l 221 1226 l 307 1325 l 494 1207 l 682 1325 z "},"Ç":{"ha":804,"x_min":38,"x_max":800,"o":"m 535 -62 q 646 -109 608 -72 q 683 -207 683 -146 q 625 -327 683 -281 q 467 -374 567 -374 q 374 -360 417 -374 q 301 -328 331 -347 l 357 -218 q 444 -243 400 -243 q 508 -204 508 -243 q 478 -172 508 -182 q 379 -161 447 -161 l 397 -18 q 133 140 228 11 q 38 485 38 269 q 94 757 38 643 q 253 931 151 871 q 486 990 354 990 q 651 963 578 990 q 789 881 725 935 l 668 738 q 585 786 625 769 q 499 803 544 803 q 356 724 407 803 q 304 485 304 644 q 356 247 304 325 q 501 169 408 169 q 594 190 551 169 q 686 249 636 210 l 800 104 q 683 21 751 56 q 535 -22 614 -14 l 535 -62 z "},"Ĉ":{"ha":804,"x_min":38,"x_max":800,"o":"m 486 990 q 651 963 578 990 q 789 881 725 935 l 668 738 q 585 786 625 769 q 499 803 544 803 q 356 724 407 803 q 304 485 304 644 q 356 247 304 325 q 501 169 408 169 q 594 190 551 169 q 686 249 636 210 l 800 104 q 663 11 743 47 q 490 -25 583 -25 q 251 34 353 -25 q 93 208 149 93 q 38 485 38 322 q 94 757 38 643 q 253 931 151 871 q 486 990 354 990 m 307 1046 l 221 1144 l 419 1332 l 569 1332 l 768 1144 l 682 1046 l 494 1164 l 307 1046 z "},"Ċ":{"ha":804,"x_min":38,"x_max":800,"o":"m 486 990 q 651 963 578 990 q 789 881 725 935 l 668 738 q 585 786 625 769 q 499 803 544 803 q 356 724 407 803 q 304 485 304 644 q 356 247 304 325 q 501 169 408 169 q 594 190 551 169 q 686 249 636 210 l 800 104 q 663 11 743 47 q 490 -25 583 -25 q 251 34 353 -25 q 93 208 149 93 q 38 485 38 322 q 94 757 38 643 q 253 931 151 871 q 486 990 354 990 m 494 1314 q 597 1275 557 1314 q 636 1178 636 1236 q 597 1081 636 1119 q 494 1042 557 1042 q 392 1081 432 1042 q 353 1178 353 1119 q 392 1275 353 1236 q 494 1314 432 1314 z "},"Ꭓ":{"ha":811,"x_min":-10,"x_max":821,"o":"m 554 403 l 821 -237 l 543 -237 l 400 232 l 263 -237 l -10 -237 l 247 394 l 10 965 l 286 965 l 403 554 l 528 965 l 799 965 l 554 403 z "},"Ƈ":{"ha":804,"x_min":38,"x_max":1014,"o":"m 818 1190 q 1014 1139 929 1190 l 946 986 q 898 1005 918 999 q 854 1011 878 1011 q 805 992 821 1011 q 789 931 789 972 l 789 881 l 679 751 q 593 790 635 776 q 497 803 551 803 q 356 724 407 803 q 304 485 304 644 q 356 248 304 326 q 503 169 408 169 q 592 190 551 169 q 686 250 633 210 l 800 104 q 663 11 743 47 q 489 -25 583 -25 q 250 34 351 -25 q 93 208 149 93 q 38 485 38 322 q 94 755 38 640 q 245 930 150 869 q 453 990 340 990 q 575 968 526 990 q 641 1133 581 1075 q 818 1190 701 1190 z "},"Ȼ":{"ha":804,"x_min":38,"x_max":800,"o":"m 800 104 q 663 11 743 47 q 490 -25 583 -25 q 386 -15 433 -25 l 363 -106 l 276 -85 l 301 10 q 107 181 176 60 q 38 485 38 303 q 94 757 38 643 q 253 931 151 871 q 486 990 354 990 q 560 985 528 990 l 578 1051 l 663 1032 l 644 965 q 789 881 725 936 l 668 738 q 596 782 629 767 l 438 181 q 501 169 468 169 q 594 190 551 169 q 686 249 636 210 l 800 104 m 304 485 q 363 239 304 319 l 511 803 l 499 803 q 356 724 407 803 q 304 485 304 644 z "},"D":{"ha":908,"x_min":75,"x_max":871,"o":"m 364 965 q 732 862 593 965 q 871 486 871 758 q 383 0 871 0 l 75 0 l 75 965 l 364 965 m 332 782 l 332 183 l 399 183 q 555 250 504 183 q 606 486 606 317 q 581 667 606 603 q 512 757 557 732 q 397 782 467 782 l 332 782 z "},"Ǳ":{"ha":1638,"x_min":75,"x_max":1610,"o":"m 364 965 q 732 862 593 965 q 871 486 871 758 q 383 0 871 0 l 75 0 l 75 965 l 364 965 m 332 782 l 332 183 l 399 183 q 555 250 504 183 q 606 486 606 317 q 581 667 606 603 q 512 757 557 732 q 397 782 467 782 l 332 782 m 1599 965 l 1599 772 l 1197 203 l 1610 203 l 1583 0 l 893 0 l 893 190 l 1306 768 l 933 768 l 933 965 l 1599 965 z "},"Ǆ":{"ha":1638,"x_min":75,"x_max":1610,"o":"m 364 965 q 732 862 593 965 q 871 486 871 758 q 383 0 871 0 l 75 0 l 75 965 l 364 965 m 332 782 l 332 183 l 399 183 q 555 250 504 183 q 606 486 606 317 q 581 667 606 603 q 512 757 557 732 q 397 782 467 782 l 332 782 m 1599 965 l 1599 772 l 1197 203 l 1610 203 l 1583 0 l 893 0 l 893 190 l 1306 768 l 933 768 l 933 965 l 1599 965 m 1447 1325 l 1533 1226 l 1335 1039 l 1185 1039 l 986 1226 l 1072 1325 l 1260 1207 l 1447 1325 z "},"Ɖ":{"ha":928,"x_min":17,"x_max":890,"o":"m 383 965 q 751 862 613 965 q 890 486 890 758 q 403 0 890 0 l 94 0 l 94 415 l 17 415 l 17 565 l 94 565 l 94 965 l 383 965 m 418 183 q 574 250 524 183 q 625 486 625 317 q 601 667 625 603 q 531 757 576 732 q 417 782 486 782 l 351 782 l 351 565 l 529 565 l 529 415 l 351 415 l 351 183 l 418 183 z "},"Ð":{"ha":928,"x_min":17,"x_max":890,"o":"m 383 965 q 751 862 613 965 q 890 486 890 758 q 403 0 890 0 l 94 0 l 94 415 l 17 415 l 17 565 l 94 565 l 94 965 l 383 965 m 418 183 q 574 250 524 183 q 625 486 625 317 q 601 667 625 603 q 531 757 576 732 q 417 782 486 782 l 351 782 l 351 565 l 529 565 l 529 415 l 351 415 l 351 183 l 418 183 z "},"Ď":{"ha":908,"x_min":75,"x_max":871,"o":"m 364 965 q 732 862 593 965 q 871 486 871 758 q 383 0 871 0 l 75 0 l 75 965 l 364 965 m 332 782 l 332 183 l 399 183 q 555 250 504 183 q 606 486 606 317 q 581 667 606 603 q 512 757 557 732 q 397 782 467 782 l 332 782 m 594 1325 l 681 1226 l 482 1039 l 332 1039 l 133 1226 l 219 1325 l 407 1207 l 594 1325 z "},"Ḓ":{"ha":908,"x_min":75,"x_max":871,"o":"m 364 965 q 732 862 593 965 q 871 486 871 758 q 383 0 871 0 l 75 0 l 75 965 l 364 965 m 332 782 l 332 183 l 399 183 q 555 250 504 183 q 606 486 606 317 q 581 667 606 603 q 512 757 557 732 q 397 782 467 782 l 332 782 m 240 -383 l 154 -285 l 353 -86 l 501 -86 l 701 -285 l 615 -383 l 428 -254 l 240 -383 z "},"Đ":{"ha":928,"x_min":17,"x_max":890,"o":"m 383 965 q 751 862 613 965 q 890 486 890 758 q 403 0 890 0 l 94 0 l 94 415 l 17 415 l 17 565 l 94 565 l 94 965 l 383 965 m 418 183 q 574 250 524 183 q 625 486 625 317 q 601 667 625 603 q 531 757 576 732 q 417 782 486 782 l 351 782 l 351 565 l 529 565 l 529 415 l 351 415 l 351 183 l 418 183 z "},"Ḋ":{"ha":908,"x_min":75,"x_max":871,"o":"m 364 965 q 732 862 593 965 q 871 486 871 758 q 383 0 871 0 l 75 0 l 75 965 l 364 965 m 332 782 l 332 183 l 399 183 q 555 250 504 183 q 606 486 606 317 q 581 667 606 603 q 512 757 557 732 q 397 782 467 782 l 332 782 m 407 1314 q 509 1275 469 1314 q 549 1178 549 1236 q 509 1081 549 1119 q 407 1042 469 1042 q 305 1081 344 1042 q 265 1178 265 1119 q 305 1275 265 1236 q 407 1314 344 1314 z "},"Ḍ":{"ha":908,"x_min":75,"x_max":871,"o":"m 364 965 q 732 862 593 965 q 871 486 871 758 q 383 0 871 0 l 75 0 l 75 965 l 364 965 m 332 782 l 332 183 l 399 183 q 555 250 504 183 q 606 486 606 317 q 581 667 606 603 q 512 757 557 732 q 397 782 467 782 l 332 782 m 428 -350 q 326 -311 365 -350 q 286 -214 286 -272 q 326 -117 286 -156 q 428 -78 365 -78 q 530 -117 490 -78 q 569 -214 569 -156 q 530 -311 569 -272 q 428 -350 490 -350 z "},"Ɗ":{"ha":1129,"x_min":3,"x_max":1092,"o":"m 585 965 q 953 862 814 965 q 1092 486 1092 758 q 604 0 1092 0 l 296 0 l 296 785 l 260 785 q 199 729 199 785 q 204 689 199 708 q 221 642 210 669 l 65 575 q 19 660 36 619 q 3 746 3 701 q 76 907 3 849 q 274 965 150 965 l 585 965 m 619 183 q 776 250 725 183 q 826 486 826 317 q 802 667 826 603 q 733 757 778 732 q 618 782 688 782 l 553 782 l 553 183 l 619 183 z "},"Ḏ":{"ha":908,"x_min":75,"x_max":871,"o":"m 364 965 q 732 862 593 965 q 871 486 871 758 q 383 0 871 0 l 75 0 l 75 965 l 364 965 m 332 782 l 332 183 l 399 183 q 555 250 504 183 q 606 486 606 317 q 581 667 606 603 q 512 757 557 732 q 397 782 467 782 l 332 782 m 646 -272 l 208 -272 l 208 -104 l 646 -104 l 646 -272 z "},"Ƌ":{"ha":835,"x_min":19,"x_max":760,"o":"m 760 0 l 393 0 q 121 79 222 0 q 19 315 19 158 q 121 545 19 464 q 407 626 222 626 l 503 626 l 503 772 l 144 772 l 144 965 l 760 965 l 760 0 m 503 183 l 503 451 l 433 451 q 288 315 288 451 q 428 183 288 183 l 503 183 z "},"ǲ":{"ha":1540,"x_min":75,"x_max":1522,"o":"m 364 965 q 732 862 593 965 q 871 486 871 758 q 383 0 871 0 l 75 0 l 75 965 l 364 965 m 332 782 l 332 183 l 399 183 q 555 250 504 183 q 606 486 606 317 q 581 667 606 603 q 512 757 557 732 q 397 782 467 782 l 332 782 m 1513 740 l 1513 567 l 1194 185 l 1522 185 l 1500 0 l 907 0 l 907 174 l 1229 557 l 935 557 l 935 740 l 1513 740 z "},"ǅ":{"ha":1540,"x_min":75,"x_max":1522,"o":"m 364 965 q 732 862 593 965 q 871 486 871 758 q 383 0 871 0 l 75 0 l 75 965 l 364 965 m 332 782 l 332 183 l 399 183 q 555 250 504 183 q 606 486 606 317 q 581 667 606 603 q 512 757 557 732 q 397 782 467 782 l 332 782 m 1513 740 l 1513 567 l 1194 185 l 1522 185 l 1500 0 l 907 0 l 907 174 l 1229 557 l 935 557 l 935 740 l 1513 740 m 1411 1142 l 1497 1043 l 1299 843 l 1149 843 l 950 1043 l 1036 1142 l 1224 1011 l 1411 1142 z "},"E":{"ha":726,"x_min":75,"x_max":688,"o":"m 688 965 l 661 783 l 332 783 l 332 578 l 619 578 l 619 401 l 332 401 l 332 182 l 683 182 l 683 0 l 75 0 l 75 965 l 688 965 z "},"É":{"ha":726,"x_min":75,"x_max":688,"o":"m 688 965 l 661 783 l 332 783 l 332 578 l 619 578 l 619 401 l 332 401 l 332 182 l 683 182 l 683 0 l 75 0 l 75 965 l 688 965 m 496 1347 l 585 1165 l 242 1042 l 179 1167 l 496 1347 z "},"Ĕ":{"ha":726,"x_min":75,"x_max":688,"o":"m 688 965 l 661 783 l 332 783 l 332 578 l 619 578 l 619 401 l 332 401 l 332 182 l 683 182 l 683 0 l 75 0 l 75 965 l 688 965 m 381 1039 q 207 1110 271 1039 q 133 1281 143 1181 l 265 1304 q 308 1235 279 1261 q 381 1208 336 1208 q 456 1235 426 1208 q 497 1304 485 1261 l 629 1281 q 556 1110 619 1181 q 381 1039 492 1039 z "},"Ě":{"ha":726,"x_min":75,"x_max":688,"o":"m 688 965 l 661 783 l 332 783 l 332 578 l 619 578 l 619 401 l 332 401 l 332 182 l 683 182 l 683 0 l 75 0 l 75 965 l 688 965 m 569 1325 l 656 1226 l 457 1039 l 307 1039 l 108 1226 l 194 1325 l 382 1207 l 569 1325 z "},"Ȩ":{"ha":726,"x_min":75,"x_max":688,"o":"m 332 182 l 683 182 l 683 0 l 442 0 l 442 -62 q 553 -109 515 -72 q 590 -207 590 -146 q 532 -327 590 -281 q 374 -374 474 -374 q 281 -360 324 -374 q 208 -328 238 -347 l 264 -218 q 351 -243 307 -243 q 415 -204 415 -243 q 385 -172 415 -182 q 286 -161 354 -161 l 307 0 l 75 0 l 75 965 l 688 965 l 661 783 l 332 783 l 332 578 l 619 578 l 619 401 l 332 401 l 332 182 z "},"Ê":{"ha":726,"x_min":75,"x_max":688,"o":"m 688 965 l 661 783 l 332 783 l 332 578 l 619 578 l 619 401 l 332 401 l 332 182 l 683 182 l 683 0 l 75 0 l 75 965 l 688 965 m 194 1046 l 108 1144 l 307 1332 l 457 1332 l 656 1144 l 569 1046 l 382 1164 l 194 1046 z "},"Ế":{"ha":726,"x_min":75,"x_max":850,"o":"m 688 965 l 661 783 l 332 783 l 332 578 l 619 578 l 619 401 l 332 401 l 332 182 l 683 182 l 683 0 l 75 0 l 75 965 l 688 965 m 194 1003 l 108 1101 l 307 1289 l 457 1289 l 656 1101 l 569 1003 l 382 1121 l 194 1003 m 718 1549 l 850 1419 l 621 1219 l 529 1301 l 718 1549 z "},"Ệ":{"ha":726,"x_min":75,"x_max":688,"o":"m 688 965 l 661 783 l 332 783 l 332 578 l 619 578 l 619 401 l 332 401 l 332 182 l 683 182 l 683 0 l 75 0 l 75 965 l 688 965 m 194 1046 l 108 1144 l 307 1332 l 457 1332 l 656 1144 l 569 1046 l 382 1164 l 194 1046 m 379 -350 q 277 -311 317 -350 q 238 -214 238 -272 q 277 -117 238 -156 q 379 -78 317 -78 q 481 -117 442 -78 q 521 -214 521 -156 q 481 -311 521 -272 q 379 -350 442 -350 z "},"Ề":{"ha":726,"x_min":-85,"x_max":688,"o":"m 688 965 l 661 783 l 332 783 l 332 578 l 619 578 l 619 401 l 332 401 l 332 182 l 683 182 l 683 0 l 75 0 l 75 965 l 688 965 m 193 1003 l 107 1101 l 306 1289 l 456 1289 l 654 1101 l 568 1003 l 381 1121 l 193 1003 m 47 1549 l 236 1301 l 143 1219 l -85 1419 l 47 1549 z "},"Ể":{"ha":726,"x_min":75,"x_max":819,"o":"m 688 965 l 661 783 l 332 783 l 332 578 l 619 578 l 619 401 l 332 401 l 332 182 l 683 182 l 683 0 l 75 0 l 75 965 l 688 965 m 193 1003 l 107 1101 l 306 1289 l 456 1289 l 654 1101 l 568 1003 l 381 1121 l 193 1003 m 560 1332 q 635 1346 613 1335 q 658 1383 658 1357 q 644 1413 658 1403 q 606 1424 629 1424 q 563 1419 582 1424 q 521 1406 544 1415 l 482 1503 q 639 1540 546 1540 q 772 1500 725 1540 q 819 1394 819 1460 q 789 1307 819 1340 q 701 1263 758 1274 l 701 1206 l 560 1206 l 560 1332 z "},"Ễ":{"ha":726,"x_min":75,"x_max":688,"o":"m 688 965 l 661 783 l 332 783 l 332 578 l 619 578 l 619 401 l 332 401 l 332 182 l 683 182 l 683 0 l 75 0 l 75 965 l 688 965 m 192 1003 l 106 1101 l 304 1289 l 454 1289 l 653 1101 l 567 1003 l 379 1121 l 192 1003 m 460 1325 q 403 1334 428 1325 q 356 1360 379 1343 q 328 1374 342 1368 q 301 1381 314 1381 q 261 1368 276 1381 q 228 1326 246 1356 l 108 1381 q 185 1497 136 1451 q 296 1542 233 1542 q 353 1533 329 1542 q 403 1507 376 1524 q 431 1492 417 1499 q 457 1486 444 1486 q 495 1499 479 1486 q 529 1540 511 1511 l 649 1488 q 571 1370 619 1415 q 460 1325 522 1325 z "},"Ȅ":{"ha":726,"x_min":38,"x_max":688,"o":"m 688 965 l 661 783 l 332 783 l 332 578 l 619 578 l 619 401 l 332 401 l 332 182 l 683 182 l 683 0 l 75 0 l 75 965 l 688 965 m 197 1382 l 336 1099 l 213 1040 l 38 1301 l 197 1382 m 450 1382 l 579 1096 l 453 1046 l 289 1307 l 450 1382 z "},"Ë":{"ha":726,"x_min":75,"x_max":688,"o":"m 688 965 l 661 783 l 332 783 l 332 578 l 619 578 l 619 401 l 332 401 l 332 182 l 683 182 l 683 0 l 75 0 l 75 965 l 688 965 m 214 1299 q 301 1264 265 1299 q 336 1179 336 1229 q 301 1094 336 1129 q 214 1060 265 1060 q 128 1094 164 1060 q 92 1179 92 1129 q 128 1264 92 1229 q 214 1299 164 1299 m 544 1299 q 631 1264 596 1299 q 667 1179 667 1229 q 631 1094 667 1129 q 544 1060 596 1060 q 458 1094 494 1060 q 422 1179 422 1129 q 458 1264 422 1229 q 544 1299 494 1299 z "},"Ė":{"ha":726,"x_min":75,"x_max":688,"o":"m 688 965 l 661 783 l 332 783 l 332 578 l 619 578 l 619 401 l 332 401 l 332 182 l 683 182 l 683 0 l 75 0 l 75 965 l 688 965 m 382 1314 q 484 1275 444 1314 q 524 1178 524 1236 q 484 1081 524 1119 q 382 1042 444 1042 q 280 1081 319 1042 q 240 1178 240 1119 q 280 1275 240 1236 q 382 1314 319 1314 z "},"Ẹ":{"ha":726,"x_min":75,"x_max":688,"o":"m 688 965 l 661 783 l 332 783 l 332 578 l 619 578 l 619 401 l 332 401 l 332 182 l 683 182 l 683 0 l 75 0 l 75 965 l 688 965 m 379 -350 q 277 -311 317 -350 q 238 -214 238 -272 q 277 -117 238 -156 q 379 -78 317 -78 q 481 -117 442 -78 q 521 -214 521 -156 q 481 -311 521 -272 q 379 -350 442 -350 z "},"È":{"ha":726,"x_min":75,"x_max":688,"o":"m 688 965 l 661 783 l 332 783 l 332 578 l 619 578 l 619 401 l 332 401 l 332 182 l 683 182 l 683 0 l 75 0 l 75 965 l 688 965 m 267 1347 l 582 1167 l 519 1042 l 176 1165 l 267 1347 z "},"Ẻ":{"ha":726,"x_min":75,"x_max":688,"o":"m 688 965 l 661 783 l 332 783 l 332 578 l 619 578 l 619 401 l 332 401 l 332 182 l 683 182 l 683 0 l 75 0 l 75 965 l 688 965 m 311 1188 q 387 1201 364 1190 q 410 1239 410 1213 q 395 1269 410 1258 q 357 1279 381 1279 q 315 1275 333 1279 q 272 1261 296 1271 l 233 1358 q 390 1396 297 1396 q 524 1356 476 1396 q 571 1250 571 1315 q 540 1163 571 1196 q 453 1118 510 1129 l 453 1061 l 311 1061 l 311 1188 z "},"Ȇ":{"ha":726,"x_min":75,"x_max":688,"o":"m 688 965 l 661 783 l 332 783 l 332 578 l 619 578 l 619 401 l 332 401 l 332 182 l 683 182 l 683 0 l 75 0 l 75 965 l 688 965 m 381 1333 q 556 1260 492 1333 q 629 1078 621 1188 l 497 1054 q 456 1135 485 1106 q 381 1164 426 1164 q 265 1054 293 1164 l 133 1078 q 206 1260 142 1188 q 381 1333 269 1333 z "},"Ē":{"ha":726,"x_min":75,"x_max":688,"o":"m 688 965 l 661 783 l 332 783 l 332 578 l 619 578 l 619 401 l 332 401 l 332 182 l 683 182 l 683 0 l 75 0 l 75 965 l 688 965 m 600 1081 l 163 1081 l 163 1249 l 600 1249 l 600 1081 z "},"Ę":{"ha":726,"x_min":75,"x_max":688,"o":"m 332 182 l 683 182 l 683 0 l 628 0 q 467 -137 467 -57 q 539 -199 467 -199 q 624 -189 579 -199 l 607 -336 q 507 -347 560 -347 q 354 -301 414 -347 q 294 -179 294 -256 q 401 0 294 -69 l 75 0 l 75 965 l 688 965 l 661 783 l 332 783 l 332 578 l 619 578 l 619 401 l 332 401 l 332 182 z "},"Ɛ":{"ha":760,"x_min":29,"x_max":768,"o":"m 410 990 q 589 958 510 990 q 738 860 668 925 l 617 732 q 442 808 532 808 q 349 780 378 808 q 319 706 319 751 q 354 626 319 654 q 453 597 389 597 l 561 597 l 532 418 l 457 418 q 338 384 378 418 q 297 288 297 350 q 336 192 297 225 q 444 160 375 160 q 543 180 499 160 q 633 243 588 200 l 768 111 q 419 -25 640 -25 q 217 11 306 -25 q 78 114 128 47 q 29 269 29 181 q 94 437 29 376 q 279 510 158 497 q 113 592 168 533 q 57 735 57 651 q 101 867 57 808 q 226 958 146 925 q 410 990 307 990 z "},"Ǝ":{"ha":726,"x_min":42,"x_max":651,"o":"m 50 965 l 651 965 l 651 0 l 42 0 l 42 182 l 394 182 l 394 401 l 106 401 l 106 578 l 394 578 l 394 783 l 50 783 l 50 965 z "},"Ʃ":{"ha":699,"x_min":22,"x_max":676,"o":"m 676 965 l 676 781 l 304 781 l 524 521 l 524 428 l 301 188 l 676 188 l 676 0 l 22 0 l 22 183 l 276 472 l 22 782 l 22 965 l 676 965 z "},"Ɇ":{"ha":726,"x_min":75,"x_max":688,"o":"m 475 401 l 418 182 l 683 182 l 683 0 l 369 0 l 342 -106 l 256 -85 l 278 0 l 75 0 l 75 965 l 535 965 l 557 1051 l 642 1032 l 624 965 l 688 965 l 661 783 l 576 783 l 522 578 l 619 578 l 619 401 l 475 401 m 332 783 l 332 578 l 432 578 l 486 783 l 332 783 m 332 401 l 332 203 l 385 401 l 332 401 z "},"Ẽ":{"ha":726,"x_min":75,"x_max":688,"o":"m 688 965 l 661 783 l 332 783 l 332 578 l 619 578 l 619 401 l 332 401 l 332 182 l 683 182 l 683 0 l 75 0 l 75 965 l 688 965 m 463 1047 q 408 1057 431 1047 q 358 1085 385 1067 q 331 1101 344 1094 q 304 1108 317 1108 q 264 1094 279 1108 q 231 1049 249 1081 l 111 1107 q 188 1233 139 1183 q 299 1283 236 1283 q 356 1274 332 1283 q 406 1246 379 1264 q 433 1229 419 1236 q 460 1222 447 1222 q 499 1236 483 1222 q 532 1282 514 1250 l 651 1224 q 574 1097 622 1146 q 463 1047 525 1047 z "},"Ʒ":{"ha":772,"x_min":3,"x_max":743,"o":"m 457 561 q 668 483 593 556 q 743 289 743 411 q 696 129 743 200 q 559 17 649 58 q 346 -25 469 -25 q 147 13 231 -25 q 3 122 63 51 l 132 247 q 226 181 181 201 q 331 161 271 161 q 438 197 399 161 q 478 299 478 233 q 319 419 478 419 l 176 419 l 176 557 l 408 782 l 61 782 l 61 965 l 689 965 l 689 788 l 457 561 z "},"Ǯ":{"ha":772,"x_min":3,"x_max":743,"o":"m 457 561 q 668 483 593 556 q 743 289 743 411 q 696 129 743 200 q 559 17 649 58 q 346 -25 469 -25 q 147 13 231 -25 q 3 122 63 51 l 132 247 q 226 181 181 201 q 331 161 271 161 q 438 197 399 161 q 478 299 478 233 q 319 419 478 419 l 176 419 l 176 557 l 408 782 l 61 782 l 61 965 l 689 965 l 689 788 l 457 561 m 564 1325 l 650 1226 l 451 1039 l 301 1039 l 103 1226 l 189 1325 l 376 1207 l 564 1325 z "},"Ƹ":{"ha":772,"x_min":29,"x_max":769,"o":"m 769 122 q 622 13 707 50 q 417 -25 538 -25 q 210 15 297 -25 q 76 126 122 56 q 29 286 29 197 q 106 478 29 404 q 314 561 183 553 l 82 788 l 82 965 l 711 965 l 711 782 l 367 782 l 596 554 l 596 419 l 453 419 q 335 386 376 419 q 293 290 293 353 q 331 196 293 231 q 432 161 368 161 q 543 181 496 161 q 640 247 590 201 l 769 122 z "},"F":{"ha":675,"x_min":75,"x_max":668,"o":"m 75 0 l 75 965 l 668 965 l 642 783 l 332 783 l 332 551 l 604 551 l 604 369 l 332 369 l 332 0 l 75 0 z "},"Ḟ":{"ha":675,"x_min":75,"x_max":668,"o":"m 75 0 l 75 965 l 668 965 l 642 783 l 332 783 l 332 551 l 604 551 l 604 369 l 332 369 l 332 0 l 75 0 m 386 1314 q 488 1275 449 1314 q 528 1178 528 1236 q 488 1081 528 1119 q 386 1042 449 1042 q 284 1081 324 1042 q 244 1178 244 1119 q 284 1275 244 1236 q 386 1314 324 1314 z "},"Ƒ":{"ha":675,"x_min":-175,"x_max":668,"o":"m 332 783 l 332 551 l 604 551 l 604 369 l 332 369 l 332 -33 q 251 -240 332 -169 q 32 -311 171 -311 q -175 -251 -90 -311 l -93 -100 q -44 -122 -62 -115 q 3 -128 -25 -128 q 56 -108 38 -128 q 75 -49 75 -87 l 75 965 l 668 965 l 642 783 l 332 783 z "},"G":{"ha":901,"x_min":38,"x_max":846,"o":"m 511 990 q 843 868 704 990 l 717 736 q 622 791 664 774 q 525 808 579 808 q 362 728 421 808 q 303 482 303 647 q 322 291 303 361 q 381 190 342 221 q 483 160 421 160 q 597 186 546 160 l 597 385 l 488 385 l 463 561 l 846 561 l 846 81 q 676 3 771 31 q 490 -25 582 -25 q 38 483 38 -25 q 99 756 38 642 q 268 931 161 871 q 511 990 375 990 z "},"Ǵ":{"ha":901,"x_min":38,"x_max":846,"o":"m 511 990 q 843 868 704 990 l 717 736 q 622 791 664 774 q 525 808 579 808 q 362 728 421 808 q 303 482 303 647 q 322 291 303 361 q 381 190 342 221 q 483 160 421 160 q 597 186 546 160 l 597 385 l 488 385 l 463 561 l 846 561 l 846 81 q 676 3 771 31 q 490 -25 582 -25 q 38 483 38 -25 q 99 756 38 642 q 268 931 161 871 q 511 990 375 990 m 601 1347 l 690 1165 l 347 1042 l 285 1167 l 601 1347 z "},"Ɣ":{"ha":797,"x_min":-26,"x_max":824,"o":"m 532 138 q 603 -1 581 61 q 626 -129 626 -64 q 572 -262 626 -214 q 403 -311 518 -311 q 235 -262 289 -311 q 181 -129 181 -214 q 202 -12 181 -72 q 275 138 224 47 l -26 965 l 244 965 l 403 303 l 561 965 l 824 965 l 532 138 m 442 -112 q 433 -62 442 -89 q 403 8 424 -35 q 374 -63 383 -35 q 364 -114 364 -92 q 403 -156 364 -156 q 442 -112 442 -156 z "},"Ğ":{"ha":901,"x_min":38,"x_max":846,"o":"m 511 990 q 843 868 704 990 l 717 736 q 622 791 664 774 q 525 808 579 808 q 362 728 421 808 q 303 482 303 647 q 322 291 303 361 q 381 190 342 221 q 483 160 421 160 q 597 186 546 160 l 597 385 l 488 385 l 463 561 l 846 561 l 846 81 q 676 3 771 31 q 490 -25 582 -25 q 38 483 38 -25 q 99 756 38 642 q 268 931 161 871 q 511 990 375 990 m 486 1039 q 313 1110 376 1039 q 239 1281 249 1181 l 371 1304 q 413 1235 385 1261 q 486 1208 442 1208 q 561 1235 532 1208 q 603 1304 590 1261 l 735 1281 q 661 1110 725 1181 q 486 1039 597 1039 z "},"Ǧ":{"ha":901,"x_min":38,"x_max":846,"o":"m 511 990 q 843 868 704 990 l 717 736 q 622 791 664 774 q 525 808 579 808 q 362 728 421 808 q 303 482 303 647 q 322 291 303 361 q 381 190 342 221 q 483 160 421 160 q 597 186 546 160 l 597 385 l 488 385 l 463 561 l 846 561 l 846 81 q 676 3 771 31 q 490 -25 582 -25 q 38 483 38 -25 q 99 756 38 642 q 268 931 161 871 q 511 990 375 990 m 675 1325 l 761 1226 l 563 1039 l 413 1039 l 214 1226 l 300 1325 l 488 1207 l 675 1325 z "},"Ĝ":{"ha":901,"x_min":38,"x_max":846,"o":"m 511 990 q 843 868 704 990 l 717 736 q 622 791 664 774 q 525 808 579 808 q 362 728 421 808 q 303 482 303 647 q 322 291 303 361 q 381 190 342 221 q 483 160 421 160 q 597 186 546 160 l 597 385 l 488 385 l 463 561 l 846 561 l 846 81 q 676 3 771 31 q 490 -25 582 -25 q 38 483 38 -25 q 99 756 38 642 q 268 931 161 871 q 511 990 375 990 m 300 1046 l 214 1144 l 413 1332 l 563 1332 l 761 1144 l 675 1046 l 488 1164 l 300 1046 z "},"Ģ":{"ha":901,"x_min":38,"x_max":846,"o":"m 511 990 q 843 868 704 990 l 717 736 q 622 791 664 774 q 525 808 579 808 q 362 728 421 808 q 303 482 303 647 q 322 291 303 361 q 381 190 342 221 q 483 160 421 160 q 597 186 546 160 l 597 385 l 488 385 l 463 561 l 846 561 l 846 81 q 676 3 771 31 q 490 -25 582 -25 q 38 483 38 -25 q 99 756 38 642 q 268 931 161 871 q 511 990 375 990 m 486 -90 q 571 -124 538 -90 q 604 -207 604 -157 q 596 -258 604 -235 q 567 -326 588 -282 l 500 -462 l 381 -462 l 415 -304 q 367 -207 367 -265 q 401 -124 367 -158 q 486 -90 435 -90 z "},"Ġ":{"ha":901,"x_min":38,"x_max":846,"o":"m 511 990 q 843 868 704 990 l 717 736 q 622 791 664 774 q 525 808 579 808 q 362 728 421 808 q 303 482 303 647 q 322 291 303 361 q 381 190 342 221 q 483 160 421 160 q 597 186 546 160 l 597 385 l 488 385 l 463 561 l 846 561 l 846 81 q 676 3 771 31 q 490 -25 582 -25 q 38 483 38 -25 q 99 756 38 642 q 268 931 161 871 q 511 990 375 990 m 488 1314 q 590 1275 550 1314 q 629 1178 629 1236 q 590 1081 629 1119 q 488 1042 550 1042 q 385 1081 425 1042 q 346 1178 346 1119 q 385 1275 346 1236 q 488 1314 425 1314 z "},"Ɠ":{"ha":860,"x_min":38,"x_max":1069,"o":"m 874 1190 q 1069 1139 985 1190 l 1001 986 q 954 1005 975 999 q 910 1011 933 1011 q 843 931 843 1011 l 843 868 l 725 744 q 625 792 672 776 q 525 808 578 808 q 362 728 421 808 q 303 482 303 647 q 322 291 303 361 q 381 190 342 221 q 483 160 421 160 q 597 188 547 160 l 597 385 l 488 385 l 463 561 l 846 561 l 846 81 q 675 3 769 31 q 489 -25 581 -25 q 38 483 38 -25 q 99 756 38 640 q 261 931 160 871 q 482 990 363 990 q 631 963 564 990 q 695 1131 635 1072 q 874 1190 756 1190 z "},"Ɂ":{"ha":725,"x_min":3,"x_max":697,"o":"m 203 464 l 272 483 q 395 550 358 507 q 432 672 432 593 q 399 772 432 736 q 304 808 365 808 q 215 790 257 808 q 124 732 174 772 l 3 860 q 342 990 142 990 q 531 952 450 990 q 654 845 611 914 q 697 685 697 776 q 648 510 697 575 q 496 403 599 444 l 460 389 l 460 0 l 203 0 l 203 464 z "},"Ǥ":{"ha":935,"x_min":38,"x_max":933,"o":"m 933 247 l 846 247 l 846 81 q 676 3 771 31 q 490 -25 582 -25 q 38 483 38 -25 q 99 756 38 642 q 268 931 161 871 q 510 990 375 990 q 843 868 704 990 l 717 736 q 622 791 664 774 q 525 808 579 808 q 362 728 421 808 q 303 482 303 647 q 322 291 303 361 q 381 190 342 221 q 483 160 421 160 q 621 186 547 160 l 621 247 l 475 247 l 475 386 l 621 386 l 621 440 l 483 440 l 463 589 l 846 589 l 846 386 l 933 386 l 933 247 z "},"Ȝ":{"ha":729,"x_min":-8,"x_max":700,"o":"m 332 990 q 512 957 435 990 q 631 865 589 924 q 672 728 672 806 q 617 579 672 639 q 450 496 563 519 q 636 428 572 483 q 700 269 700 374 q 554 9 700 122 q 96 -162 408 -104 l 76 24 q 299 102 221 63 q 405 184 376 142 q 433 282 433 226 q 272 404 433 404 l 168 404 l 197 583 l 278 583 q 376 613 342 583 q 410 699 410 643 q 382 779 410 750 q 294 808 354 808 q 108 732 206 808 l -8 860 q 332 990 129 990 z "},"H":{"ha":918,"x_min":75,"x_max":844,"o":"m 588 0 l 588 401 l 332 401 l 332 0 l 75 0 l 75 965 l 332 965 l 332 600 l 588 600 l 588 965 l 844 965 l 844 0 l 588 0 z "},"Ħ":{"ha":936,"x_min":10,"x_max":928,"o":"m 928 828 l 928 690 l 853 690 l 853 0 l 596 0 l 596 401 l 340 401 l 340 0 l 83 0 l 83 690 l 10 690 l 10 828 l 83 828 l 83 965 l 340 965 l 340 828 l 596 828 l 596 965 l 853 965 l 853 828 l 928 828 m 596 600 l 596 690 l 340 690 l 340 600 l 596 600 z "},"Ȟ":{"ha":918,"x_min":75,"x_max":844,"o":"m 588 0 l 588 401 l 332 401 l 332 0 l 75 0 l 75 965 l 332 965 l 332 600 l 588 600 l 588 965 l 844 965 l 844 0 l 588 0 m 647 1325 l 733 1226 l 535 1039 l 385 1039 l 186 1226 l 272 1325 l 460 1207 l 647 1325 z "},"Ĥ":{"ha":918,"x_min":75,"x_max":844,"o":"m 588 0 l 588 401 l 332 401 l 332 0 l 75 0 l 75 965 l 332 965 l 332 600 l 588 600 l 588 965 l 844 965 l 844 0 l 588 0 m 272 1046 l 186 1144 l 385 1332 l 535 1332 l 733 1144 l 647 1046 l 460 1164 l 272 1046 z "},"Ḥ":{"ha":918,"x_min":75,"x_max":844,"o":"m 588 0 l 588 401 l 332 401 l 332 0 l 75 0 l 75 965 l 332 965 l 332 600 l 588 600 l 588 965 l 844 965 l 844 0 l 588 0 m 460 -350 q 358 -311 397 -350 q 318 -214 318 -272 q 358 -117 318 -156 q 460 -78 397 -78 q 562 -117 522 -78 q 601 -214 601 -156 q 562 -311 601 -272 q 460 -350 522 -350 z "},"Ɦ":{"ha":1140,"x_min":3,"x_max":1065,"o":"m 1065 965 l 1065 0 l 808 0 l 808 401 l 553 401 l 553 0 l 296 0 l 296 785 l 260 785 q 199 729 199 785 q 204 689 199 708 q 221 642 210 669 l 65 575 q 19 660 36 619 q 3 746 3 701 q 76 907 3 849 q 274 965 150 965 l 553 965 l 553 600 l 808 600 l 808 965 l 1065 965 z "},"Ɥ":{"ha":863,"x_min":22,"x_max":788,"o":"m 788 965 l 788 0 l 531 0 l 531 347 q 437 294 486 311 q 325 276 388 276 q 102 368 182 276 q 22 619 22 460 l 22 965 l 274 965 l 274 621 q 303 500 274 538 q 400 463 333 463 q 531 507 482 463 l 531 965 l 788 965 z "},"Ƕ":{"ha":1313,"x_min":75,"x_max":1267,"o":"m 1225 740 q 1256 543 1244 638 q 1267 342 1267 449 q 1214 134 1267 217 q 1077 13 1161 51 q 894 -25 993 -25 q 673 45 758 -25 q 588 258 588 115 l 588 401 l 332 401 l 332 0 l 75 0 l 75 965 l 332 965 l 332 600 l 588 600 l 588 965 l 844 965 l 844 258 q 862 178 844 201 q 914 154 879 154 q 990 203 960 154 q 1019 361 1019 253 q 982 740 1019 525 l 1225 740 z "},"I":{"ha":407,"x_min":75,"x_max":332,"o":"m 332 965 l 332 0 l 75 0 l 75 965 l 332 965 z "},"Ĳ":{"ha":853,"x_min":75,"x_max":782,"o":"m 332 965 l 332 0 l 75 0 l 75 965 l 332 965 m 782 150 q 737 -49 782 29 q 622 -172 692 -128 q 454 -249 551 -217 l 386 -68 q 476 -13 446 -44 q 515 58 506 18 q 525 160 525 97 l 525 965 l 782 965 l 782 150 z "},"Í":{"ha":407,"x_min":0,"x_max":406,"o":"m 332 965 l 332 0 l 75 0 l 75 965 l 332 965 m 317 1347 l 406 1165 l 63 1042 l 0 1167 l 317 1347 z "},"Ĭ":{"ha":407,"x_min":-46,"x_max":450,"o":"m 332 965 l 332 0 l 75 0 l 75 965 l 332 965 m 201 1039 q 28 1110 92 1039 q -46 1281 -36 1181 l 86 1304 q 128 1235 100 1261 q 201 1208 157 1208 q 276 1235 247 1208 q 318 1304 306 1261 l 450 1281 q 376 1110 440 1181 q 201 1039 313 1039 z "},"Ǐ":{"ha":407,"x_min":-71,"x_max":476,"o":"m 332 965 l 332 0 l 75 0 l 75 965 l 332 965 m 390 1325 l 476 1226 l 278 1039 l 128 1039 l -71 1226 l 15 1325 l 203 1207 l 390 1325 z "},"Î":{"ha":407,"x_min":-71,"x_max":476,"o":"m 332 965 l 332 0 l 75 0 l 75 965 l 332 965 m 15 1046 l -71 1144 l 128 1332 l 278 1332 l 476 1144 l 390 1046 l 203 1164 l 15 1046 z "},"Ȉ":{"ha":407,"x_min":-142,"x_max":400,"o":"m 332 965 l 332 0 l 75 0 l 75 965 l 332 965 m 18 1382 l 157 1099 l 33 1040 l -142 1301 l 18 1382 m 271 1382 l 400 1096 l 274 1046 l 110 1307 l 271 1382 z "},"Ï":{"ha":407,"x_min":-87,"x_max":488,"o":"m 332 965 l 332 0 l 75 0 l 75 965 l 332 965 m 35 1299 q 122 1264 86 1299 q 157 1179 157 1229 q 122 1094 157 1129 q 35 1060 86 1060 q -51 1094 -15 1060 q -87 1179 -87 1129 q -51 1264 -87 1229 q 35 1299 -15 1299 m 365 1299 q 452 1264 417 1299 q 488 1179 488 1229 q 452 1094 488 1129 q 365 1060 417 1060 q 279 1094 315 1060 q 243 1179 243 1129 q 279 1264 243 1229 q 365 1299 315 1299 z "},"Ḯ":{"ha":407,"x_min":-97,"x_max":500,"o":"m 332 965 l 332 0 l 75 0 l 75 965 l 332 965 m 296 1557 l 428 1428 l 199 1228 l 107 1310 l 296 1557 m 25 1278 q 111 1243 75 1278 q 147 1160 147 1208 q 111 1074 147 1110 q 25 1039 75 1039 q -62 1074 -26 1039 q -97 1160 -97 1108 q -62 1243 -97 1208 q 25 1278 -26 1278 m 378 1278 q 465 1243 429 1278 q 500 1160 500 1208 q 465 1074 500 1108 q 378 1039 429 1039 q 292 1074 326 1039 q 257 1160 257 1108 q 292 1243 257 1208 q 378 1278 326 1278 z "},"İ":{"ha":407,"x_min":61,"x_max":344,"o":"m 332 965 l 332 0 l 75 0 l 75 965 l 332 965 m 203 1314 q 305 1275 265 1314 q 344 1178 344 1236 q 305 1081 344 1119 q 203 1042 265 1042 q 101 1081 140 1042 q 61 1178 61 1119 q 101 1275 61 1236 q 203 1314 140 1314 z "},"Ị":{"ha":407,"x_min":61,"x_max":344,"o":"m 332 965 l 332 0 l 75 0 l 75 965 l 332 965 m 203 -350 q 101 -311 140 -350 q 61 -214 61 -272 q 101 -117 61 -156 q 203 -78 140 -78 q 305 -117 265 -78 q 344 -214 344 -156 q 305 -311 344 -272 q 203 -350 265 -350 z "},"Ì":{"ha":407,"x_min":-3,"x_max":403,"o":"m 332 965 l 332 0 l 75 0 l 75 965 l 332 965 m 88 1347 l 403 1167 l 340 1042 l -3 1165 l 88 1347 z "},"Ỉ":{"ha":407,"x_min":54,"x_max":392,"o":"m 332 965 l 332 0 l 75 0 l 75 965 l 332 965 m 132 1188 q 208 1201 185 1190 q 231 1239 231 1213 q 216 1269 231 1258 q 178 1279 201 1279 q 135 1275 154 1279 q 93 1261 117 1271 l 54 1358 q 211 1396 118 1396 q 344 1356 297 1396 q 392 1250 392 1315 q 361 1163 392 1196 q 274 1118 331 1129 l 274 1061 l 132 1061 l 132 1188 z "},"Ȋ":{"ha":407,"x_min":-46,"x_max":450,"o":"m 332 965 l 332 0 l 75 0 l 75 965 l 332 965 m 201 1333 q 377 1260 313 1333 q 450 1078 442 1188 l 318 1054 q 276 1135 306 1106 q 201 1164 247 1164 q 86 1054 114 1164 l -46 1078 q 26 1260 -37 1188 q 201 1333 90 1333 z "},"Ī":{"ha":407,"x_min":-17,"x_max":421,"o":"m 332 965 l 332 0 l 75 0 l 75 965 l 332 965 m 421 1081 l -17 1081 l -17 1249 l 421 1249 l 421 1081 z "},"Į":{"ha":407,"x_min":-54,"x_max":332,"o":"m 332 965 l 332 0 l 279 0 q 118 -137 118 -57 q 190 -199 118 -199 q 275 -189 231 -199 l 258 -336 q 158 -347 211 -347 q 6 -301 65 -347 q -54 -179 -54 -256 q 75 14 -54 -58 l 75 965 l 332 965 z "},"Ɩ":{"ha":553,"x_min":61,"x_max":568,"o":"m 568 35 q 361 -25 483 -25 q 142 46 222 -25 q 61 253 61 117 l 61 965 l 318 965 l 318 238 q 338 178 318 199 q 390 158 357 158 q 437 165 418 158 q 486 186 456 171 l 568 35 z "},"Ɨ":{"ha":465,"x_min":4,"x_max":461,"o":"m 461 593 l 461 407 l 361 407 l 361 0 l 104 0 l 104 407 l 4 407 l 4 593 l 104 593 l 104 965 l 361 965 l 361 593 l 461 593 z "},"Ĩ":{"ha":407,"x_min":-68,"x_max":472,"o":"m 332 965 l 332 0 l 75 0 l 75 965 l 332 965 m 283 1047 q 228 1057 251 1047 q 179 1085 206 1067 q 151 1101 165 1094 q 125 1108 138 1108 q 85 1094 100 1108 q 51 1049 69 1081 l -68 1107 q 8 1233 -40 1183 q 119 1283 57 1283 q 176 1274 153 1283 q 226 1246 200 1264 q 254 1229 240 1236 q 281 1222 268 1222 q 319 1236 304 1222 q 353 1282 335 1250 l 472 1224 q 394 1097 443 1146 q 283 1047 346 1047 z "},"J":{"ha":446,"x_min":-21,"x_max":375,"o":"m 375 150 q 330 -49 375 29 q 215 -172 285 -128 q 47 -249 144 -217 l -21 -68 q 69 -13 39 -44 q 108 58 99 18 q 118 160 118 97 l 118 965 l 375 965 l 375 150 z "},"Ĵ":{"ha":446,"x_min":-26,"x_max":521,"o":"m 375 150 q 330 -49 375 29 q 215 -172 285 -128 q 47 -249 144 -217 l -21 -68 q 69 -13 39 -44 q 108 58 99 18 q 118 160 118 97 l 118 965 l 375 965 l 375 150 m 60 1046 l -26 1144 l 172 1332 l 322 1332 l 521 1144 l 435 1046 l 247 1164 l 60 1046 z "},"Ʝ":{"ha":501,"x_min":-124,"x_max":578,"o":"m 535 -157 q 406 -111 454 -122 q 96 -311 343 -311 q -67 -266 -10 -311 q -124 -143 -124 -221 q -61 -8 -124 -56 q 118 39 1 39 q 171 38 157 39 l 171 965 l 428 965 l 428 61 q 425 1 428 40 q 578 -58 507 -22 l 535 -157 m 83 -189 q 147 -163 128 -189 q 169 -75 167 -137 q 117 -74 158 -74 q 44 -89 67 -74 q 21 -136 21 -104 q 36 -175 21 -161 q 83 -189 51 -189 z "},"Ɉ":{"ha":478,"x_min":-21,"x_max":475,"o":"m 475 382 l 375 382 l 375 150 q 330 -49 375 29 q 215 -172 285 -128 q 47 -249 144 -217 l -21 -68 q 69 -13 39 -44 q 108 58 99 18 q 118 160 118 97 l 118 382 l 18 382 l 18 571 l 118 571 l 118 965 l 375 965 l 375 571 l 475 571 l 475 382 z "},"K":{"ha":897,"x_min":75,"x_max":919,"o":"m 332 965 l 332 0 l 75 0 l 75 965 l 332 965 m 894 965 l 604 535 l 919 0 l 625 0 l 340 514 l 626 965 l 894 965 z "},"Ǩ":{"ha":897,"x_min":75,"x_max":919,"o":"m 332 965 l 332 0 l 75 0 l 75 965 l 332 965 m 894 965 l 604 535 l 919 0 l 625 0 l 340 514 l 626 965 l 894 965 m 646 1325 l 732 1226 l 533 1039 l 383 1039 l 185 1226 l 271 1325 l 458 1207 l 646 1325 z "},"Ķ":{"ha":897,"x_min":75,"x_max":919,"o":"m 332 965 l 332 0 l 75 0 l 75 965 l 332 965 m 894 965 l 604 535 l 919 0 l 625 0 l 340 514 l 626 965 l 894 965 m 456 -90 q 540 -124 507 -90 q 574 -207 574 -157 q 565 -258 574 -235 q 536 -326 557 -282 l 469 -462 l 350 -462 l 385 -304 q 336 -207 336 -265 q 370 -124 336 -158 q 456 -90 404 -90 z "},"Ƙ":{"ha":922,"x_min":75,"x_max":944,"o":"m 340 514 l 519 814 q 634 951 576 911 q 783 990 692 990 q 944 938 879 990 l 881 794 q 822 810 850 810 q 776 797 794 810 q 731 742 757 783 l 604 535 l 919 0 l 625 0 l 340 514 m 332 965 l 332 0 l 75 0 l 75 965 l 332 965 z "},"L":{"ha":718,"x_min":75,"x_max":703,"o":"m 332 965 l 332 200 l 703 200 l 675 0 l 75 0 l 75 965 l 332 965 z "},"Ǉ":{"ha":1131,"x_min":75,"x_max":1060,"o":"m 332 965 l 332 200 l 703 200 l 675 0 l 75 0 l 75 965 l 332 965 m 1060 150 q 1015 -49 1060 29 q 899 -172 969 -128 q 732 -249 829 -217 l 664 -68 q 753 -13 724 -44 q 793 58 783 18 q 803 160 803 97 l 803 965 l 1060 965 l 1060 150 z "},"Ĺ":{"ha":718,"x_min":0,"x_max":703,"o":"m 332 965 l 332 200 l 703 200 l 675 0 l 75 0 l 75 965 l 332 965 m 317 1347 l 406 1165 l 63 1042 l 0 1167 l 317 1347 z "},"Ƚ":{"ha":747,"x_min":4,"x_max":732,"o":"m 361 200 l 732 200 l 704 0 l 104 0 l 104 410 l 4 410 l 4 599 l 104 599 l 104 965 l 361 965 l 361 599 l 461 599 l 461 410 l 361 410 l 361 200 z "},"Ɬ":{"ha":876,"x_min":-3,"x_max":861,"o":"m 861 200 l 833 0 l 233 0 l 233 347 q 56 401 115 350 q -3 536 -3 451 q 47 659 -3 615 q 179 703 97 703 q 233 696 210 703 l 233 965 l 490 965 l 490 488 q 657 507 571 492 l 675 376 q 490 353 592 360 l 490 200 l 861 200 m 156 538 q 233 483 156 483 l 233 575 q 197 579 214 579 q 167 568 178 579 q 156 538 156 557 z "},"Ľ":{"ha":718,"x_min":75,"x_max":703,"o":"m 332 965 l 332 200 l 703 200 l 675 0 l 75 0 l 75 965 l 332 965 m 521 651 l 599 964 l 418 990 l 385 672 l 521 651 z "},"Ḽ":{"ha":718,"x_min":75,"x_max":703,"o":"m 332 965 l 332 200 l 703 200 l 675 0 l 75 0 l 75 965 l 332 965 m 188 -383 l 101 -285 l 300 -86 l 449 -86 l 649 -285 l 563 -383 l 375 -254 l 188 -383 z "},"Ļ":{"ha":718,"x_min":75,"x_max":703,"o":"m 332 965 l 332 200 l 703 200 l 675 0 l 75 0 l 75 965 l 332 965 m 376 -90 q 461 -124 428 -90 q 494 -207 494 -157 q 486 -258 494 -235 q 457 -326 478 -282 l 390 -462 l 271 -462 l 306 -304 q 257 -207 257 -265 q 291 -124 257 -158 q 376 -90 325 -90 z "},"Ŀ":{"ha":718,"x_min":75,"x_max":703,"o":"m 332 965 l 332 200 l 703 200 l 675 0 l 75 0 l 75 965 l 332 965 m 558 696 q 660 657 621 696 q 700 560 700 618 q 660 463 700 501 q 558 424 621 424 q 456 463 496 424 q 417 560 417 501 q 456 657 417 618 q 558 696 496 696 z "},"Ḷ":{"ha":718,"x_min":75,"x_max":703,"o":"m 332 965 l 332 200 l 703 200 l 675 0 l 75 0 l 75 965 l 332 965 m 375 -350 q 273 -311 313 -350 q 233 -214 233 -272 q 273 -117 233 -156 q 375 -78 313 -78 q 477 -117 438 -78 q 517 -214 517 -156 q 477 -311 517 -272 q 375 -350 438 -350 z "},"ǈ":{"ha":1089,"x_min":75,"x_max":1035,"o":"m 332 965 l 332 200 l 703 200 l 675 0 l 75 0 l 75 965 l 332 965 m 1017 96 q 976 -103 1017 -24 q 867 -229 936 -182 q 700 -311 799 -276 l 617 -132 q 701 -83 669 -107 q 751 -19 733 -58 q 769 81 769 19 l 769 740 l 1017 740 l 1017 96 m 893 1139 q 995 1100 956 1139 q 1035 1003 1035 1061 q 995 906 1035 944 q 893 867 956 867 q 791 906 831 867 q 751 1003 751 944 q 791 1100 751 1061 q 893 1139 831 1139 z "},"Ł":{"ha":783,"x_min":6,"x_max":768,"o":"m 397 200 l 768 200 l 740 0 l 140 0 l 140 299 l 86 265 l 6 397 l 140 481 l 140 965 l 397 965 l 397 640 l 560 740 l 643 610 l 397 458 l 397 200 z "},"M":{"ha":1096,"x_min":33,"x_max":1063,"o":"m 1063 0 l 810 0 l 797 360 l 796 419 q 793 546 793 503 q 801 754 793 650 l 669 100 l 426 100 l 286 754 q 299 468 299 592 q 297 360 299 397 l 286 0 l 33 0 l 104 965 l 424 965 l 553 325 l 669 965 l 990 965 l 1063 0 z "},"Ḿ":{"ha":1096,"x_min":33,"x_max":1063,"o":"m 1063 0 l 810 0 l 797 360 l 796 419 q 793 546 793 503 q 801 754 793 650 l 669 100 l 426 100 l 286 754 q 299 468 299 592 q 297 360 299 397 l 286 0 l 33 0 l 104 965 l 424 965 l 553 325 l 669 965 l 990 965 l 1063 0 m 661 1347 l 750 1165 l 407 1042 l 344 1167 l 661 1347 z "},"Ṁ":{"ha":1096,"x_min":33,"x_max":1063,"o":"m 1063 0 l 810 0 l 797 360 l 796 419 q 793 546 793 503 q 801 754 793 650 l 669 100 l 426 100 l 286 754 q 299 468 299 592 q 297 360 299 397 l 286 0 l 33 0 l 104 965 l 424 965 l 553 325 l 669 965 l 990 965 l 1063 0 m 547 1314 q 649 1275 610 1314 q 689 1178 689 1236 q 649 1081 689 1119 q 547 1042 610 1042 q 445 1081 485 1042 q 406 1178 406 1119 q 445 1275 406 1236 q 547 1314 485 1314 z "},"Ɯ":{"ha":1263,"x_min":61,"x_max":1189,"o":"m 1189 965 l 1189 0 l 963 0 l 944 83 q 844 1 894 26 q 728 -25 793 -25 q 606 8 657 -25 q 525 100 554 40 q 416 4 469 33 q 293 -25 363 -25 q 123 49 185 -25 q 61 242 61 122 l 61 965 l 318 965 l 318 254 q 335 187 318 211 q 385 163 353 163 q 436 182 413 163 q 496 246 460 201 l 496 965 l 753 965 l 753 254 q 771 187 753 211 q 819 163 789 163 q 877 183 851 163 q 932 247 903 203 l 932 965 l 1189 965 z "},"N":{"ha":913,"x_min":75,"x_max":838,"o":"m 838 0 l 514 0 l 269 726 l 274 697 q 295 517 288 601 q 303 326 303 433 l 303 0 l 75 0 l 75 965 l 392 965 l 644 236 q 619 424 628 340 q 610 615 610 507 l 610 965 l 838 965 l 838 0 z "},"Ǌ":{"ha":1358,"x_min":75,"x_max":1288,"o":"m 838 0 l 514 0 l 269 726 l 274 697 q 295 517 288 601 q 303 326 303 433 l 303 0 l 75 0 l 75 965 l 392 965 l 644 236 q 619 424 628 340 q 610 615 610 507 l 610 965 l 838 965 l 838 0 m 1288 150 q 1242 -49 1288 29 q 1127 -172 1197 -128 q 960 -249 1057 -217 l 892 -68 q 981 -13 951 -44 q 1021 58 1011 18 q 1031 160 1031 97 l 1031 965 l 1288 965 l 1288 150 z "},"Ń":{"ha":913,"x_min":75,"x_max":838,"o":"m 838 0 l 514 0 l 269 726 l 274 697 q 295 517 288 601 q 303 326 303 433 l 303 0 l 75 0 l 75 965 l 392 965 l 644 236 q 619 424 628 340 q 610 615 610 507 l 610 965 l 838 965 l 838 0 m 574 1347 l 663 1165 l 319 1042 l 257 1167 l 574 1347 z "},"Ň":{"ha":913,"x_min":75,"x_max":838,"o":"m 838 0 l 514 0 l 269 726 l 274 697 q 295 517 288 601 q 303 326 303 433 l 303 0 l 75 0 l 75 965 l 392 965 l 644 236 q 619 424 628 340 q 610 615 610 507 l 610 965 l 838 965 l 838 0 m 647 1325 l 733 1226 l 535 1039 l 385 1039 l 186 1226 l 272 1325 l 460 1207 l 647 1325 z "},"Ṋ":{"ha":913,"x_min":75,"x_max":838,"o":"m 838 0 l 514 0 l 269 726 l 274 697 q 295 517 288 601 q 303 326 303 433 l 303 0 l 75 0 l 75 965 l 392 965 l 644 236 q 619 424 628 340 q 610 615 610 507 l 610 965 l 838 965 l 838 0 m 269 -383 l 183 -285 l 382 -86 l 531 -86 l 731 -285 l 644 -383 l 457 -254 l 269 -383 z "},"Ņ":{"ha":913,"x_min":75,"x_max":838,"o":"m 838 0 l 514 0 l 269 726 l 274 697 q 295 517 288 601 q 303 326 303 433 l 303 0 l 75 0 l 75 965 l 392 965 l 644 236 q 619 424 628 340 q 610 615 610 507 l 610 965 l 838 965 l 838 0 m 458 -90 q 543 -124 510 -90 q 576 -207 576 -157 q 568 -258 576 -235 q 539 -326 560 -282 l 472 -462 l 353 -462 l 388 -304 q 339 -207 339 -265 q 373 -124 339 -158 q 458 -90 407 -90 z "},"Ṅ":{"ha":913,"x_min":75,"x_max":838,"o":"m 838 0 l 514 0 l 269 726 l 274 697 q 295 517 288 601 q 303 326 303 433 l 303 0 l 75 0 l 75 965 l 392 965 l 644 236 q 619 424 628 340 q 610 615 610 507 l 610 965 l 838 965 l 838 0 m 460 1314 q 562 1275 522 1314 q 601 1178 601 1236 q 562 1081 601 1119 q 460 1042 522 1042 q 358 1081 397 1042 q 318 1178 318 1119 q 358 1275 318 1236 q 460 1314 397 1314 z "},"Ṇ":{"ha":913,"x_min":75,"x_max":838,"o":"m 838 0 l 514 0 l 269 726 l 274 697 q 295 517 288 601 q 303 326 303 433 l 303 0 l 75 0 l 75 965 l 392 965 l 644 236 q 619 424 628 340 q 610 615 610 507 l 610 965 l 838 965 l 838 0 m 457 -350 q 355 -311 394 -350 q 315 -214 315 -272 q 355 -117 315 -156 q 457 -78 394 -78 q 559 -117 519 -78 q 599 -214 599 -156 q 559 -311 599 -272 q 457 -350 519 -350 z "},"Ǹ":{"ha":913,"x_min":75,"x_max":838,"o":"m 838 0 l 514 0 l 269 726 l 274 697 q 295 517 288 601 q 303 326 303 433 l 303 0 l 75 0 l 75 965 l 392 965 l 644 236 q 619 424 628 340 q 610 615 610 507 l 610 965 l 838 965 l 838 0 m 344 1347 l 660 1167 l 597 1042 l 254 1165 l 344 1347 z "},"Ŋ":{"ha":913,"x_min":75,"x_max":838,"o":"m 838 965 l 838 -33 q 757 -240 838 -169 q 538 -311 676 -311 q 331 -251 415 -311 l 413 -100 q 462 -122 443 -115 q 508 -128 481 -128 q 562 -108 543 -128 q 581 -49 581 -87 l 581 0 l 514 0 l 269 726 l 274 697 q 295 517 288 601 q 303 326 303 433 l 303 0 l 75 0 l 75 965 l 392 965 l 644 236 q 619 424 628 340 q 610 615 610 507 l 610 965 l 838 965 z "},"Ɲ":{"ha":913,"x_min":-178,"x_max":838,"o":"m 838 965 l 838 0 l 514 0 l 269 726 l 274 697 q 295 517 288 601 q 303 326 303 433 l 303 -33 q 229 -240 303 -169 q 29 -311 156 -311 q -178 -251 -93 -311 l -97 -106 q -48 -128 -68 -121 q -1 -135 -28 -135 q 56 -115 36 -135 q 75 -56 75 -94 l 75 965 l 392 965 l 644 236 q 619 424 628 340 q 610 615 610 507 l 610 965 l 838 965 z "},"ǋ":{"ha":1304,"x_min":75,"x_max":1250,"o":"m 838 0 l 514 0 l 269 726 l 274 697 q 295 517 288 601 q 303 326 303 433 l 303 0 l 75 0 l 75 965 l 392 965 l 644 236 q 619 424 628 340 q 610 615 610 507 l 610 965 l 838 965 l 838 0 m 1232 96 q 1192 -103 1232 -24 q 1083 -229 1151 -182 q 915 -311 1014 -276 l 832 -132 q 917 -83 885 -107 q 967 -19 949 -58 q 985 81 985 19 l 985 740 l 1232 740 l 1232 96 m 1108 1139 q 1210 1100 1171 1139 q 1250 1003 1250 1061 q 1210 906 1250 944 q 1108 867 1171 867 q 1006 906 1046 867 q 967 1003 967 944 q 1006 1100 967 1061 q 1108 1139 1046 1139 z "},"Ƞ":{"ha":900,"x_min":75,"x_max":833,"o":"m 586 990 q 770 920 707 990 q 833 738 833 850 l 833 -296 l 576 -296 l 576 697 q 556 777 576 751 q 492 803 536 803 q 408 783 444 803 q 332 718 372 763 l 332 0 l 75 0 l 75 965 l 300 965 l 319 879 q 442 964 381 938 q 586 990 503 990 z "},"Ñ":{"ha":913,"x_min":75,"x_max":838,"o":"m 838 0 l 514 0 l 269 726 l 274 697 q 295 517 288 601 q 303 326 303 433 l 303 0 l 75 0 l 75 965 l 392 965 l 644 236 q 619 424 628 340 q 610 615 610 507 l 610 965 l 838 965 l 838 0 m 540 1047 q 485 1057 508 1047 q 436 1085 463 1067 q 408 1101 422 1094 q 382 1108 394 1108 q 342 1094 357 1108 q 308 1049 326 1081 l 189 1107 q 265 1233 217 1183 q 376 1283 314 1283 q 433 1274 410 1283 q 483 1246 457 1264 q 511 1229 497 1236 q 538 1222 525 1222 q 576 1236 561 1222 q 610 1282 592 1250 l 729 1224 q 651 1097 700 1146 q 540 1047 603 1047 z "},"O":{"ha":958,"x_min":38,"x_max":922,"o":"m 479 990 q 806 857 689 990 q 922 483 922 724 q 870 212 922 326 q 718 36 818 97 q 479 -25 618 -25 q 153 108 269 -25 q 38 483 38 242 q 90 754 38 640 q 241 929 142 868 q 479 990 340 990 m 479 806 q 347 731 389 806 q 304 483 304 656 q 347 235 304 311 q 479 160 390 160 q 613 235 571 160 q 654 483 654 310 q 613 731 654 656 q 479 806 571 806 z "},"Ȣ":{"ha":903,"x_min":38,"x_max":867,"o":"m 688 560 q 820 462 774 526 q 867 306 867 397 q 816 140 867 215 q 671 20 765 65 q 451 -25 576 -25 q 231 19 325 -25 q 88 138 138 63 q 38 306 38 213 q 83 457 38 393 q 214 557 129 521 q 92 767 92 624 l 92 965 l 349 965 l 349 753 q 371 665 349 693 q 451 636 393 636 q 533 666 510 636 q 556 753 556 696 l 556 965 l 813 965 l 813 767 q 781 646 813 699 q 688 560 749 593 m 451 160 q 561 199 524 160 q 599 310 599 239 q 560 419 599 378 q 451 460 522 460 q 342 419 381 460 q 304 310 304 378 q 342 199 304 239 q 451 160 381 160 z "},"Ó":{"ha":958,"x_min":38,"x_max":922,"o":"m 479 990 q 806 857 689 990 q 922 483 922 724 q 870 212 922 326 q 718 36 818 97 q 479 -25 618 -25 q 153 108 269 -25 q 38 483 38 242 q 90 754 38 640 q 241 929 142 868 q 479 990 340 990 m 479 806 q 347 731 389 806 q 304 483 304 656 q 347 235 304 311 q 479 160 390 160 q 613 235 571 160 q 654 483 654 310 q 613 731 654 656 q 479 806 571 806 m 593 1347 l 682 1165 l 339 1042 l 276 1167 l 593 1347 z "},"Ŏ":{"ha":958,"x_min":38,"x_max":922,"o":"m 479 990 q 806 857 689 990 q 922 483 922 724 q 870 212 922 326 q 718 36 818 97 q 479 -25 618 -25 q 153 108 269 -25 q 38 483 38 242 q 90 754 38 640 q 241 929 142 868 q 479 990 340 990 m 479 806 q 347 731 389 806 q 304 483 304 656 q 347 235 304 311 q 479 160 390 160 q 613 235 571 160 q 654 483 654 310 q 613 731 654 656 q 479 806 571 806 m 478 1039 q 304 1110 368 1039 q 231 1281 240 1181 l 363 1304 q 405 1235 376 1261 q 478 1208 433 1208 q 553 1235 524 1208 q 594 1304 582 1261 l 726 1281 q 653 1110 717 1181 q 478 1039 589 1039 z "},"Ǒ":{"ha":958,"x_min":38,"x_max":922,"o":"m 479 990 q 806 857 689 990 q 922 483 922 724 q 870 212 922 326 q 718 36 818 97 q 479 -25 618 -25 q 153 108 269 -25 q 38 483 38 242 q 90 754 38 640 q 241 929 142 868 q 479 990 340 990 m 479 806 q 347 731 389 806 q 304 483 304 656 q 347 235 304 311 q 479 160 390 160 q 613 235 571 160 q 654 483 654 310 q 613 731 654 656 q 479 806 571 806 m 667 1325 l 753 1226 l 554 1039 l 404 1039 l 206 1226 l 292 1325 l 479 1207 l 667 1325 z "},"Ɵ":{"ha":958,"x_min":38,"x_max":922,"o":"m 479 990 q 806 857 689 990 q 922 483 922 724 q 870 212 922 326 q 718 36 818 97 q 479 -25 618 -25 q 153 108 269 -25 q 38 483 38 242 q 90 754 38 640 q 241 929 142 868 q 479 990 340 990 m 479 806 q 354 747 399 806 q 300 557 310 688 l 658 557 q 605 747 649 688 q 479 806 561 806 m 479 160 q 607 221 563 160 q 660 418 651 282 l 299 418 q 353 222 308 283 q 479 160 397 160 z "},"Ô":{"ha":958,"x_min":38,"x_max":922,"o":"m 479 990 q 806 857 689 990 q 922 483 922 724 q 870 212 922 326 q 718 36 818 97 q 479 -25 618 -25 q 153 108 269 -25 q 38 483 38 242 q 90 754 38 640 q 241 929 142 868 q 479 990 340 990 m 479 806 q 347 731 389 806 q 304 483 304 656 q 347 235 304 311 q 479 160 390 160 q 613 235 571 160 q 654 483 654 310 q 613 731 654 656 q 479 806 571 806 m 292 1046 l 206 1144 l 404 1332 l 554 1332 l 753 1144 l 667 1046 l 479 1164 l 292 1046 z "},"Ố":{"ha":958,"x_min":38,"x_max":947,"o":"m 479 990 q 806 857 689 990 q 922 483 922 724 q 870 212 922 326 q 718 36 818 97 q 479 -25 618 -25 q 153 108 269 -25 q 38 483 38 242 q 90 754 38 640 q 241 929 142 868 q 479 990 340 990 m 479 806 q 347 731 389 806 q 304 483 304 656 q 347 235 304 311 q 479 160 390 160 q 613 235 571 160 q 654 483 654 310 q 613 731 654 656 q 479 806 571 806 m 292 1003 l 206 1101 l 404 1289 l 554 1289 l 753 1101 l 667 1003 l 479 1121 l 292 1003 m 815 1549 l 947 1419 l 718 1219 l 626 1301 l 815 1549 z "},"Ộ":{"ha":958,"x_min":38,"x_max":922,"o":"m 479 990 q 806 857 689 990 q 922 483 922 724 q 870 212 922 326 q 718 36 818 97 q 479 -25 618 -25 q 153 108 269 -25 q 38 483 38 242 q 90 754 38 640 q 241 929 142 868 q 479 990 340 990 m 479 806 q 347 731 389 806 q 304 483 304 656 q 347 235 304 311 q 479 160 390 160 q 613 235 571 160 q 654 483 654 310 q 613 731 654 656 q 479 806 571 806 m 292 1046 l 206 1144 l 404 1332 l 554 1332 l 753 1144 l 667 1046 l 479 1164 l 292 1046 m 479 -350 q 377 -311 417 -350 q 338 -214 338 -272 q 377 -117 338 -156 q 479 -78 417 -78 q 581 -117 542 -78 q 621 -214 621 -156 q 581 -311 621 -272 q 479 -350 542 -350 z "},"Ồ":{"ha":958,"x_min":13,"x_max":922,"o":"m 479 990 q 806 857 689 990 q 922 483 922 724 q 870 212 922 326 q 718 36 818 97 q 479 -25 618 -25 q 153 108 269 -25 q 38 483 38 242 q 90 754 38 640 q 241 929 142 868 q 479 990 340 990 m 479 806 q 347 731 389 806 q 304 483 304 656 q 347 235 304 311 q 479 160 390 160 q 613 235 571 160 q 654 483 654 310 q 613 731 654 656 q 479 806 571 806 m 290 1003 l 204 1101 l 403 1289 l 553 1289 l 751 1101 l 665 1003 l 478 1121 l 290 1003 m 144 1549 l 333 1301 l 240 1219 l 13 1419 l 144 1549 z "},"Ổ":{"ha":958,"x_min":38,"x_max":922,"o":"m 479 990 q 806 857 689 990 q 922 483 922 724 q 870 212 922 326 q 718 36 818 97 q 479 -25 618 -25 q 153 108 269 -25 q 38 483 38 242 q 90 754 38 640 q 241 929 142 868 q 479 990 340 990 m 479 806 q 347 731 389 806 q 304 483 304 656 q 347 235 304 311 q 479 160 390 160 q 613 235 571 160 q 654 483 654 310 q 613 731 654 656 q 479 806 571 806 m 290 1003 l 204 1101 l 403 1289 l 553 1289 l 751 1101 l 665 1003 l 478 1121 l 290 1003 m 657 1332 q 733 1346 710 1335 q 756 1383 756 1357 q 741 1413 756 1403 q 703 1424 726 1424 q 660 1419 679 1424 q 618 1406 642 1415 l 579 1503 q 736 1540 643 1540 q 869 1500 822 1540 q 917 1394 917 1460 q 886 1307 917 1340 q 799 1263 856 1274 l 799 1206 l 657 1206 l 657 1332 z "},"Ỗ":{"ha":958,"x_min":38,"x_max":922,"o":"m 479 990 q 806 857 689 990 q 922 483 922 724 q 870 212 922 326 q 718 36 818 97 q 479 -25 618 -25 q 153 108 269 -25 q 38 483 38 242 q 90 754 38 640 q 241 929 142 868 q 479 990 340 990 m 479 806 q 347 731 389 806 q 304 483 304 656 q 347 235 304 311 q 479 160 390 160 q 613 235 571 160 q 654 483 654 310 q 613 731 654 656 q 479 806 571 806 m 289 1003 l 203 1101 l 401 1289 l 551 1289 l 750 1101 l 664 1003 l 476 1121 l 289 1003 m 557 1325 q 501 1334 525 1325 q 453 1360 476 1343 q 425 1374 439 1368 q 399 1381 411 1381 q 358 1368 374 1381 q 325 1326 343 1356 l 206 1381 q 282 1497 233 1451 q 393 1542 331 1542 q 450 1533 426 1542 q 500 1507 474 1524 q 528 1492 514 1499 q 554 1486 542 1486 q 592 1499 576 1486 q 626 1540 608 1511 l 746 1488 q 668 1370 717 1415 q 557 1325 619 1325 z "},"Ȍ":{"ha":958,"x_min":38,"x_max":922,"o":"m 479 990 q 806 857 689 990 q 922 483 922 724 q 870 212 922 326 q 718 36 818 97 q 479 -25 618 -25 q 153 108 269 -25 q 38 483 38 242 q 90 754 38 640 q 241 929 142 868 q 479 990 340 990 m 479 806 q 347 731 389 806 q 304 483 304 656 q 347 235 304 311 q 479 160 390 160 q 613 235 571 160 q 654 483 654 310 q 613 731 654 656 q 479 806 571 806 m 294 1382 l 433 1099 l 310 1040 l 135 1301 l 294 1382 m 547 1382 l 676 1096 l 550 1046 l 386 1307 l 547 1382 z "},"Ö":{"ha":958,"x_min":38,"x_max":922,"o":"m 479 990 q 806 857 689 990 q 922 483 922 724 q 870 212 922 326 q 718 36 818 97 q 479 -25 618 -25 q 153 108 269 -25 q 38 483 38 242 q 90 754 38 640 q 241 929 142 868 q 479 990 340 990 m 479 806 q 347 731 389 806 q 304 483 304 656 q 347 235 304 311 q 479 160 390 160 q 613 235 571 160 q 654 483 654 310 q 613 731 654 656 q 479 806 571 806 m 311 1299 q 398 1264 363 1299 q 433 1179 433 1229 q 398 1094 433 1129 q 311 1060 363 1060 q 225 1094 261 1060 q 189 1179 189 1129 q 225 1264 189 1229 q 311 1299 261 1299 m 642 1299 q 728 1264 693 1299 q 764 1179 764 1229 q 728 1094 764 1129 q 642 1060 693 1060 q 556 1094 592 1060 q 519 1179 519 1129 q 556 1264 519 1229 q 642 1299 592 1299 z "},"Ȫ":{"ha":958,"x_min":38,"x_max":922,"o":"m 479 990 q 806 857 689 990 q 922 483 922 724 q 870 212 922 326 q 718 36 818 97 q 479 -25 618 -25 q 153 108 269 -25 q 38 483 38 242 q 90 754 38 640 q 241 929 142 868 q 479 990 340 990 m 479 806 q 347 731 389 806 q 304 483 304 656 q 347 235 304 311 q 479 160 390 160 q 613 235 571 160 q 654 483 654 310 q 613 731 654 656 q 479 806 571 806 m 313 1274 q 399 1239 364 1274 q 435 1154 435 1204 q 399 1069 435 1104 q 313 1035 364 1035 q 226 1069 263 1035 q 190 1154 190 1104 q 226 1239 190 1204 q 313 1274 263 1274 m 643 1274 q 730 1239 694 1274 q 765 1154 765 1204 q 730 1069 765 1104 q 643 1035 694 1035 q 557 1069 593 1035 q 521 1154 521 1104 q 557 1239 521 1204 q 643 1274 593 1274 m 703 1322 l 265 1322 l 265 1490 l 703 1490 l 703 1322 z "},"Ȯ":{"ha":958,"x_min":38,"x_max":922,"o":"m 479 990 q 806 857 689 990 q 922 483 922 724 q 870 212 922 326 q 718 36 818 97 q 479 -25 618 -25 q 153 108 269 -25 q 38 483 38 242 q 90 754 38 640 q 241 929 142 868 q 479 990 340 990 m 479 806 q 347 731 389 806 q 304 483 304 656 q 347 235 304 311 q 479 160 390 160 q 613 235 571 160 q 654 483 654 310 q 613 731 654 656 q 479 806 571 806 m 479 1314 q 581 1275 542 1314 q 621 1178 621 1236 q 581 1081 621 1119 q 479 1042 542 1042 q 377 1081 417 1042 q 338 1178 338 1119 q 377 1275 338 1236 q 479 1314 417 1314 z "},"Ȱ":{"ha":958,"x_min":38,"x_max":922,"o":"m 479 990 q 806 857 689 990 q 922 483 922 724 q 870 212 922 326 q 718 36 818 97 q 479 -25 618 -25 q 153 108 269 -25 q 38 483 38 242 q 90 754 38 640 q 241 929 142 868 q 479 990 340 990 m 479 806 q 347 731 389 806 q 304 483 304 656 q 347 235 304 311 q 479 160 390 160 q 613 235 571 160 q 654 483 654 310 q 613 731 654 656 q 479 806 571 806 m 475 1292 q 577 1253 538 1292 q 617 1156 617 1214 q 577 1058 617 1097 q 475 1019 538 1019 q 373 1058 413 1019 q 333 1156 333 1097 q 373 1253 333 1214 q 475 1292 413 1292 m 696 1322 l 258 1322 l 258 1490 l 696 1490 l 696 1322 z "},"Ọ":{"ha":958,"x_min":38,"x_max":922,"o":"m 479 990 q 806 857 689 990 q 922 483 922 724 q 870 212 922 326 q 718 36 818 97 q 479 -25 618 -25 q 153 108 269 -25 q 38 483 38 242 q 90 754 38 640 q 241 929 142 868 q 479 990 340 990 m 479 806 q 347 731 389 806 q 304 483 304 656 q 347 235 304 311 q 479 160 390 160 q 613 235 571 160 q 654 483 654 310 q 613 731 654 656 q 479 806 571 806 m 479 -350 q 377 -311 417 -350 q 338 -214 338 -272 q 377 -117 338 -156 q 479 -78 417 -78 q 581 -117 542 -78 q 621 -214 621 -156 q 581 -311 621 -272 q 479 -350 542 -350 z "},"Ò":{"ha":958,"x_min":38,"x_max":922,"o":"m 479 990 q 806 857 689 990 q 922 483 922 724 q 870 212 922 326 q 718 36 818 97 q 479 -25 618 -25 q 153 108 269 -25 q 38 483 38 242 q 90 754 38 640 q 241 929 142 868 q 479 990 340 990 m 479 806 q 347 731 389 806 q 304 483 304 656 q 347 235 304 311 q 479 160 390 160 q 613 235 571 160 q 654 483 654 310 q 613 731 654 656 q 479 806 571 806 m 364 1347 l 679 1167 l 617 1042 l 274 1165 l 364 1347 z "},"Ỏ":{"ha":958,"x_min":38,"x_max":922,"o":"m 479 990 q 806 857 689 990 q 922 483 922 724 q 870 212 922 326 q 718 36 818 97 q 479 -25 618 -25 q 153 108 269 -25 q 38 483 38 242 q 90 754 38 640 q 241 929 142 868 q 479 990 340 990 m 479 806 q 347 731 389 806 q 304 483 304 656 q 347 235 304 311 q 479 160 390 160 q 613 235 571 160 q 654 483 654 310 q 613 731 654 656 q 479 806 571 806 m 408 1188 q 484 1201 461 1190 q 507 1239 507 1213 q 492 1269 507 1258 q 454 1279 478 1279 q 412 1275 431 1279 q 369 1261 393 1271 l 331 1358 q 488 1396 394 1396 q 621 1356 574 1396 q 668 1250 668 1315 q 638 1163 668 1196 q 550 1118 607 1129 l 550 1061 l 408 1061 l 408 1188 z "},"Ơ":{"ha":999,"x_min":38,"x_max":1010,"o":"m 1010 949 q 972 831 1010 875 q 863 772 933 786 q 922 483 922 653 q 870 212 922 326 q 718 36 818 97 q 479 -25 618 -25 q 153 108 269 -25 q 38 483 38 242 q 90 754 38 640 q 241 929 142 868 q 479 990 340 990 q 785 879 669 990 q 833 904 818 885 q 847 961 847 924 q 831 1053 847 1006 l 983 1074 q 1010 949 1010 1024 m 479 160 q 613 235 571 160 q 654 483 654 310 q 613 731 654 656 q 479 806 571 806 q 347 731 389 806 q 304 483 304 656 q 347 235 304 311 q 479 160 390 160 z "},"Ớ":{"ha":999,"x_min":38,"x_max":1010,"o":"m 682 1165 l 339 1042 l 276 1167 l 593 1347 l 682 1165 m 1010 949 q 972 831 1010 875 q 863 772 933 786 q 922 483 922 653 q 870 212 922 326 q 718 36 818 97 q 479 -25 618 -25 q 153 108 269 -25 q 38 483 38 242 q 90 754 38 640 q 241 929 142 868 q 479 990 340 990 q 785 879 669 990 q 833 904 818 885 q 847 961 847 924 q 831 1053 847 1006 l 983 1074 q 1010 949 1010 1024 m 479 160 q 613 235 571 160 q 654 483 654 310 q 613 731 654 656 q 479 806 571 806 q 347 731 389 806 q 304 483 304 656 q 347 235 304 311 q 479 160 390 160 z "},"Ợ":{"ha":999,"x_min":38,"x_max":1010,"o":"m 1010 949 q 972 831 1010 875 q 863 772 933 786 q 922 483 922 653 q 870 212 922 326 q 718 36 818 97 q 479 -25 618 -25 q 153 108 269 -25 q 38 483 38 242 q 90 754 38 640 q 241 929 142 868 q 479 990 340 990 q 785 879 669 990 q 833 904 818 885 q 847 961 847 924 q 831 1053 847 1006 l 983 1074 q 1010 949 1010 1024 m 479 160 q 613 235 571 160 q 654 483 654 310 q 613 731 654 656 q 479 806 571 806 q 347 731 389 806 q 304 483 304 656 q 347 235 304 311 q 479 160 390 160 m 479 -78 q 581 -117 542 -78 q 621 -214 621 -156 q 581 -311 621 -272 q 479 -350 542 -350 q 377 -311 417 -350 q 338 -214 338 -272 q 377 -117 338 -156 q 479 -78 417 -78 z "},"Ờ":{"ha":999,"x_min":38,"x_max":1010,"o":"m 679 1167 l 617 1042 l 274 1165 l 364 1347 l 679 1167 m 1010 949 q 972 831 1010 875 q 863 772 933 786 q 922 483 922 653 q 870 212 922 326 q 718 36 818 97 q 479 -25 618 -25 q 153 108 269 -25 q 38 483 38 242 q 90 754 38 640 q 241 929 142 868 q 479 990 340 990 q 785 879 669 990 q 833 904 818 885 q 847 961 847 924 q 831 1053 847 1006 l 983 1074 q 1010 949 1010 1024 m 479 160 q 613 235 571 160 q 654 483 654 310 q 613 731 654 656 q 479 806 571 806 q 347 731 389 806 q 304 483 304 656 q 347 235 304 311 q 479 160 390 160 z "},"Ở":{"ha":999,"x_min":38,"x_max":1010,"o":"m 454 1279 q 412 1275 431 1279 q 369 1261 393 1271 l 331 1358 q 488 1396 394 1396 q 621 1356 574 1396 q 668 1250 668 1315 q 638 1163 668 1196 q 550 1118 607 1129 l 550 1061 l 408 1061 l 408 1188 q 484 1201 461 1190 q 507 1239 507 1213 q 492 1269 507 1258 q 454 1279 478 1279 m 1010 949 q 972 831 1010 875 q 863 772 933 786 q 922 483 922 653 q 870 212 922 326 q 718 36 818 97 q 479 -25 618 -25 q 153 108 269 -25 q 38 483 38 242 q 90 754 38 640 q 241 929 142 868 q 479 990 340 990 q 785 879 669 990 q 833 904 818 885 q 847 961 847 924 q 831 1053 847 1006 l 983 1074 q 1010 949 1010 1024 m 479 160 q 613 235 571 160 q 654 483 654 310 q 613 731 654 656 q 479 806 571 806 q 347 731 389 806 q 304 483 304 656 q 347 235 304 311 q 479 160 390 160 z "},"Ỡ":{"ha":999,"x_min":38,"x_max":1010,"o":"m 401 1108 q 361 1094 376 1108 q 328 1049 346 1081 l 208 1107 q 285 1233 236 1183 q 396 1283 333 1283 q 453 1274 429 1283 q 503 1246 476 1264 q 531 1229 517 1236 q 557 1222 544 1222 q 596 1236 581 1222 q 629 1282 611 1250 l 749 1224 q 671 1097 719 1146 q 560 1047 622 1047 q 505 1057 528 1047 q 456 1085 482 1067 q 428 1101 442 1094 q 401 1108 414 1108 m 1010 949 q 972 831 1010 875 q 863 772 933 786 q 922 483 922 653 q 870 212 922 326 q 718 36 818 97 q 479 -25 618 -25 q 153 108 269 -25 q 38 483 38 242 q 90 754 38 640 q 241 929 142 868 q 479 990 340 990 q 785 879 669 990 q 833 904 818 885 q 847 961 847 924 q 831 1053 847 1006 l 983 1074 q 1010 949 1010 1024 m 479 160 q 613 235 571 160 q 654 483 654 310 q 613 731 654 656 q 479 806 571 806 q 347 731 389 806 q 304 483 304 656 q 347 235 304 311 q 479 160 390 160 z "},"Ő":{"ha":958,"x_min":38,"x_max":922,"o":"m 479 990 q 806 857 689 990 q 922 483 922 724 q 870 212 922 326 q 718 36 818 97 q 479 -25 618 -25 q 153 108 269 -25 q 38 483 38 242 q 90 754 38 640 q 241 929 142 868 q 479 990 340 990 m 479 806 q 347 731 389 806 q 304 483 304 656 q 347 235 304 311 q 479 160 390 160 q 613 235 571 160 q 654 483 654 310 q 613 731 654 656 q 479 806 571 806 m 414 1382 l 575 1307 l 411 1046 l 286 1096 l 414 1382 m 668 1382 l 828 1301 l 651 1040 l 528 1099 l 668 1382 z "},"Ƣ":{"ha":1349,"x_min":38,"x_max":1274,"o":"m 974 992 q 1193 919 1113 992 q 1274 711 1274 847 l 1274 -296 l 1017 -296 l 1017 721 q 940 814 1017 814 q 847 793 893 814 q 922 483 922 669 q 870 212 922 326 q 718 36 818 97 q 479 -25 618 -25 q 153 108 269 -25 q 38 483 38 242 q 90 754 38 640 q 241 929 142 868 q 479 990 340 990 q 735 915 625 990 q 974 992 842 992 m 479 160 q 613 235 571 160 q 654 483 654 310 q 613 731 654 656 q 479 806 571 806 q 347 731 389 806 q 304 483 304 656 q 347 235 304 311 q 479 160 390 160 z "},"Ȏ":{"ha":958,"x_min":38,"x_max":922,"o":"m 479 990 q 806 857 689 990 q 922 483 922 724 q 870 212 922 326 q 718 36 818 97 q 479 -25 618 -25 q 153 108 269 -25 q 38 483 38 242 q 90 754 38 640 q 241 929 142 868 q 479 990 340 990 m 479 806 q 347 731 389 806 q 304 483 304 656 q 347 235 304 311 q 479 160 390 160 q 613 235 571 160 q 654 483 654 310 q 613 731 654 656 q 479 806 571 806 m 478 1333 q 653 1260 589 1333 q 726 1078 718 1188 l 594 1054 q 553 1135 582 1106 q 478 1164 524 1164 q 363 1054 390 1164 l 231 1078 q 303 1260 239 1188 q 478 1333 367 1333 z "},"Ō":{"ha":958,"x_min":38,"x_max":922,"o":"m 479 990 q 806 857 689 990 q 922 483 922 724 q 870 212 922 326 q 718 36 818 97 q 479 -25 618 -25 q 153 108 269 -25 q 38 483 38 242 q 90 754 38 640 q 241 929 142 868 q 479 990 340 990 m 479 806 q 347 731 389 806 q 304 483 304 656 q 347 235 304 311 q 479 160 390 160 q 613 235 571 160 q 654 483 654 310 q 613 731 654 656 q 479 806 571 806 m 697 1081 l 260 1081 l 260 1249 l 697 1249 l 697 1081 z "},"Ṓ":{"ha":958,"x_min":38,"x_max":922,"o":"m 479 990 q 806 857 689 990 q 922 483 922 724 q 870 212 922 326 q 718 36 818 97 q 479 -25 618 -25 q 153 108 269 -25 q 38 483 38 242 q 90 754 38 640 q 241 929 142 868 q 479 990 340 990 m 479 806 q 347 731 389 806 q 304 483 304 656 q 347 235 304 311 q 479 160 390 160 q 613 235 571 160 q 654 483 654 310 q 613 731 654 656 q 479 806 571 806 m 697 1058 l 260 1058 l 260 1226 l 697 1226 l 697 1058 m 594 1568 l 683 1386 l 340 1263 l 278 1388 l 594 1568 z "},"Ṑ":{"ha":958,"x_min":38,"x_max":922,"o":"m 364 1572 l 679 1392 l 617 1267 l 274 1390 l 364 1572 m 697 1058 l 260 1058 l 260 1226 l 697 1226 l 697 1058 m 479 990 q 806 857 689 990 q 922 483 922 724 q 870 212 922 326 q 718 36 818 97 q 479 -25 618 -25 q 153 108 269 -25 q 38 483 38 242 q 90 754 38 640 q 241 929 142 868 q 479 990 340 990 m 479 806 q 347 731 389 806 q 304 483 304 656 q 347 235 304 311 q 479 160 390 160 q 613 235 571 160 q 654 483 654 310 q 613 731 654 656 q 479 806 571 806 z "},"Ꞷ":{"ha":1251,"x_min":61,"x_max":1192,"o":"m 1081 965 q 1163 721 1133 844 q 1192 421 1192 597 q 1110 84 1192 193 q 871 -25 1029 -25 q 626 150 676 -25 q 540 18 603 61 q 392 -25 478 -25 q 142 83 222 -25 q 61 421 61 190 q 90 721 61 597 q 169 965 118 844 l 407 965 q 340 708 363 822 q 318 435 318 593 q 342 222 318 285 q 421 160 365 160 q 501 272 501 160 l 501 554 l 754 554 l 754 272 q 773 184 754 210 q 835 158 792 158 q 910 220 888 158 q 933 435 933 282 q 908 710 933 593 q 833 965 883 826 l 1081 965 z "},"Ǫ":{"ha":958,"x_min":38,"x_max":922,"o":"m 922 483 q 850 174 922 299 q 643 1 778 49 l 643 0 q 482 -137 482 -57 q 554 -199 482 -199 q 639 -189 594 -199 l 622 -336 q 522 -347 575 -347 q 369 -301 429 -347 q 310 -179 310 -256 q 392 -18 310 -85 q 130 140 222 10 q 38 483 38 269 q 90 754 38 640 q 241 929 142 868 q 479 990 340 990 q 806 857 689 990 q 922 483 922 724 m 479 160 q 613 235 571 160 q 654 483 654 310 q 613 731 654 656 q 479 806 571 806 q 347 731 389 806 q 304 483 304 656 q 347 235 304 311 q 479 160 390 160 z "},"Ǭ":{"ha":958,"x_min":38,"x_max":922,"o":"m 697 1249 l 697 1081 l 260 1081 l 260 1249 l 697 1249 m 922 483 q 850 174 922 299 q 643 1 778 49 l 643 0 q 482 -137 482 -57 q 554 -199 482 -199 q 639 -189 594 -199 l 622 -336 q 522 -347 575 -347 q 369 -301 429 -347 q 310 -179 310 -256 q 392 -18 310 -85 q 130 140 222 10 q 38 483 38 269 q 90 754 38 640 q 241 929 142 868 q 479 990 340 990 q 806 857 689 990 q 922 483 922 724 m 479 160 q 613 235 571 160 q 654 483 654 310 q 613 731 654 656 q 479 806 571 806 q 347 731 389 806 q 304 483 304 656 q 347 235 304 311 q 479 160 390 160 z "},"Ɔ":{"ha":804,"x_min":6,"x_max":768,"o":"m 338 990 q 563 931 465 990 q 714 757 660 871 q 768 485 768 643 q 713 208 768 322 q 556 34 657 93 q 321 -25 456 -25 q 144 11 224 -25 q 6 104 64 47 l 118 247 q 213 189 171 208 q 307 169 254 169 q 500 485 500 169 q 454 728 500 653 q 322 803 408 803 q 227 785 271 803 q 139 735 183 768 l 17 881 q 160 963 82 935 q 338 990 238 990 z "},"Ø":{"ha":958,"x_min":38,"x_max":922,"o":"m 725 926 q 872 753 821 865 q 922 483 922 640 q 870 212 922 326 q 718 36 818 97 q 479 -25 618 -25 q 418 -22 457 -25 l 367 -190 l 178 -139 l 233 40 q 88 214 138 101 q 38 483 38 326 q 90 754 38 640 q 241 929 142 868 q 479 990 340 990 q 540 988 501 990 l 592 1153 l 782 1103 l 725 926 m 479 806 q 347 731 389 806 q 304 483 304 656 q 342 232 304 304 l 513 804 q 479 806 503 806 m 479 160 q 613 235 571 160 q 654 483 654 310 q 618 733 654 663 l 447 161 q 479 160 457 160 z "},"Ǿ":{"ha":958,"x_min":38,"x_max":922,"o":"m 725 926 q 872 753 821 865 q 922 483 922 640 q 870 212 922 326 q 718 36 818 97 q 479 -25 618 -25 q 418 -22 457 -25 l 367 -190 l 178 -139 l 233 40 q 88 214 138 101 q 38 483 38 326 q 90 754 38 640 q 241 929 142 868 q 479 990 340 990 q 540 988 501 990 l 592 1153 l 782 1103 l 725 926 m 479 806 q 347 731 389 806 q 304 483 304 656 q 342 232 304 304 l 513 804 q 479 806 503 806 m 479 160 q 613 235 571 160 q 654 483 654 310 q 618 733 654 663 l 447 161 q 479 160 457 160 m 592 1401 l 681 1219 l 338 1096 l 275 1221 l 592 1401 z "},"Õ":{"ha":958,"x_min":38,"x_max":922,"o":"m 479 990 q 806 857 689 990 q 922 483 922 724 q 870 212 922 326 q 718 36 818 97 q 479 -25 618 -25 q 153 108 269 -25 q 38 483 38 242 q 90 754 38 640 q 241 929 142 868 q 479 990 340 990 m 479 806 q 347 731 389 806 q 304 483 304 656 q 347 235 304 311 q 479 160 390 160 q 613 235 571 160 q 654 483 654 310 q 613 731 654 656 q 479 806 571 806 m 560 1047 q 505 1057 528 1047 q 456 1085 482 1067 q 428 1101 442 1094 q 401 1108 414 1108 q 361 1094 376 1108 q 328 1049 346 1081 l 208 1107 q 285 1233 236 1183 q 396 1283 333 1283 q 453 1274 429 1283 q 503 1246 476 1264 q 531 1229 517 1236 q 557 1222 544 1222 q 596 1236 581 1222 q 629 1282 611 1250 l 749 1224 q 671 1097 719 1146 q 560 1047 622 1047 z "},"Ṍ":{"ha":958,"x_min":38,"x_max":922,"o":"m 479 990 q 806 857 689 990 q 922 483 922 724 q 870 212 922 326 q 718 36 818 97 q 479 -25 618 -25 q 153 108 269 -25 q 38 483 38 242 q 90 754 38 640 q 241 929 142 868 q 479 990 340 990 m 479 806 q 347 731 389 806 q 304 483 304 656 q 347 235 304 311 q 479 160 390 160 q 613 235 571 160 q 654 483 654 310 q 613 731 654 656 q 479 806 571 806 m 560 1047 q 505 1057 528 1047 q 456 1085 482 1067 q 428 1101 442 1094 q 401 1108 414 1108 q 361 1094 376 1108 q 328 1049 346 1081 l 208 1107 q 285 1233 236 1183 q 396 1283 333 1283 q 453 1274 429 1283 q 503 1246 476 1264 q 531 1229 517 1236 q 557 1222 544 1222 q 596 1236 581 1222 q 629 1282 611 1250 l 749 1224 q 671 1097 719 1146 q 560 1047 622 1047 m 593 1604 l 682 1422 l 339 1299 l 276 1424 l 593 1604 z "},"Ȭ":{"ha":958,"x_min":38,"x_max":922,"o":"m 479 990 q 806 857 689 990 q 922 483 922 724 q 870 212 922 326 q 718 36 818 97 q 479 -25 618 -25 q 153 108 269 -25 q 38 483 38 242 q 90 754 38 640 q 241 929 142 868 q 479 990 340 990 m 479 806 q 347 731 389 806 q 304 483 304 656 q 347 235 304 311 q 479 160 390 160 q 613 235 571 160 q 654 483 654 310 q 613 731 654 656 q 479 806 571 806 m 560 1047 q 505 1057 528 1047 q 456 1085 482 1067 q 428 1101 442 1094 q 401 1108 414 1108 q 361 1094 376 1108 q 328 1049 346 1081 l 208 1107 q 285 1233 236 1183 q 396 1283 333 1283 q 453 1274 429 1283 q 503 1246 476 1264 q 531 1229 517 1236 q 557 1222 544 1222 q 596 1236 581 1222 q 629 1282 611 1250 l 749 1224 q 671 1097 719 1146 q 560 1047 622 1047 m 696 1324 l 258 1324 l 258 1492 l 696 1492 l 696 1324 z "},"Œ":{"ha":1261,"x_min":38,"x_max":1222,"o":"m 889 401 q 806 182 871 269 l 1218 182 l 1218 0 l 594 0 q 456 -25 535 -25 q 233 35 328 -25 q 88 210 139 96 q 38 483 38 325 q 88 753 38 639 q 233 929 139 868 q 456 990 328 990 q 600 965 538 990 l 1222 965 l 1196 783 l 808 783 q 888 578 871 694 l 1154 578 l 1154 401 l 889 401 m 465 160 q 587 235 547 160 q 626 483 626 311 q 587 730 626 654 q 465 806 547 806 q 344 730 385 806 q 304 483 304 654 q 345 237 304 314 q 465 160 386 160 z "},"P":{"ha":840,"x_min":75,"x_max":815,"o":"m 406 965 q 708 884 600 965 q 815 646 815 803 q 711 397 815 482 q 431 311 607 311 l 332 311 l 332 0 l 75 0 l 75 965 l 406 965 m 407 494 q 516 531 479 494 q 553 644 553 567 q 401 785 553 785 l 332 785 l 332 494 l 407 494 z "},"Ṕ":{"ha":840,"x_min":75,"x_max":815,"o":"m 406 965 q 708 884 600 965 q 815 646 815 803 q 711 397 815 482 q 431 311 607 311 l 332 311 l 332 0 l 75 0 l 75 965 l 406 965 m 407 494 q 516 531 479 494 q 553 644 553 567 q 401 785 553 785 l 332 785 l 332 494 l 407 494 m 535 1347 l 624 1165 l 281 1042 l 218 1167 l 535 1347 z "},"Ṗ":{"ha":840,"x_min":75,"x_max":815,"o":"m 406 965 q 708 884 600 965 q 815 646 815 803 q 711 397 815 482 q 431 311 607 311 l 332 311 l 332 0 l 75 0 l 75 965 l 406 965 m 407 494 q 516 531 479 494 q 553 644 553 567 q 401 785 553 785 l 332 785 l 332 494 l 407 494 m 421 1314 q 523 1275 483 1314 q 563 1178 563 1236 q 523 1081 563 1119 q 421 1042 483 1042 q 319 1081 358 1042 q 279 1178 279 1119 q 319 1275 279 1236 q 421 1314 358 1314 z "},"Ƥ":{"ha":1063,"x_min":3,"x_max":1036,"o":"m 626 965 q 928 884 821 965 q 1036 646 1036 803 q 932 397 1036 482 q 651 311 828 311 l 553 311 l 553 0 l 296 0 l 296 785 l 260 785 q 199 729 199 785 q 204 689 199 708 q 221 642 210 669 l 65 575 q 19 660 36 619 q 3 746 3 701 q 76 907 3 849 q 274 965 150 965 l 626 965 m 628 494 q 737 531 700 494 q 774 644 774 567 q 622 785 774 785 l 553 785 l 553 494 l 628 494 z "},"Þ":{"ha":840,"x_min":75,"x_max":815,"o":"m 406 818 q 708 737 600 818 q 815 496 815 656 q 711 240 815 326 q 431 153 607 153 l 332 153 l 332 0 l 75 0 l 75 965 l 332 965 l 332 818 l 406 818 m 407 336 q 516 374 479 336 q 553 496 553 411 q 401 638 553 638 l 332 638 l 332 336 l 407 336 z "},"Q":{"ha":958,"x_min":38,"x_max":986,"o":"m 693 64 q 857 43 789 64 q 986 -24 925 22 l 833 -222 q 671 -75 757 -129 q 463 -21 585 -21 q 235 38 331 -21 q 89 211 140 97 q 38 483 38 325 q 90 754 38 640 q 241 929 142 868 q 479 990 340 990 q 806 857 689 990 q 922 483 922 724 q 858 222 922 324 q 693 64 793 121 m 304 483 q 347 235 304 311 q 479 160 390 160 q 613 235 571 160 q 654 483 654 310 q 613 731 654 656 q 479 806 571 806 q 347 731 389 806 q 304 483 304 656 z "},"Ɋ":{"ha":936,"x_min":38,"x_max":1111,"o":"m 1111 -251 q 904 -311 1026 -311 q 685 -240 765 -311 q 604 -33 604 -169 l 604 44 q 417 -25 531 -25 q 217 34 303 -25 q 85 204 132 93 q 38 468 38 315 q 87 747 38 629 q 223 928 136 865 q 421 990 310 990 q 624 911 540 990 l 632 965 l 861 965 l 861 -49 q 881 -108 861 -87 q 933 -128 900 -128 q 980 -122 961 -128 q 1029 -100 999 -115 l 1111 -251 m 474 154 q 604 203 550 154 l 604 754 q 475 806 550 806 q 347 726 390 806 q 304 468 304 647 q 347 226 304 297 q 474 154 390 154 z "},"R":{"ha":861,"x_min":75,"x_max":878,"o":"m 403 356 l 332 356 l 332 0 l 75 0 l 75 965 l 410 965 q 715 892 614 965 q 815 665 815 818 q 773 513 815 574 q 638 403 731 451 l 878 0 l 592 0 l 403 356 m 332 531 l 418 531 q 551 665 551 531 q 515 757 551 728 q 404 786 478 786 l 332 786 l 332 531 z "},"Ŕ":{"ha":861,"x_min":75,"x_max":878,"o":"m 403 356 l 332 356 l 332 0 l 75 0 l 75 965 l 410 965 q 715 892 614 965 q 815 665 815 818 q 773 513 815 574 q 638 403 731 451 l 878 0 l 592 0 l 403 356 m 332 531 l 418 531 q 551 665 551 531 q 515 757 551 728 q 404 786 478 786 l 332 786 l 332 531 m 532 1347 l 621 1165 l 278 1042 l 215 1167 l 532 1347 z "},"Ř":{"ha":861,"x_min":75,"x_max":878,"o":"m 403 356 l 332 356 l 332 0 l 75 0 l 75 965 l 410 965 q 715 892 614 965 q 815 665 815 818 q 773 513 815 574 q 638 403 731 451 l 878 0 l 592 0 l 403 356 m 332 531 l 418 531 q 551 665 551 531 q 515 757 551 728 q 404 786 478 786 l 332 786 l 332 531 m 606 1325 l 692 1226 l 493 1039 l 343 1039 l 144 1226 l 231 1325 l 418 1207 l 606 1325 z "},"Ŗ":{"ha":861,"x_min":75,"x_max":878,"o":"m 403 356 l 332 356 l 332 0 l 75 0 l 75 965 l 410 965 q 715 892 614 965 q 815 665 815 818 q 773 513 815 574 q 638 403 731 451 l 878 0 l 592 0 l 403 356 m 332 531 l 418 531 q 551 665 551 531 q 515 757 551 728 q 404 786 478 786 l 332 786 l 332 531 m 433 -90 q 518 -124 485 -90 q 551 -207 551 -157 q 543 -258 551 -235 q 514 -326 535 -282 l 447 -462 l 328 -462 l 363 -304 q 314 -207 314 -265 q 348 -124 314 -158 q 433 -90 382 -90 z "},"Ȑ":{"ha":861,"x_min":74,"x_max":878,"o":"m 403 356 l 332 356 l 332 0 l 75 0 l 75 965 l 410 965 q 715 892 614 965 q 815 665 815 818 q 773 513 815 574 q 638 403 731 451 l 878 0 l 592 0 l 403 356 m 332 531 l 418 531 q 551 665 551 531 q 515 757 551 728 q 404 786 478 786 l 332 786 l 332 531 m 233 1382 l 372 1099 l 249 1040 l 74 1301 l 233 1382 m 486 1382 l 615 1096 l 489 1046 l 325 1307 l 486 1382 z "},"Ṛ":{"ha":861,"x_min":75,"x_max":878,"o":"m 403 356 l 332 356 l 332 0 l 75 0 l 75 965 l 410 965 q 715 892 614 965 q 815 665 815 818 q 773 513 815 574 q 638 403 731 451 l 878 0 l 592 0 l 403 356 m 332 531 l 418 531 q 551 665 551 531 q 515 757 551 728 q 404 786 478 786 l 332 786 l 332 531 m 432 -350 q 330 -311 369 -350 q 290 -214 290 -272 q 330 -117 290 -156 q 432 -78 369 -78 q 534 -117 494 -78 q 574 -214 574 -156 q 534 -311 574 -272 q 432 -350 494 -350 z "},"Ȓ":{"ha":861,"x_min":75,"x_max":878,"o":"m 403 356 l 332 356 l 332 0 l 75 0 l 75 965 l 410 965 q 715 892 614 965 q 815 665 815 818 q 773 513 815 574 q 638 403 731 451 l 878 0 l 592 0 l 403 356 m 332 531 l 418 531 q 551 665 551 531 q 515 757 551 728 q 404 786 478 786 l 332 786 l 332 531 m 417 1333 q 592 1260 528 1333 q 665 1078 657 1188 l 533 1054 q 492 1135 521 1106 q 417 1164 463 1164 q 301 1054 329 1164 l 169 1078 q 242 1260 178 1188 q 417 1333 306 1333 z "},"Ɍ":{"ha":882,"x_min":17,"x_max":899,"o":"m 613 0 l 424 356 l 353 356 l 353 0 l 96 0 l 96 356 l 17 356 l 17 531 l 96 531 l 96 965 l 431 965 q 735 892 635 965 q 836 665 836 818 q 794 513 836 574 q 658 403 751 451 l 899 0 l 613 0 m 353 786 l 353 531 l 439 531 q 572 665 572 531 q 535 757 572 728 q 425 786 499 786 l 353 786 z "},"Ɽ":{"ha":861,"x_min":75,"x_max":878,"o":"m 332 -49 q 351 -108 332 -87 q 404 -128 371 -128 q 451 -122 432 -128 q 500 -100 469 -115 l 582 -251 q 375 -311 497 -311 q 156 -240 236 -311 q 75 -33 75 -169 l 75 965 l 410 965 q 715 892 614 965 q 815 665 815 818 q 773 513 815 574 q 638 403 731 451 l 878 0 l 592 0 l 403 356 l 332 356 l 332 -49 m 332 786 l 332 531 l 418 531 q 551 665 551 531 q 515 757 551 728 q 404 786 478 786 l 332 786 z "},"S":{"ha":806,"x_min":7,"x_max":778,"o":"m 408 990 q 602 958 518 990 q 753 863 686 926 l 638 726 q 428 806 538 806 q 341 784 371 806 q 311 724 311 763 q 326 678 311 696 q 378 643 342 660 q 492 601 414 626 q 709 483 640 554 q 778 285 778 411 q 731 123 778 193 q 594 14 683 53 q 383 -25 504 -25 q 7 115 153 -25 l 133 256 q 374 161 249 161 q 475 190 439 161 q 511 265 511 218 q 497 320 511 299 q 448 359 483 342 q 344 397 413 376 q 114 521 181 449 q 47 703 47 593 q 94 854 47 789 q 223 955 140 919 q 408 990 306 990 z "},"Ś":{"ha":806,"x_min":7,"x_max":778,"o":"m 408 990 q 602 958 518 990 q 753 863 686 926 l 638 726 q 428 806 538 806 q 341 784 371 806 q 311 724 311 763 q 326 678 311 696 q 378 643 342 660 q 492 601 414 626 q 709 483 640 554 q 778 285 778 411 q 731 123 778 193 q 594 14 683 53 q 383 -25 504 -25 q 7 115 153 -25 l 133 256 q 374 161 249 161 q 475 190 439 161 q 511 265 511 218 q 497 320 511 299 q 448 359 483 342 q 344 397 413 376 q 114 521 181 449 q 47 703 47 593 q 94 854 47 789 q 223 955 140 919 q 408 990 306 990 m 532 1347 l 621 1165 l 278 1042 l 215 1167 l 532 1347 z "},"Ꞌ":{"ha":357,"x_min":61,"x_max":297,"o":"m 89 458 l 61 965 l 297 965 l 268 458 l 89 458 z "},"Š":{"ha":806,"x_min":7,"x_max":778,"o":"m 408 990 q 602 958 518 990 q 753 863 686 926 l 638 726 q 428 806 538 806 q 341 784 371 806 q 311 724 311 763 q 326 678 311 696 q 378 643 342 660 q 492 601 414 626 q 709 483 640 554 q 778 285 778 411 q 731 123 778 193 q 594 14 683 53 q 383 -25 504 -25 q 7 115 153 -25 l 133 256 q 374 161 249 161 q 475 190 439 161 q 511 265 511 218 q 497 320 511 299 q 448 359 483 342 q 344 397 413 376 q 114 521 181 449 q 47 703 47 593 q 94 854 47 789 q 223 955 140 919 q 408 990 306 990 m 606 1325 l 692 1226 l 493 1039 l 343 1039 l 144 1226 l 231 1325 l 418 1207 l 606 1325 z "},"Ş":{"ha":806,"x_min":7,"x_max":778,"o":"m 778 285 q 694 80 778 163 q 463 -21 610 -3 l 463 -62 q 574 -109 536 -72 q 611 -207 611 -146 q 553 -327 611 -281 q 394 -374 494 -374 q 301 -360 344 -374 q 229 -328 258 -347 l 285 -218 q 372 -243 328 -243 q 436 -204 436 -243 q 406 -172 436 -182 q 307 -161 375 -161 l 325 -22 q 7 115 131 -6 l 133 256 q 374 161 249 161 q 475 190 439 161 q 511 265 511 218 q 497 320 511 299 q 448 359 483 342 q 344 397 413 376 q 114 521 181 449 q 47 703 47 593 q 94 854 47 789 q 223 955 140 919 q 408 990 306 990 q 602 958 518 990 q 753 863 686 926 l 638 726 q 428 806 538 806 q 341 784 371 806 q 311 724 311 763 q 326 678 311 696 q 378 643 342 660 q 492 601 414 626 q 709 483 640 554 q 778 285 778 411 z "},"Ŝ":{"ha":806,"x_min":7,"x_max":778,"o":"m 408 990 q 602 958 518 990 q 753 863 686 926 l 638 726 q 428 806 538 806 q 341 784 371 806 q 311 724 311 763 q 326 678 311 696 q 378 643 342 660 q 492 601 414 626 q 709 483 640 554 q 778 285 778 411 q 731 123 778 193 q 594 14 683 53 q 383 -25 504 -25 q 7 115 153 -25 l 133 256 q 374 161 249 161 q 475 190 439 161 q 511 265 511 218 q 497 320 511 299 q 448 359 483 342 q 344 397 413 376 q 114 521 181 449 q 47 703 47 593 q 94 854 47 789 q 223 955 140 919 q 408 990 306 990 m 231 1046 l 144 1144 l 343 1332 l 493 1332 l 692 1144 l 606 1046 l 418 1164 l 231 1046 z "},"Ș":{"ha":806,"x_min":7,"x_max":778,"o":"m 408 990 q 602 958 518 990 q 753 863 686 926 l 638 726 q 428 806 538 806 q 341 784 371 806 q 311 724 311 763 q 326 678 311 696 q 378 643 342 660 q 492 601 414 626 q 709 483 640 554 q 778 285 778 411 q 731 123 778 193 q 594 14 683 53 q 383 -25 504 -25 q 7 115 153 -25 l 133 256 q 374 161 249 161 q 475 190 439 161 q 511 265 511 218 q 497 320 511 299 q 448 359 483 342 q 344 397 413 376 q 114 521 181 449 q 47 703 47 593 q 94 854 47 789 q 223 955 140 919 q 408 990 306 990 m 401 -90 q 486 -124 453 -90 q 519 -207 519 -157 q 511 -258 519 -235 q 482 -326 503 -282 l 415 -462 l 296 -462 l 331 -304 q 282 -207 282 -265 q 316 -124 282 -158 q 401 -90 350 -90 z "},"Ṡ":{"ha":806,"x_min":7,"x_max":778,"o":"m 408 990 q 602 958 518 990 q 753 863 686 926 l 638 726 q 428 806 538 806 q 341 784 371 806 q 311 724 311 763 q 326 678 311 696 q 378 643 342 660 q 492 601 414 626 q 709 483 640 554 q 778 285 778 411 q 731 123 778 193 q 594 14 683 53 q 383 -25 504 -25 q 7 115 153 -25 l 133 256 q 374 161 249 161 q 475 190 439 161 q 511 265 511 218 q 497 320 511 299 q 448 359 483 342 q 344 397 413 376 q 114 521 181 449 q 47 703 47 593 q 94 854 47 789 q 223 955 140 919 q 408 990 306 990 m 418 1314 q 520 1275 481 1314 q 560 1178 560 1236 q 520 1081 560 1119 q 418 1042 481 1042 q 316 1081 356 1042 q 276 1178 276 1119 q 316 1275 276 1236 q 418 1314 356 1314 z "},"Ṣ":{"ha":806,"x_min":7,"x_max":778,"o":"m 408 990 q 602 958 518 990 q 753 863 686 926 l 638 726 q 428 806 538 806 q 341 784 371 806 q 311 724 311 763 q 326 678 311 696 q 378 643 342 660 q 492 601 414 626 q 709 483 640 554 q 778 285 778 411 q 731 123 778 193 q 594 14 683 53 q 383 -25 504 -25 q 7 115 153 -25 l 133 256 q 374 161 249 161 q 475 190 439 161 q 511 265 511 218 q 497 320 511 299 q 448 359 483 342 q 344 397 413 376 q 114 521 181 449 q 47 703 47 593 q 94 854 47 789 q 223 955 140 919 q 408 990 306 990 m 400 -350 q 298 -311 338 -350 q 258 -214 258 -272 q 298 -117 258 -156 q 400 -78 338 -78 q 502 -117 463 -78 q 542 -214 542 -156 q 502 -311 542 -272 q 400 -350 463 -350 z "},"ẞ":{"ha":935,"x_min":75,"x_max":907,"o":"m 426 990 q 639 965 546 990 q 842 892 732 940 l 842 782 l 647 547 q 907 274 907 503 q 860 109 907 176 q 736 8 814 42 q 565 -25 658 -25 q 378 13 456 -25 l 451 179 q 531 165 483 165 q 608 193 578 165 q 639 278 639 221 q 590 383 639 346 q 428 432 540 421 l 428 557 l 604 779 q 443 806 528 806 q 359 776 386 806 q 332 679 332 746 l 332 0 l 75 0 l 75 671 q 165 906 75 821 q 426 990 256 990 z "},"Ə":{"ha":885,"x_min":24,"x_max":847,"o":"m 426 990 q 738 862 629 990 q 847 488 847 733 q 737 107 847 239 q 432 -25 626 -25 q 124 106 224 -25 q 24 471 24 238 q 32 569 24 528 l 589 569 q 536 748 583 690 q 401 806 489 806 q 290 786 338 806 q 190 731 242 767 l 78 865 q 235 960 151 929 q 426 990 319 990 m 431 158 q 546 214 507 158 q 589 397 585 269 l 269 397 q 313 215 271 271 q 431 158 354 158 z "},"T":{"ha":760,"x_min":10,"x_max":763,"o":"m 763 965 l 736 769 l 508 769 l 508 0 l 251 0 l 251 769 l 10 769 l 10 965 l 763 965 z "},"Ŧ":{"ha":760,"x_min":10,"x_max":763,"o":"m 736 769 l 508 769 l 508 542 l 664 542 l 664 404 l 508 404 l 508 0 l 251 0 l 251 404 l 96 404 l 96 542 l 251 542 l 251 769 l 10 769 l 10 965 l 763 965 l 736 769 z "},"Ť":{"ha":760,"x_min":10,"x_max":763,"o":"m 763 965 l 736 769 l 508 769 l 508 0 l 251 0 l 251 769 l 10 769 l 10 965 l 763 965 m 568 1325 l 654 1226 l 456 1039 l 306 1039 l 107 1226 l 193 1325 l 381 1207 l 568 1325 z "},"Ţ":{"ha":760,"x_min":10,"x_max":763,"o":"m 508 -62 q 619 -109 582 -72 q 657 -207 657 -146 q 598 -327 657 -281 q 439 -374 539 -374 q 349 -360 392 -374 q 275 -328 306 -347 l 331 -218 q 415 -243 374 -243 q 465 -234 449 -243 q 482 -204 482 -225 q 451 -172 482 -182 q 353 -161 421 -161 l 374 0 l 251 0 l 251 769 l 10 769 l 10 965 l 763 965 l 736 769 l 508 769 l 508 -62 z "},"Ṱ":{"ha":760,"x_min":10,"x_max":763,"o":"m 763 965 l 736 769 l 508 769 l 508 0 l 251 0 l 251 769 l 10 769 l 10 965 l 763 965 m 193 -383 l 107 -285 l 306 -86 l 454 -86 l 654 -285 l 568 -383 l 381 -254 l 193 -383 z "},"Ț":{"ha":760,"x_min":10,"x_max":763,"o":"m 763 965 l 736 769 l 508 769 l 508 0 l 251 0 l 251 769 l 10 769 l 10 965 l 763 965 m 382 -90 q 467 -124 433 -90 q 500 -207 500 -157 q 492 -258 500 -235 q 463 -326 483 -282 l 396 -462 l 276 -462 l 311 -304 q 263 -207 263 -265 q 297 -124 263 -158 q 382 -90 331 -90 z "},"Ⱦ":{"ha":760,"x_min":10,"x_max":763,"o":"m 736 782 l 619 782 l 492 521 l 492 0 l 268 0 l 268 63 l 186 -106 l 115 -69 l 268 243 l 268 782 l 10 782 l 10 965 l 621 965 l 664 1053 l 735 1018 l 708 965 l 763 965 l 736 782 m 492 700 l 532 782 l 492 782 l 492 700 z "},"Ṫ":{"ha":760,"x_min":10,"x_max":763,"o":"m 763 965 l 736 769 l 508 769 l 508 0 l 251 0 l 251 769 l 10 769 l 10 965 l 763 965 m 381 1314 q 483 1275 443 1314 q 522 1178 522 1236 q 483 1081 522 1119 q 381 1042 443 1042 q 278 1081 318 1042 q 239 1178 239 1119 q 278 1275 239 1236 q 381 1314 318 1314 z "},"Ṭ":{"ha":760,"x_min":10,"x_max":763,"o":"m 763 965 l 736 769 l 508 769 l 508 0 l 251 0 l 251 769 l 10 769 l 10 965 l 763 965 m 381 -350 q 278 -311 318 -350 q 239 -214 239 -272 q 278 -117 239 -156 q 381 -78 318 -78 q 483 -117 443 -78 q 522 -214 522 -156 q 483 -311 522 -272 q 381 -350 443 -350 z "},"Ƭ":{"ha":843,"x_min":3,"x_max":846,"o":"m 819 769 l 592 769 l 592 0 l 335 0 l 335 769 l 260 769 q 215 756 231 769 q 200 718 200 742 q 205 681 200 697 q 219 642 210 664 l 54 574 q 3 746 3 661 q 78 907 3 849 q 285 965 154 965 l 846 965 l 819 769 z "},"Ṯ":{"ha":760,"x_min":10,"x_max":763,"o":"m 763 965 l 736 769 l 508 769 l 508 0 l 251 0 l 251 769 l 10 769 l 10 965 l 763 965 m 599 -272 l 161 -272 l 161 -104 l 599 -104 l 599 -272 z "},"Ƽ":{"ha":767,"x_min":11,"x_max":726,"o":"m 651 790 l 311 790 l 311 607 q 454 639 385 639 q 594 601 532 639 q 691 492 656 564 q 726 321 726 421 q 679 138 726 217 q 544 17 632 60 q 339 -25 457 -25 q 151 15 233 -25 q 11 124 69 54 l 149 250 q 329 158 222 158 q 436 199 399 158 q 474 319 474 239 q 351 472 474 472 q 239 439 301 472 l 75 439 l 75 965 l 679 965 l 651 790 z "},"Ƅ":{"ha":872,"x_min":8,"x_max":854,"o":"m 467 643 q 754 565 654 643 q 854 331 854 486 q 751 84 854 168 q 475 0 647 0 l 114 0 l 114 669 l 8 743 q 157 965 96 835 l 371 965 l 371 643 l 467 643 m 446 183 q 588 328 588 183 q 552 433 588 397 q 442 468 517 468 l 371 468 l 371 183 l 446 183 z "},"Ƨ":{"ha":792,"x_min":28,"x_max":786,"o":"m 410 990 q 595 956 515 990 q 719 856 675 921 q 764 707 764 792 q 694 529 764 599 q 461 410 624 460 q 330 347 365 379 q 294 265 294 314 q 328 191 294 217 q 422 165 361 165 q 658 256 546 165 l 786 115 q 621 14 717 53 q 403 -25 525 -25 q 204 14 289 -25 q 74 123 119 53 q 28 283 28 193 q 97 474 28 404 q 314 590 165 543 q 460 653 421 625 q 500 725 500 682 q 471 785 500 764 q 390 806 442 806 q 276 786 328 806 q 174 726 224 767 l 58 863 q 410 990 203 990 z "},"Ʈ":{"ha":763,"x_min":10,"x_max":763,"o":"m 581 -128 q 627 -122 608 -128 q 676 -100 646 -115 l 758 -251 q 551 -311 674 -311 q 332 -240 413 -311 q 251 -33 251 -169 l 251 769 l 10 769 l 10 965 l 763 965 l 736 769 l 508 769 l 508 -49 q 528 -108 508 -87 q 581 -128 547 -128 z "},"U":{"ha":899,"x_min":61,"x_max":839,"o":"m 839 324 q 795 144 839 224 q 664 20 751 65 q 450 -25 576 -25 q 160 69 258 -25 q 61 324 61 163 l 61 965 l 318 965 l 318 332 q 349 203 318 244 q 450 163 381 163 q 550 204 519 163 q 581 332 581 246 l 581 965 l 839 965 l 839 324 z "},"Ú":{"ha":899,"x_min":61,"x_max":839,"o":"m 839 324 q 795 144 839 224 q 664 20 751 65 q 450 -25 576 -25 q 160 69 258 -25 q 61 324 61 163 l 61 965 l 318 965 l 318 332 q 349 203 318 244 q 450 163 381 163 q 550 204 519 163 q 581 332 581 246 l 581 965 l 839 965 l 839 324 m 564 1347 l 653 1165 l 310 1042 l 247 1167 l 564 1347 z "},"Ʉ":{"ha":943,"x_min":10,"x_max":933,"o":"m 933 690 l 861 690 l 861 324 q 817 144 861 224 q 686 20 774 65 q 472 -25 599 -25 q 182 69 281 -25 q 83 324 83 163 l 83 690 l 10 690 l 10 828 l 83 828 l 83 965 l 340 965 l 340 828 l 603 828 l 603 965 l 861 965 l 861 828 l 933 828 l 933 690 m 603 690 l 340 690 l 340 332 q 372 203 340 244 q 472 163 403 163 q 572 204 542 163 q 603 332 603 246 l 603 690 z "},"Ŭ":{"ha":899,"x_min":61,"x_max":839,"o":"m 839 324 q 795 144 839 224 q 664 20 751 65 q 450 -25 576 -25 q 160 69 258 -25 q 61 324 61 163 l 61 965 l 318 965 l 318 332 q 349 203 318 244 q 450 163 381 163 q 550 204 519 163 q 581 332 581 246 l 581 965 l 839 965 l 839 324 m 449 1039 q 275 1110 339 1039 q 201 1281 211 1181 l 333 1304 q 376 1235 347 1261 q 449 1208 404 1208 q 524 1235 494 1208 q 565 1304 553 1261 l 697 1281 q 624 1110 688 1181 q 449 1039 560 1039 z "},"Ǔ":{"ha":899,"x_min":61,"x_max":839,"o":"m 839 324 q 795 144 839 224 q 664 20 751 65 q 450 -25 576 -25 q 160 69 258 -25 q 61 324 61 163 l 61 965 l 318 965 l 318 332 q 349 203 318 244 q 450 163 381 163 q 550 204 519 163 q 581 332 581 246 l 581 965 l 839 965 l 839 324 m 638 1325 l 724 1226 l 525 1039 l 375 1039 l 176 1226 l 263 1325 l 450 1207 l 638 1325 z "},"Û":{"ha":899,"x_min":61,"x_max":839,"o":"m 839 324 q 795 144 839 224 q 664 20 751 65 q 450 -25 576 -25 q 160 69 258 -25 q 61 324 61 163 l 61 965 l 318 965 l 318 332 q 349 203 318 244 q 450 163 381 163 q 550 204 519 163 q 581 332 581 246 l 581 965 l 839 965 l 839 324 m 263 1046 l 176 1144 l 375 1332 l 525 1332 l 724 1144 l 638 1046 l 450 1164 l 263 1046 z "},"Ȕ":{"ha":899,"x_min":61,"x_max":839,"o":"m 839 324 q 795 144 839 224 q 664 20 751 65 q 450 -25 576 -25 q 160 69 258 -25 q 61 324 61 163 l 61 965 l 318 965 l 318 332 q 349 203 318 244 q 450 163 381 163 q 550 204 519 163 q 581 332 581 246 l 581 965 l 839 965 l 839 324 m 265 1382 l 404 1099 l 281 1040 l 106 1301 l 265 1382 m 518 1382 l 647 1096 l 521 1046 l 357 1307 l 518 1382 z "},"Ü":{"ha":899,"x_min":61,"x_max":839,"o":"m 839 324 q 795 144 839 224 q 664 20 751 65 q 450 -25 576 -25 q 160 69 258 -25 q 61 324 61 163 l 61 965 l 318 965 l 318 332 q 349 203 318 244 q 450 163 381 163 q 550 204 519 163 q 581 332 581 246 l 581 965 l 839 965 l 839 324 m 282 1299 q 369 1264 333 1299 q 404 1179 404 1229 q 369 1094 404 1129 q 282 1060 333 1060 q 196 1094 232 1060 q 160 1179 160 1129 q 196 1264 160 1229 q 282 1299 232 1299 m 613 1299 q 699 1264 664 1299 q 735 1179 735 1229 q 699 1094 735 1129 q 613 1060 664 1060 q 526 1094 563 1060 q 490 1179 490 1129 q 526 1264 490 1229 q 613 1299 563 1299 z "},"Ǘ":{"ha":899,"x_min":61,"x_max":839,"o":"m 839 324 q 795 144 839 224 q 664 20 751 65 q 450 -25 576 -25 q 160 69 258 -25 q 61 324 61 163 l 61 965 l 318 965 l 318 332 q 349 203 318 244 q 450 163 381 163 q 550 204 519 163 q 581 332 581 246 l 581 965 l 839 965 l 839 324 m 543 1557 l 675 1428 l 446 1228 l 354 1310 l 543 1557 m 272 1278 q 358 1243 322 1278 q 394 1160 394 1208 q 358 1074 394 1110 q 272 1039 322 1039 q 185 1074 221 1039 q 150 1160 150 1108 q 185 1243 150 1208 q 272 1278 221 1278 m 625 1278 q 712 1243 676 1278 q 747 1160 747 1208 q 712 1074 747 1108 q 625 1039 676 1039 q 539 1074 574 1039 q 504 1160 504 1108 q 539 1243 504 1208 q 625 1278 574 1278 z "},"Ǚ":{"ha":899,"x_min":61,"x_max":839,"o":"m 839 324 q 795 144 839 224 q 664 20 751 65 q 450 -25 576 -25 q 160 69 258 -25 q 61 324 61 163 l 61 965 l 318 965 l 318 332 q 349 203 318 244 q 450 163 381 163 q 550 204 519 163 q 581 332 581 246 l 581 965 l 839 965 l 839 324 m 635 1560 l 721 1461 l 522 1274 l 372 1274 l 174 1461 l 260 1560 l 447 1442 l 635 1560 m 272 1278 q 358 1243 322 1278 q 394 1160 394 1208 q 358 1074 394 1110 q 272 1039 322 1039 q 185 1074 221 1039 q 150 1160 150 1108 q 185 1243 150 1208 q 272 1278 221 1278 m 626 1278 q 713 1243 676 1278 q 749 1160 749 1208 q 713 1074 749 1110 q 626 1039 676 1039 q 540 1074 575 1039 q 504 1160 504 1108 q 540 1243 504 1208 q 626 1278 575 1278 z "},"Ǜ":{"ha":899,"x_min":61,"x_max":839,"o":"m 839 324 q 795 144 839 224 q 664 20 751 65 q 450 -25 576 -25 q 160 69 258 -25 q 61 324 61 163 l 61 965 l 318 965 l 318 332 q 349 203 318 244 q 450 163 381 163 q 550 204 519 163 q 581 332 581 246 l 581 965 l 839 965 l 839 324 m 358 1557 l 547 1310 l 454 1228 l 226 1428 l 358 1557 m 272 1278 q 359 1243 324 1278 q 394 1160 394 1208 q 359 1074 394 1108 q 272 1039 324 1039 q 186 1074 222 1039 q 150 1160 150 1110 q 186 1243 150 1208 q 272 1278 222 1278 m 625 1278 q 712 1243 676 1278 q 747 1160 747 1208 q 712 1074 747 1108 q 625 1039 676 1039 q 540 1074 575 1039 q 504 1160 504 1108 q 540 1243 504 1208 q 625 1278 575 1278 z "},"Ǖ":{"ha":899,"x_min":61,"x_max":839,"o":"m 839 324 q 795 144 839 224 q 664 20 751 65 q 450 -25 576 -25 q 160 69 258 -25 q 61 324 61 163 l 61 965 l 318 965 l 318 332 q 349 203 318 244 q 450 163 381 163 q 550 204 519 163 q 581 332 581 246 l 581 965 l 839 965 l 839 324 m 283 1274 q 370 1239 335 1274 q 406 1154 406 1204 q 370 1069 406 1104 q 283 1035 335 1035 q 197 1069 233 1035 q 161 1154 161 1104 q 197 1239 161 1204 q 283 1274 233 1274 m 614 1274 q 701 1239 665 1274 q 736 1154 736 1204 q 701 1069 736 1104 q 614 1035 665 1035 q 528 1069 564 1035 q 492 1154 492 1104 q 528 1239 492 1204 q 614 1274 564 1274 m 674 1322 l 236 1322 l 236 1490 l 674 1490 l 674 1322 z "},"Ụ":{"ha":899,"x_min":61,"x_max":839,"o":"m 839 324 q 795 144 839 224 q 664 20 751 65 q 450 -25 576 -25 q 160 69 258 -25 q 61 324 61 163 l 61 965 l 318 965 l 318 332 q 349 203 318 244 q 450 163 381 163 q 550 204 519 163 q 581 332 581 246 l 581 965 l 839 965 l 839 324 m 450 -350 q 348 -311 388 -350 q 308 -214 308 -272 q 348 -117 308 -156 q 450 -78 388 -78 q 552 -117 513 -78 q 592 -214 592 -156 q 552 -311 592 -272 q 450 -350 513 -350 z "},"Ù":{"ha":899,"x_min":61,"x_max":839,"o":"m 839 324 q 795 144 839 224 q 664 20 751 65 q 450 -25 576 -25 q 160 69 258 -25 q 61 324 61 163 l 61 965 l 318 965 l 318 332 q 349 203 318 244 q 450 163 381 163 q 550 204 519 163 q 581 332 581 246 l 581 965 l 839 965 l 839 324 m 335 1347 l 650 1167 l 588 1042 l 244 1165 l 335 1347 z "},"Ủ":{"ha":899,"x_min":61,"x_max":839,"o":"m 839 324 q 795 144 839 224 q 664 20 751 65 q 450 -25 576 -25 q 160 69 258 -25 q 61 324 61 163 l 61 965 l 318 965 l 318 332 q 349 203 318 244 q 450 163 381 163 q 550 204 519 163 q 581 332 581 246 l 581 965 l 839 965 l 839 324 m 379 1188 q 455 1201 432 1190 q 478 1239 478 1213 q 463 1269 478 1258 q 425 1279 449 1279 q 383 1275 401 1279 q 340 1261 364 1271 l 301 1358 q 458 1396 365 1396 q 592 1356 544 1396 q 639 1250 639 1315 q 608 1163 639 1196 q 521 1118 578 1129 l 521 1061 l 379 1061 l 379 1188 z "},"Ư":{"ha":1028,"x_min":61,"x_max":1056,"o":"m 1029 1074 q 1056 949 1056 1024 q 999 812 1056 858 q 839 765 942 765 l 839 324 q 795 144 839 224 q 664 20 751 65 q 450 -25 576 -25 q 160 69 258 -25 q 61 324 61 163 l 61 965 l 318 965 l 318 332 q 349 203 318 244 q 450 163 381 163 q 550 204 519 163 q 581 332 581 246 l 581 965 l 839 965 l 839 882 q 881 907 868 888 q 893 961 893 926 q 876 1053 893 1006 l 1029 1074 z "},"Ứ":{"ha":1028,"x_min":61,"x_max":1056,"o":"m 653 1165 l 310 1042 l 247 1167 l 564 1347 l 653 1165 m 1029 1074 q 1056 949 1056 1024 q 999 812 1056 858 q 839 765 942 765 l 839 324 q 795 144 839 224 q 664 20 751 65 q 450 -25 576 -25 q 160 69 258 -25 q 61 324 61 163 l 61 965 l 318 965 l 318 332 q 349 203 318 244 q 450 163 381 163 q 550 204 519 163 q 581 332 581 246 l 581 965 l 839 965 l 839 882 q 881 907 868 888 q 893 961 893 926 q 876 1053 893 1006 l 1029 1074 z "},"Ự":{"ha":1028,"x_min":61,"x_max":1056,"o":"m 1029 1074 q 1056 949 1056 1024 q 999 812 1056 858 q 839 765 942 765 l 839 324 q 795 144 839 224 q 664 20 751 65 q 450 -25 576 -25 q 160 69 258 -25 q 61 324 61 163 l 61 965 l 318 965 l 318 332 q 349 203 318 244 q 450 163 381 163 q 550 204 519 163 q 581 332 581 246 l 581 965 l 839 965 l 839 882 q 881 907 868 888 q 893 961 893 926 q 876 1053 893 1006 l 1029 1074 m 450 -78 q 552 -117 513 -78 q 592 -214 592 -156 q 552 -311 592 -272 q 450 -350 513 -350 q 348 -311 388 -350 q 308 -214 308 -272 q 348 -117 308 -156 q 450 -78 388 -78 z "},"Ừ":{"ha":1028,"x_min":61,"x_max":1056,"o":"m 650 1167 l 588 1042 l 244 1165 l 335 1347 l 650 1167 m 1029 1074 q 1056 949 1056 1024 q 999 812 1056 858 q 839 765 942 765 l 839 324 q 795 144 839 224 q 664 20 751 65 q 450 -25 576 -25 q 160 69 258 -25 q 61 324 61 163 l 61 965 l 318 965 l 318 332 q 349 203 318 244 q 450 163 381 163 q 550 204 519 163 q 581 332 581 246 l 581 965 l 839 965 l 839 882 q 881 907 868 888 q 893 961 893 926 q 876 1053 893 1006 l 1029 1074 z "},"Ử":{"ha":1028,"x_min":61,"x_max":1056,"o":"m 425 1279 q 383 1275 401 1279 q 340 1261 364 1271 l 301 1358 q 458 1396 365 1396 q 592 1356 544 1396 q 639 1250 639 1315 q 608 1163 639 1196 q 521 1118 578 1129 l 521 1061 l 379 1061 l 379 1188 q 455 1201 432 1190 q 478 1239 478 1213 q 463 1269 478 1258 q 425 1279 449 1279 m 1029 1074 q 1056 949 1056 1024 q 999 812 1056 858 q 839 765 942 765 l 839 324 q 795 144 839 224 q 664 20 751 65 q 450 -25 576 -25 q 160 69 258 -25 q 61 324 61 163 l 61 965 l 318 965 l 318 332 q 349 203 318 244 q 450 163 381 163 q 550 204 519 163 q 581 332 581 246 l 581 965 l 839 965 l 839 882 q 881 907 868 888 q 893 961 893 926 q 876 1053 893 1006 l 1029 1074 z "},"Ữ":{"ha":1028,"x_min":61,"x_max":1056,"o":"m 372 1108 q 332 1094 347 1108 q 299 1049 317 1081 l 179 1107 q 256 1233 207 1183 q 367 1283 304 1283 q 424 1274 400 1283 q 474 1246 447 1264 q 501 1229 488 1236 q 528 1222 515 1222 q 567 1236 551 1222 q 600 1282 582 1250 l 719 1224 q 642 1097 690 1146 q 531 1047 593 1047 q 476 1057 499 1047 q 426 1085 453 1067 q 399 1101 413 1094 q 372 1108 385 1108 m 1029 1074 q 1056 949 1056 1024 q 999 812 1056 858 q 839 765 942 765 l 839 324 q 795 144 839 224 q 664 20 751 65 q 450 -25 576 -25 q 160 69 258 -25 q 61 324 61 163 l 61 965 l 318 965 l 318 332 q 349 203 318 244 q 450 163 381 163 q 550 204 519 163 q 581 332 581 246 l 581 965 l 839 965 l 839 882 q 881 907 868 888 q 893 961 893 926 q 876 1053 893 1006 l 1029 1074 z "},"Ű":{"ha":899,"x_min":61,"x_max":839,"o":"m 839 324 q 795 144 839 224 q 664 20 751 65 q 450 -25 576 -25 q 160 69 258 -25 q 61 324 61 163 l 61 965 l 318 965 l 318 332 q 349 203 318 244 q 450 163 381 163 q 550 204 519 163 q 581 332 581 246 l 581 965 l 839 965 l 839 324 m 385 1382 l 546 1307 l 382 1046 l 257 1096 l 385 1382 m 639 1382 l 799 1301 l 622 1040 l 499 1099 l 639 1382 z "},"Ȗ":{"ha":899,"x_min":61,"x_max":839,"o":"m 839 324 q 795 144 839 224 q 664 20 751 65 q 450 -25 576 -25 q 160 69 258 -25 q 61 324 61 163 l 61 965 l 318 965 l 318 332 q 349 203 318 244 q 450 163 381 163 q 550 204 519 163 q 581 332 581 246 l 581 965 l 839 965 l 839 324 m 449 1333 q 624 1260 560 1333 q 697 1078 689 1188 l 565 1054 q 524 1135 553 1106 q 449 1164 494 1164 q 333 1054 361 1164 l 201 1078 q 274 1260 210 1188 q 449 1333 338 1333 z "},"Ū":{"ha":899,"x_min":61,"x_max":839,"o":"m 839 324 q 795 144 839 224 q 664 20 751 65 q 450 -25 576 -25 q 160 69 258 -25 q 61 324 61 163 l 61 965 l 318 965 l 318 332 q 349 203 318 244 q 450 163 381 163 q 550 204 519 163 q 581 332 581 246 l 581 965 l 839 965 l 839 324 m 668 1081 l 231 1081 l 231 1249 l 668 1249 l 668 1081 z "},"Ų":{"ha":899,"x_min":61,"x_max":839,"o":"m 839 965 l 839 324 q 782 124 839 210 q 617 0 725 38 q 454 -137 454 -57 q 526 -199 454 -199 q 611 -189 568 -199 l 596 -336 q 496 -347 547 -347 q 343 -301 403 -347 q 283 -179 283 -256 q 394 -22 283 -78 q 146 83 231 -10 q 61 324 61 175 l 61 965 l 318 965 l 318 332 q 349 203 318 244 q 450 163 381 163 q 550 204 519 163 q 581 332 581 246 l 581 965 l 839 965 z "},"Ʊ":{"ha":958,"x_min":38,"x_max":922,"o":"m 479 -25 q 242 33 342 -25 q 90 190 142 90 q 38 414 38 290 q 85 635 38 546 q 221 785 132 725 l 67 785 l 67 965 l 408 965 l 408 796 q 329 642 354 725 q 304 414 304 560 q 479 160 304 160 q 654 414 654 160 q 629 641 654 558 q 551 796 604 724 l 551 965 l 893 965 l 893 785 l 739 785 q 922 414 922 665 q 869 192 922 292 q 716 33 817 92 q 479 -25 615 -25 z "},"Ů":{"ha":899,"x_min":61,"x_max":839,"o":"m 839 324 q 795 144 839 224 q 664 20 751 65 q 450 -25 576 -25 q 160 69 258 -25 q 61 324 61 163 l 61 965 l 318 965 l 318 332 q 349 203 318 244 q 450 163 381 163 q 550 204 519 163 q 581 332 581 246 l 581 965 l 839 965 l 839 324 m 450 1393 q 599 1337 543 1393 q 654 1200 654 1281 q 629 1104 654 1149 q 558 1033 604 1060 q 450 1007 513 1007 q 343 1033 389 1007 q 272 1104 297 1060 q 247 1200 247 1149 q 303 1337 247 1281 q 450 1393 358 1393 m 450 1267 q 408 1250 424 1267 q 392 1200 392 1233 q 408 1151 392 1168 q 450 1133 424 1133 q 493 1151 476 1133 q 510 1200 510 1168 q 494 1250 510 1233 q 450 1267 478 1267 z "},"Ũ":{"ha":899,"x_min":61,"x_max":839,"o":"m 839 324 q 795 144 839 224 q 664 20 751 65 q 450 -25 576 -25 q 160 69 258 -25 q 61 324 61 163 l 61 965 l 318 965 l 318 332 q 349 203 318 244 q 450 163 381 163 q 550 204 519 163 q 581 332 581 246 l 581 965 l 839 965 l 839 324 m 531 1047 q 476 1057 499 1047 q 426 1085 453 1067 q 399 1101 413 1094 q 372 1108 385 1108 q 332 1094 347 1108 q 299 1049 317 1081 l 179 1107 q 256 1233 207 1183 q 367 1283 304 1283 q 424 1274 400 1283 q 474 1246 447 1264 q 501 1229 488 1236 q 528 1222 515 1222 q 567 1236 551 1222 q 600 1282 582 1250 l 719 1224 q 642 1097 690 1146 q 531 1047 593 1047 z "},"Ṹ":{"ha":899,"x_min":61,"x_max":839,"o":"m 839 324 q 795 144 839 224 q 664 20 751 65 q 450 -25 576 -25 q 160 69 258 -25 q 61 324 61 163 l 61 965 l 318 965 l 318 332 q 349 203 318 244 q 450 163 381 163 q 550 204 519 163 q 581 332 581 246 l 581 965 l 839 965 l 839 324 m 531 1047 q 476 1057 499 1047 q 426 1085 453 1067 q 399 1101 413 1094 q 372 1108 385 1108 q 332 1094 347 1108 q 299 1049 317 1081 l 179 1107 q 256 1233 207 1183 q 367 1283 304 1283 q 424 1274 400 1283 q 474 1246 447 1264 q 501 1229 488 1236 q 528 1222 515 1222 q 567 1236 551 1222 q 600 1282 582 1250 l 719 1224 q 642 1097 690 1146 q 531 1047 593 1047 m 564 1604 l 653 1422 l 310 1299 l 247 1424 l 564 1604 z "},"V":{"ha":799,"x_min":-26,"x_max":825,"o":"m 825 965 l 569 0 l 242 0 l -26 965 l 244 965 l 410 188 l 563 965 l 825 965 z "},"Ʋ":{"ha":899,"x_min":61,"x_max":839,"o":"m 613 990 q 781 929 722 990 q 839 743 839 868 l 839 401 q 787 172 839 268 q 640 26 735 76 q 419 -25 546 -25 q 228 17 310 -25 q 104 131 147 58 q 61 299 61 204 l 61 965 l 318 965 l 318 297 q 346 198 318 233 q 428 163 374 163 q 540 218 499 163 q 581 394 581 274 l 581 757 q 571 795 581 783 q 542 807 561 807 q 508 801 524 807 l 472 967 q 613 990 532 990 z "},"Ʌ":{"ha":828,"x_min":-26,"x_max":854,"o":"m 568 965 l 854 0 l 582 0 l 411 782 l 240 0 l -26 0 l 260 965 l 568 965 z "},"W":{"ha":1185,"x_min":7,"x_max":1178,"o":"m 1178 965 l 1028 0 l 693 0 l 590 715 l 479 0 l 153 0 l 7 965 l 263 965 l 342 190 l 460 965 l 729 965 l 835 190 l 932 965 l 1178 965 z "},"Ẃ":{"ha":1185,"x_min":7,"x_max":1178,"o":"m 1178 965 l 1028 0 l 693 0 l 590 715 l 479 0 l 153 0 l 7 965 l 263 965 l 342 190 l 460 965 l 729 965 l 835 190 l 932 965 l 1178 965 m 708 1347 l 797 1165 l 454 1042 l 392 1167 l 708 1347 z "},"Ŵ":{"ha":1185,"x_min":7,"x_max":1178,"o":"m 1178 965 l 1028 0 l 693 0 l 590 715 l 479 0 l 153 0 l 7 965 l 263 965 l 342 190 l 460 965 l 729 965 l 835 190 l 932 965 l 1178 965 m 407 1046 l 321 1144 l 519 1332 l 669 1332 l 868 1144 l 782 1046 l 594 1164 l 407 1046 z "},"Ẅ":{"ha":1185,"x_min":7,"x_max":1178,"o":"m 1178 965 l 1028 0 l 693 0 l 590 715 l 479 0 l 153 0 l 7 965 l 263 965 l 342 190 l 460 965 l 729 965 l 835 190 l 932 965 l 1178 965 m 426 1299 q 513 1264 478 1299 q 549 1179 549 1229 q 513 1094 549 1129 q 426 1060 478 1060 q 340 1094 376 1060 q 304 1179 304 1129 q 340 1264 304 1229 q 426 1299 376 1299 m 757 1299 q 844 1264 808 1299 q 879 1179 879 1229 q 844 1094 879 1129 q 757 1060 808 1060 q 671 1094 707 1060 q 635 1179 635 1129 q 671 1264 635 1229 q 757 1299 707 1299 z "},"Ẁ":{"ha":1185,"x_min":7,"x_max":1178,"o":"m 1178 965 l 1028 0 l 693 0 l 590 715 l 479 0 l 153 0 l 7 965 l 263 965 l 342 190 l 460 965 l 729 965 l 835 190 l 932 965 l 1178 965 m 479 1347 l 794 1167 l 732 1042 l 389 1165 l 479 1347 z "},"Ⱳ":{"ha":1281,"x_min":7,"x_max":1329,"o":"m 153 0 l 479 0 l 590 715 l 693 0 l 1019 0 l 1119 736 q 1142 794 1125 776 q 1190 811 1158 811 q 1227 806 1213 811 q 1261 792 1242 801 l 1329 939 q 1249 977 1290 964 q 1150 990 1207 990 q 975 931 1039 990 q 896 733 911 871 l 835 190 l 729 965 l 460 965 l 342 190 l 263 965 l 7 965 l 153 0 z "},"Ƿ":{"ha":840,"x_min":75,"x_max":815,"o":"m 550 990 q 684 957 624 990 q 780 862 744 924 q 815 721 815 800 q 766 534 815 610 q 635 410 717 458 q 431 318 553 363 l 332 282 l 332 0 l 75 0 l 75 965 l 332 965 l 332 908 q 550 990 417 990 m 371 474 q 510 573 467 517 q 553 704 553 629 q 526 782 553 756 q 453 808 499 808 q 332 763 385 808 l 332 456 l 371 474 z "},"X":{"ha":825,"x_min":-10,"x_max":835,"o":"m 561 519 l 835 0 l 556 0 l 406 349 l 263 0 l -10 0 l 254 513 l 10 965 l 286 965 l 408 672 l 542 965 l 813 965 l 561 519 z "},"Y":{"ha":843,"x_min":-15,"x_max":858,"o":"m 858 965 l 550 360 l 550 0 l 293 0 l 293 358 l -15 965 l 265 965 l 425 556 l 586 965 l 858 965 z "},"Ý":{"ha":843,"x_min":-15,"x_max":858,"o":"m 858 965 l 550 360 l 550 0 l 293 0 l 293 358 l -15 965 l 265 965 l 425 556 l 586 965 l 858 965 m 535 1347 l 624 1165 l 281 1042 l 218 1167 l 535 1347 z "},"Ŷ":{"ha":843,"x_min":-15,"x_max":858,"o":"m 858 965 l 550 360 l 550 0 l 293 0 l 293 358 l -15 965 l 265 965 l 425 556 l 586 965 l 858 965 m 233 1046 l 147 1144 l 346 1332 l 496 1332 l 694 1144 l 608 1046 l 421 1164 l 233 1046 z "},"Ÿ":{"ha":843,"x_min":-15,"x_max":858,"o":"m 858 965 l 550 360 l 550 0 l 293 0 l 293 358 l -15 965 l 265 965 l 425 556 l 586 965 l 858 965 m 253 1299 q 340 1264 304 1299 q 375 1179 375 1229 q 340 1094 375 1129 q 253 1060 304 1060 q 167 1094 203 1060 q 131 1179 131 1129 q 167 1264 131 1229 q 253 1299 203 1299 m 583 1299 q 670 1264 635 1299 q 706 1179 706 1229 q 670 1094 706 1129 q 583 1060 635 1060 q 497 1094 533 1060 q 461 1179 461 1129 q 497 1264 461 1229 q 583 1299 533 1299 z "},"Ỵ":{"ha":843,"x_min":-15,"x_max":858,"o":"m 858 965 l 550 360 l 550 0 l 293 0 l 293 358 l -15 965 l 265 965 l 425 556 l 586 965 l 858 965 m 421 -350 q 319 -311 358 -350 q 279 -214 279 -272 q 319 -117 279 -156 q 421 -78 358 -78 q 523 -117 483 -78 q 563 -214 563 -156 q 523 -311 563 -272 q 421 -350 483 -350 z "},"Ỳ":{"ha":843,"x_min":-15,"x_max":858,"o":"m 858 965 l 550 360 l 550 0 l 293 0 l 293 358 l -15 965 l 265 965 l 425 556 l 586 965 l 858 965 m 306 1347 l 621 1167 l 558 1042 l 215 1165 l 306 1347 z "},"Ƴ":{"ha":899,"x_min":-15,"x_max":947,"o":"m 293 358 l -15 965 l 265 965 l 425 556 l 506 776 q 606 941 546 892 q 772 990 667 990 q 947 940 868 990 l 879 792 q 808 811 847 811 q 758 796 776 811 q 721 740 739 781 l 550 360 l 550 0 l 293 0 l 293 358 z "},"Ỷ":{"ha":843,"x_min":-15,"x_max":858,"o":"m 858 965 l 550 360 l 550 0 l 293 0 l 293 358 l -15 965 l 265 965 l 425 556 l 586 965 l 858 965 m 350 1188 q 426 1201 403 1190 q 449 1239 449 1213 q 434 1269 449 1258 q 396 1279 419 1279 q 353 1275 372 1279 q 311 1261 335 1271 l 272 1358 q 429 1396 336 1396 q 563 1356 515 1396 q 610 1250 610 1315 q 579 1163 610 1196 q 492 1118 549 1129 l 492 1061 l 350 1061 l 350 1188 z "},"Ȳ":{"ha":843,"x_min":-15,"x_max":858,"o":"m 858 965 l 550 360 l 550 0 l 293 0 l 293 358 l -15 965 l 265 965 l 425 556 l 586 965 l 858 965 m 639 1081 l 201 1081 l 201 1249 l 639 1249 l 639 1081 z "},"Ʀ":{"ha":861,"x_min":75,"x_max":878,"o":"m 403 200 l 332 200 l 332 0 l 75 0 l 75 965 l 332 965 l 332 808 l 410 808 q 715 735 614 808 q 815 508 815 663 q 773 356 815 417 q 638 247 731 294 l 878 -156 l 592 -156 l 403 200 m 332 375 l 418 375 q 518 407 485 375 q 551 508 551 439 q 515 601 551 571 q 404 631 478 631 l 332 631 l 332 375 z "},"Ɏ":{"ha":844,"x_min":-14,"x_max":860,"o":"m 806 858 l 860 858 l 860 721 l 735 721 l 551 360 l 551 0 l 294 0 l 294 358 l 110 721 l -14 721 l -14 858 l 40 858 l -14 965 l 256 965 l 297 858 l 556 858 l 599 965 l 860 965 l 806 858 m 426 533 l 501 721 l 353 721 l 426 533 z "},"Ỹ":{"ha":843,"x_min":-15,"x_max":858,"o":"m 858 965 l 550 360 l 550 0 l 293 0 l 293 358 l -15 965 l 265 965 l 425 556 l 586 965 l 858 965 m 501 1047 q 447 1057 469 1047 q 397 1085 424 1067 q 369 1101 383 1094 q 343 1108 356 1108 q 303 1094 318 1108 q 269 1049 288 1081 l 150 1107 q 226 1233 178 1183 q 338 1283 275 1283 q 394 1274 371 1283 q 444 1246 418 1264 q 472 1229 458 1236 q 499 1222 486 1222 q 538 1236 522 1222 q 571 1282 553 1250 l 690 1224 q 613 1097 661 1146 q 501 1047 564 1047 z "},"Z":{"ha":764,"x_min":19,"x_max":736,"o":"m 725 965 l 725 772 l 324 203 l 736 203 l 710 0 l 19 0 l 19 190 l 432 768 l 60 768 l 60 965 l 725 965 z "},"Ź":{"ha":764,"x_min":19,"x_max":736,"o":"m 725 965 l 725 772 l 324 203 l 736 203 l 710 0 l 19 0 l 19 190 l 432 768 l 60 768 l 60 965 l 725 965 m 500 1347 l 589 1165 l 246 1042 l 183 1167 l 500 1347 z "},"Ž":{"ha":764,"x_min":19,"x_max":736,"o":"m 725 965 l 725 772 l 324 203 l 736 203 l 710 0 l 19 0 l 19 190 l 432 768 l 60 768 l 60 965 l 725 965 m 574 1325 l 660 1226 l 461 1039 l 311 1039 l 113 1226 l 199 1325 l 386 1207 l 574 1325 z "},"Ż":{"ha":764,"x_min":19,"x_max":736,"o":"m 725 965 l 725 772 l 324 203 l 736 203 l 710 0 l 19 0 l 19 190 l 432 768 l 60 768 l 60 965 l 725 965 m 386 1314 q 488 1275 449 1314 q 528 1178 528 1236 q 488 1081 528 1119 q 386 1042 449 1042 q 284 1081 324 1042 q 244 1178 244 1119 q 284 1275 244 1236 q 386 1314 324 1314 z "},"Ẓ":{"ha":764,"x_min":19,"x_max":736,"o":"m 725 965 l 725 772 l 324 203 l 736 203 l 710 0 l 19 0 l 19 190 l 432 768 l 60 768 l 60 965 l 725 965 m 369 -350 q 267 -311 307 -350 q 228 -214 228 -272 q 267 -117 228 -156 q 369 -78 307 -78 q 472 -117 432 -78 q 511 -214 511 -156 q 472 -311 511 -272 q 369 -350 432 -350 z "},"Ȥ":{"ha":754,"x_min":19,"x_max":725,"o":"m 725 772 l 324 203 l 724 203 l 724 -33 q 643 -240 724 -169 q 424 -311 563 -311 q 217 -251 301 -311 l 299 -100 q 349 -122 329 -115 q 401 -128 369 -128 q 479 -49 479 -128 l 479 0 l 19 0 l 19 190 l 432 768 l 60 768 l 60 965 l 725 965 l 725 772 z "},"Ƶ":{"ha":764,"x_min":19,"x_max":736,"o":"m 300 203 l 736 203 l 710 0 l 19 0 l 19 179 l 186 404 l 78 404 l 78 561 l 303 561 l 456 768 l 60 768 l 60 965 l 725 965 l 725 783 l 563 561 l 664 561 l 664 404 l 447 404 l 300 203 z "},"ʙ":{"ha":769,"x_min":72,"x_max":736,"o":"m 546 407 q 736 224 736 385 q 645 56 736 111 q 399 0 554 0 l 72 0 l 72 732 q 379 765 254 765 q 619 715 533 765 q 704 565 704 664 q 665 462 704 503 q 546 407 625 421 m 374 613 q 319 610 342 613 l 319 453 l 379 453 q 440 473 418 453 q 461 533 461 493 q 374 613 461 613 m 390 157 q 483 247 483 157 q 390 332 483 332 l 319 332 l 319 157 l 390 157 z "},"ɢ":{"ha":778,"x_min":35,"x_max":733,"o":"m 426 765 q 594 738 522 765 q 725 661 665 711 l 608 535 q 526 578 565 564 q 443 593 488 593 q 328 536 368 593 q 289 372 289 479 q 320 198 289 247 q 414 149 351 149 q 504 165 463 149 l 504 281 l 419 281 l 397 439 l 733 439 l 733 69 q 584 2 667 28 q 411 -24 501 -24 q 128 75 221 -24 q 35 374 35 174 q 85 581 35 492 q 225 717 136 669 q 426 765 314 765 z "},"ʛ":{"ha":778,"x_min":35,"x_max":949,"o":"m 754 1057 q 949 1006 867 1057 l 882 853 q 790 878 835 878 q 741 858 757 878 q 725 797 725 839 l 725 661 l 621 549 q 535 583 572 572 q 446 593 497 593 q 328 536 368 593 q 289 372 289 479 q 320 198 289 247 q 414 149 351 149 q 504 165 463 149 l 504 281 l 419 281 l 397 439 l 733 439 l 733 69 q 590 1 672 26 q 414 -24 508 -24 q 35 374 35 -24 q 84 581 35 492 q 217 717 133 669 q 401 765 301 765 q 511 749 464 765 l 511 815 q 572 994 511 932 q 754 1057 632 1057 z "},"ʜ":{"ha":811,"x_min":72,"x_max":739,"o":"m 492 0 l 492 285 l 319 285 l 319 0 l 72 0 l 72 740 l 319 740 l 319 464 l 492 464 l 492 740 l 739 740 l 739 0 l 492 0 z "},"ɪ":{"ha":471,"x_min":18,"x_max":453,"o":"m 453 565 l 358 565 l 358 176 l 453 176 l 453 0 l 18 0 l 18 176 l 111 176 l 111 565 l 18 565 l 18 740 l 453 740 l 453 565 z "},"ʟ":{"ha":632,"x_min":72,"x_max":622,"o":"m 319 740 l 319 188 l 622 188 l 596 0 l 72 0 l 72 740 l 319 740 z "},"ɴ":{"ha":813,"x_min":72,"x_max":740,"o":"m 740 0 l 447 0 l 251 529 q 279 363 269 442 q 289 185 289 283 l 289 0 l 72 0 l 72 740 l 363 740 l 561 211 q 532 384 540 322 q 524 544 524 446 l 524 740 l 740 740 l 740 0 z "},"ɶ":{"ha":1072,"x_min":35,"x_max":1047,"o":"m 760 293 q 703 168 743 221 l 1040 168 l 1040 0 l 547 0 q 406 -25 481 -25 q 133 79 232 -25 q 35 371 35 183 q 79 579 35 490 q 208 717 124 668 q 406 765 292 765 q 550 740 472 765 l 1047 740 l 1022 572 l 706 572 q 758 456 742 518 l 988 456 l 988 293 l 760 293 m 406 154 q 492 206 464 154 q 521 371 521 257 q 492 535 521 485 q 406 586 464 586 q 317 534 346 586 q 289 371 289 482 q 317 205 289 256 q 406 154 346 154 z "},"ʀ":{"ha":738,"x_min":72,"x_max":746,"o":"m 356 247 l 308 247 l 308 0 l 72 0 l 72 740 l 357 740 q 688 490 688 740 q 658 367 688 421 q 569 282 629 314 l 746 0 l 488 0 l 356 247 m 308 390 l 354 390 q 427 413 404 390 q 450 492 450 435 q 426 566 450 546 q 351 586 403 586 l 308 586 l 308 390 z "},"ʁ":{"ha":738,"x_min":72,"x_max":746,"o":"m 571 458 q 658 375 629 428 q 688 254 688 322 q 357 0 688 0 l 72 0 l 72 740 l 308 740 l 308 493 l 356 493 l 488 740 l 746 740 l 571 458 m 351 154 q 426 175 403 154 q 450 253 450 196 q 427 328 450 307 q 354 350 404 350 l 308 350 l 308 154 l 351 154 z "},"ʏ":{"ha":708,"x_min":-22,"x_max":731,"o":"m 731 740 l 478 265 l 478 0 l 231 0 l 231 264 l -22 740 l 240 740 l 358 419 l 475 740 l 731 740 z "},"a":{"ha":764,"x_min":29,"x_max":733,"o":"m 686 228 q 697 168 686 188 q 733 139 707 149 l 683 -21 q 567 8 613 -15 q 494 83 522 32 q 271 -25 424 -25 q 95 40 161 -25 q 29 207 29 104 q 119 394 29 329 q 381 460 210 460 l 444 460 l 444 485 q 419 566 444 544 q 329 588 394 588 q 242 577 294 588 q 136 549 190 567 l 82 708 q 225 751 149 736 q 367 765 301 765 q 610 699 533 765 q 686 497 686 633 l 686 228 m 346 149 q 402 165 376 149 q 444 208 428 181 l 444 328 l 403 328 q 304 303 336 328 q 272 231 272 279 q 292 171 272 193 q 346 149 311 149 z "},"á":{"ha":764,"x_min":29,"x_max":733,"o":"m 686 228 q 697 168 686 188 q 733 139 707 149 l 683 -21 q 567 8 613 -15 q 494 83 522 32 q 271 -25 424 -25 q 95 40 161 -25 q 29 207 29 104 q 119 394 29 329 q 381 460 210 460 l 444 460 l 444 485 q 419 566 444 544 q 329 588 394 588 q 242 577 294 588 q 136 549 190 567 l 82 708 q 225 751 149 736 q 367 765 301 765 q 610 699 533 765 q 686 497 686 633 l 686 228 m 346 149 q 402 165 376 149 q 444 208 428 181 l 444 328 l 403 328 q 304 303 336 328 q 272 231 272 279 q 292 171 272 193 q 346 149 311 149 m 478 1175 l 572 992 l 233 858 l 167 982 l 478 1175 z "},"ă":{"ha":764,"x_min":29,"x_max":733,"o":"m 686 228 q 697 168 686 188 q 733 139 707 149 l 683 -21 q 567 8 613 -15 q 494 83 522 32 q 271 -25 424 -25 q 95 40 161 -25 q 29 207 29 104 q 119 394 29 329 q 381 460 210 460 l 444 460 l 444 485 q 419 566 444 544 q 329 588 394 588 q 242 577 294 588 q 136 549 190 567 l 82 708 q 225 751 149 736 q 367 765 301 765 q 610 699 533 765 q 686 497 686 633 l 686 228 m 346 149 q 402 165 376 149 q 444 208 428 181 l 444 328 l 403 328 q 304 303 336 328 q 272 231 272 279 q 292 171 272 193 q 346 149 311 149 m 379 874 q 204 947 268 874 q 132 1129 140 1019 l 264 1153 q 379 1043 292 1043 q 454 1072 425 1043 q 496 1153 483 1101 l 628 1129 q 555 947 619 1019 q 379 874 490 874 z "},"ắ":{"ha":764,"x_min":29,"x_max":733,"o":"m 686 228 q 697 168 686 188 q 733 139 707 149 l 683 -21 q 567 8 613 -15 q 494 83 522 32 q 271 -25 424 -25 q 95 40 161 -25 q 29 207 29 104 q 119 394 29 329 q 381 460 210 460 l 444 460 l 444 485 q 419 566 444 544 q 329 588 394 588 q 242 577 294 588 q 136 549 190 567 l 82 708 q 225 751 149 736 q 367 765 301 765 q 610 699 533 765 q 686 497 686 633 l 686 228 m 346 149 q 402 165 376 149 q 444 208 428 181 l 444 328 l 403 328 q 304 303 336 328 q 272 231 272 279 q 292 171 272 193 q 346 149 311 149 m 381 836 q 207 907 271 836 q 133 1078 143 978 l 265 1101 q 308 1032 279 1058 q 381 1006 336 1006 q 456 1032 426 1006 q 497 1101 485 1058 l 629 1078 q 556 907 619 978 q 381 836 492 836 m 482 1406 l 614 1276 l 385 1076 l 293 1158 l 482 1406 z "},"ặ":{"ha":764,"x_min":29,"x_max":733,"o":"m 686 228 q 697 168 686 188 q 733 139 707 149 l 683 -21 q 567 8 613 -15 q 494 83 522 32 q 271 -25 424 -25 q 95 40 161 -25 q 29 207 29 104 q 119 394 29 329 q 381 460 210 460 l 444 460 l 444 485 q 419 566 444 544 q 329 588 394 588 q 242 577 294 588 q 136 549 190 567 l 82 708 q 225 751 149 736 q 367 765 301 765 q 610 699 533 765 q 686 497 686 633 l 686 228 m 346 149 q 402 165 376 149 q 444 208 428 181 l 444 328 l 403 328 q 304 303 336 328 q 272 231 272 279 q 292 171 272 193 q 346 149 311 149 m 379 874 q 204 947 268 874 q 132 1129 140 1019 l 264 1153 q 379 1043 292 1043 q 454 1072 425 1043 q 496 1153 483 1101 l 628 1129 q 555 947 619 1019 q 379 874 490 874 m 381 -350 q 278 -311 318 -350 q 239 -214 239 -272 q 278 -117 239 -156 q 381 -78 318 -78 q 483 -117 443 -78 q 522 -214 522 -156 q 483 -311 522 -272 q 381 -350 443 -350 z "},"ằ":{"ha":764,"x_min":29,"x_max":733,"o":"m 686 228 q 697 168 686 188 q 733 139 707 149 l 683 -21 q 567 8 613 -15 q 494 83 522 32 q 271 -25 424 -25 q 95 40 161 -25 q 29 207 29 104 q 119 394 29 329 q 381 460 210 460 l 444 460 l 444 485 q 419 566 444 544 q 329 588 394 588 q 242 577 294 588 q 136 549 190 567 l 82 708 q 225 751 149 736 q 367 765 301 765 q 610 699 533 765 q 686 497 686 633 l 686 228 m 346 149 q 402 165 376 149 q 444 208 428 181 l 444 328 l 403 328 q 304 303 336 328 q 272 231 272 279 q 292 171 272 193 q 346 149 311 149 m 381 836 q 207 907 271 836 q 133 1078 143 978 l 265 1101 q 308 1032 279 1058 q 381 1006 336 1006 q 456 1032 426 1006 q 497 1101 485 1058 l 629 1078 q 556 907 619 978 q 381 836 492 836 m 276 1406 l 465 1158 l 372 1076 l 144 1276 l 276 1406 z "},"ẳ":{"ha":764,"x_min":29,"x_max":733,"o":"m 686 228 q 697 168 686 188 q 733 139 707 149 l 683 -21 q 567 8 613 -15 q 494 83 522 32 q 271 -25 424 -25 q 95 40 161 -25 q 29 207 29 104 q 119 394 29 329 q 381 460 210 460 l 444 460 l 444 485 q 419 566 444 544 q 329 588 394 588 q 242 577 294 588 q 136 549 190 567 l 82 708 q 225 751 149 736 q 367 765 301 765 q 610 699 533 765 q 686 497 686 633 l 686 228 m 346 149 q 402 165 376 149 q 444 208 428 181 l 444 328 l 403 328 q 304 303 336 328 q 272 231 272 279 q 292 171 272 193 q 346 149 311 149 m 381 836 q 207 907 271 836 q 133 1078 143 978 l 265 1101 q 308 1032 279 1058 q 381 1006 336 1006 q 456 1032 426 1006 q 497 1101 485 1058 l 629 1078 q 556 907 619 978 q 381 836 492 836 m 311 1222 q 387 1236 364 1225 q 410 1274 410 1247 q 395 1303 410 1293 q 357 1314 381 1314 q 315 1310 333 1314 q 272 1296 296 1306 l 233 1393 q 390 1431 297 1431 q 524 1390 476 1431 q 571 1285 571 1350 q 540 1197 571 1231 q 453 1153 510 1164 l 453 1082 l 311 1082 l 311 1222 z "},"ẵ":{"ha":764,"x_min":29,"x_max":733,"o":"m 686 228 q 697 168 686 188 q 733 139 707 149 l 683 -21 q 567 8 613 -15 q 494 83 522 32 q 271 -25 424 -25 q 95 40 161 -25 q 29 207 29 104 q 119 394 29 329 q 381 460 210 460 l 444 460 l 444 485 q 419 566 444 544 q 329 588 394 588 q 242 577 294 588 q 136 549 190 567 l 82 708 q 225 751 149 736 q 367 765 301 765 q 610 699 533 765 q 686 497 686 633 l 686 228 m 346 149 q 402 165 376 149 q 444 208 428 181 l 444 328 l 403 328 q 304 303 336 328 q 272 231 272 279 q 292 171 272 193 q 346 149 311 149 m 379 836 q 206 907 269 836 q 132 1078 142 978 l 264 1101 q 306 1032 278 1058 q 379 1006 335 1006 q 454 1032 425 1006 q 496 1101 483 1058 l 628 1078 q 554 907 618 978 q 379 836 490 836 m 463 1136 q 406 1145 431 1136 q 358 1171 382 1154 q 331 1185 344 1179 q 304 1192 317 1192 q 264 1179 279 1192 q 231 1138 249 1167 l 111 1192 q 188 1308 139 1263 q 299 1353 236 1353 q 356 1344 332 1353 q 406 1318 379 1335 q 433 1303 419 1310 q 460 1297 447 1297 q 498 1310 482 1297 q 532 1351 514 1322 l 651 1299 q 574 1181 622 1226 q 463 1136 525 1136 z "},"ǎ":{"ha":764,"x_min":29,"x_max":733,"o":"m 686 228 q 697 168 686 188 q 733 139 707 149 l 683 -21 q 567 8 613 -15 q 494 83 522 32 q 271 -25 424 -25 q 95 40 161 -25 q 29 207 29 104 q 119 394 29 329 q 381 460 210 460 l 444 460 l 444 485 q 419 566 444 544 q 329 588 394 588 q 242 577 294 588 q 136 549 190 567 l 82 708 q 225 751 149 736 q 367 765 301 765 q 610 699 533 765 q 686 497 686 633 l 686 228 m 346 149 q 402 165 376 149 q 444 208 428 181 l 444 328 l 403 328 q 304 303 336 328 q 272 231 272 279 q 292 171 272 193 q 346 149 311 149 m 568 1142 l 654 1043 l 456 843 l 306 843 l 107 1043 l 193 1142 l 381 1011 l 568 1142 z "},"â":{"ha":764,"x_min":29,"x_max":733,"o":"m 686 228 q 697 168 686 188 q 733 139 707 149 l 683 -21 q 567 8 613 -15 q 494 83 522 32 q 271 -25 424 -25 q 95 40 161 -25 q 29 207 29 104 q 119 394 29 329 q 381 460 210 460 l 444 460 l 444 485 q 419 566 444 544 q 329 588 394 588 q 242 577 294 588 q 136 549 190 567 l 82 708 q 225 751 149 736 q 367 765 301 765 q 610 699 533 765 q 686 497 686 633 l 686 228 m 346 149 q 402 165 376 149 q 444 208 428 181 l 444 328 l 403 328 q 304 303 336 328 q 272 231 272 279 q 292 171 272 193 q 346 149 311 149 m 193 856 l 107 954 l 306 1154 l 454 1154 l 654 954 l 568 856 l 381 986 l 193 856 z "},"ấ":{"ha":764,"x_min":29,"x_max":847,"o":"m 686 228 q 697 168 686 188 q 733 139 707 149 l 683 -21 q 567 8 613 -15 q 494 83 522 32 q 271 -25 424 -25 q 95 40 161 -25 q 29 207 29 104 q 119 394 29 329 q 381 460 210 460 l 444 460 l 444 485 q 419 566 444 544 q 329 588 394 588 q 242 577 294 588 q 136 549 190 567 l 82 708 q 225 751 149 736 q 367 765 301 765 q 610 699 533 765 q 686 497 686 633 l 686 228 m 346 149 q 402 165 376 149 q 444 208 428 181 l 444 328 l 403 328 q 304 303 336 328 q 272 231 272 279 q 292 171 272 193 q 346 149 311 149 m 192 810 l 106 908 l 304 1096 l 454 1096 l 653 908 l 567 810 l 379 928 l 192 810 m 715 1356 l 847 1226 l 618 1026 l 526 1108 l 715 1356 z "},"ậ":{"ha":764,"x_min":29,"x_max":733,"o":"m 686 228 q 697 168 686 188 q 733 139 707 149 l 683 -21 q 567 8 613 -15 q 494 83 522 32 q 271 -25 424 -25 q 95 40 161 -25 q 29 207 29 104 q 119 394 29 329 q 381 460 210 460 l 444 460 l 444 485 q 419 566 444 544 q 329 588 394 588 q 242 577 294 588 q 136 549 190 567 l 82 708 q 225 751 149 736 q 367 765 301 765 q 610 699 533 765 q 686 497 686 633 l 686 228 m 346 149 q 402 165 376 149 q 444 208 428 181 l 444 328 l 403 328 q 304 303 336 328 q 272 231 272 279 q 292 171 272 193 q 346 149 311 149 m 193 856 l 107 954 l 306 1154 l 454 1154 l 654 954 l 568 856 l 381 986 l 193 856 m 381 -350 q 278 -311 318 -350 q 239 -214 239 -272 q 278 -117 239 -156 q 381 -78 318 -78 q 483 -117 443 -78 q 522 -214 522 -156 q 483 -311 522 -272 q 381 -350 443 -350 z "},"ầ":{"ha":764,"x_min":-86,"x_max":733,"o":"m 686 228 q 697 168 686 188 q 733 139 707 149 l 683 -21 q 567 8 613 -15 q 494 83 522 32 q 271 -25 424 -25 q 95 40 161 -25 q 29 207 29 104 q 119 394 29 329 q 381 460 210 460 l 444 460 l 444 485 q 419 566 444 544 q 329 588 394 588 q 242 577 294 588 q 136 549 190 567 l 82 708 q 225 751 149 736 q 367 765 301 765 q 610 699 533 765 q 686 497 686 633 l 686 228 m 346 149 q 402 165 376 149 q 444 208 428 181 l 444 328 l 403 328 q 304 303 336 328 q 272 231 272 279 q 292 171 272 193 q 346 149 311 149 m 192 810 l 106 908 l 304 1096 l 454 1096 l 653 908 l 567 810 l 379 928 l 192 810 m 46 1356 l 235 1108 l 142 1026 l -86 1226 l 46 1356 z "},"ẩ":{"ha":764,"x_min":29,"x_max":782,"o":"m 686 228 q 697 168 686 188 q 733 139 707 149 l 683 -21 q 567 8 613 -15 q 494 83 522 32 q 271 -25 424 -25 q 95 40 161 -25 q 29 207 29 104 q 119 394 29 329 q 381 460 210 460 l 444 460 l 444 485 q 419 566 444 544 q 329 588 394 588 q 242 577 294 588 q 136 549 190 567 l 82 708 q 225 751 149 736 q 367 765 301 765 q 610 699 533 765 q 686 497 686 633 l 686 228 m 346 149 q 402 165 376 149 q 444 208 428 181 l 444 328 l 403 328 q 304 303 336 328 q 272 231 272 279 q 292 171 272 193 q 346 149 311 149 m 192 810 l 106 908 l 304 1096 l 454 1096 l 653 908 l 567 810 l 379 928 l 192 810 m 522 1203 q 598 1217 575 1206 q 621 1254 621 1228 q 606 1284 621 1274 q 568 1294 592 1294 q 526 1290 544 1294 q 483 1276 507 1286 l 444 1374 q 601 1411 508 1411 q 735 1371 688 1411 q 782 1265 782 1331 q 751 1178 782 1211 q 664 1133 721 1144 l 664 1063 l 522 1063 l 522 1203 z "},"ẫ":{"ha":764,"x_min":29,"x_max":733,"o":"m 686 228 q 697 168 686 188 q 733 139 707 149 l 683 -21 q 567 8 613 -15 q 494 83 522 32 q 271 -25 424 -25 q 95 40 161 -25 q 29 207 29 104 q 119 394 29 329 q 381 460 210 460 l 444 460 l 444 485 q 419 566 444 544 q 329 588 394 588 q 242 577 294 588 q 136 549 190 567 l 82 708 q 225 751 149 736 q 367 765 301 765 q 610 699 533 765 q 686 497 686 633 l 686 228 m 346 149 q 402 165 376 149 q 444 208 428 181 l 444 328 l 403 328 q 304 303 336 328 q 272 231 272 279 q 292 171 272 193 q 346 149 311 149 m 192 807 l 106 906 l 304 1093 l 454 1093 l 653 906 l 567 807 l 379 925 l 192 807 m 460 1129 q 403 1138 428 1129 q 356 1164 379 1147 q 328 1178 342 1172 q 301 1185 314 1185 q 261 1172 276 1185 q 228 1131 246 1160 l 108 1185 q 185 1301 136 1256 q 296 1346 233 1346 q 353 1337 329 1346 q 403 1311 376 1328 q 431 1297 417 1303 q 457 1290 444 1290 q 495 1303 479 1290 q 529 1344 511 1315 l 649 1292 q 571 1174 619 1219 q 460 1129 522 1129 z "},"ȁ":{"ha":764,"x_min":29,"x_max":733,"o":"m 686 228 q 697 168 686 188 q 733 139 707 149 l 683 -21 q 567 8 613 -15 q 494 83 522 32 q 271 -25 424 -25 q 95 40 161 -25 q 29 207 29 104 q 119 394 29 329 q 381 460 210 460 l 444 460 l 444 485 q 419 566 444 544 q 329 588 394 588 q 242 577 294 588 q 136 549 190 567 l 82 708 q 225 751 149 736 q 367 765 301 765 q 610 699 533 765 q 686 497 686 633 l 686 228 m 346 149 q 402 165 376 149 q 444 208 428 181 l 444 328 l 403 328 q 304 303 336 328 q 272 231 272 279 q 292 171 272 193 q 346 149 311 149 m 214 1207 l 353 924 l 229 865 l 54 1126 l 214 1207 m 467 1207 l 596 921 l 469 871 l 306 1132 l 467 1207 z "},"ä":{"ha":764,"x_min":29,"x_max":733,"o":"m 686 228 q 697 168 686 188 q 733 139 707 149 l 683 -21 q 567 8 613 -15 q 494 83 522 32 q 271 -25 424 -25 q 95 40 161 -25 q 29 207 29 104 q 119 394 29 329 q 381 460 210 460 l 444 460 l 444 485 q 419 566 444 544 q 329 588 394 588 q 242 577 294 588 q 136 549 190 567 l 82 708 q 225 751 149 736 q 367 765 301 765 q 610 699 533 765 q 686 497 686 633 l 686 228 m 346 149 q 402 165 376 149 q 444 208 428 181 l 444 328 l 403 328 q 304 303 336 328 q 272 231 272 279 q 292 171 272 193 q 346 149 311 149 m 214 1124 q 301 1089 265 1124 q 336 1004 336 1054 q 301 919 336 954 q 214 885 265 885 q 128 919 164 885 q 92 1004 92 954 q 128 1089 92 1054 q 214 1124 164 1124 m 544 1124 q 631 1089 596 1124 q 667 1004 667 1054 q 631 919 667 954 q 544 885 596 885 q 458 919 494 885 q 422 1004 422 954 q 458 1089 422 1054 q 544 1124 494 1124 z "},"ǟ":{"ha":764,"x_min":29,"x_max":733,"o":"m 686 228 q 697 168 686 188 q 733 139 707 149 l 683 -21 q 567 8 613 -15 q 494 83 522 32 q 271 -25 424 -25 q 95 40 161 -25 q 29 207 29 104 q 119 394 29 329 q 381 460 210 460 l 444 460 l 444 485 q 419 566 444 544 q 329 588 394 588 q 242 577 294 588 q 136 549 190 567 l 82 708 q 225 751 149 736 q 367 765 301 765 q 610 699 533 765 q 686 497 686 633 l 686 228 m 346 149 q 402 165 376 149 q 444 208 428 181 l 444 328 l 403 328 q 304 303 336 328 q 272 231 272 279 q 292 171 272 193 q 346 149 311 149 m 214 1065 q 301 1031 265 1065 q 336 946 336 996 q 301 861 336 896 q 214 826 265 826 q 128 861 164 826 q 92 946 92 896 q 128 1031 92 996 q 214 1065 164 1065 m 544 1065 q 631 1031 596 1065 q 667 946 667 996 q 631 861 667 896 q 544 826 596 826 q 458 861 494 826 q 422 946 422 896 q 458 1031 422 996 q 544 1065 494 1065 m 599 1117 l 161 1117 l 161 1285 l 599 1285 l 599 1117 z "},"ȧ":{"ha":764,"x_min":29,"x_max":733,"o":"m 686 228 q 697 168 686 188 q 733 139 707 149 l 683 -21 q 567 8 613 -15 q 494 83 522 32 q 271 -25 424 -25 q 95 40 161 -25 q 29 207 29 104 q 119 394 29 329 q 381 460 210 460 l 444 460 l 444 485 q 419 566 444 544 q 329 588 394 588 q 242 577 294 588 q 136 549 190 567 l 82 708 q 225 751 149 736 q 367 765 301 765 q 610 699 533 765 q 686 497 686 633 l 686 228 m 346 149 q 402 165 376 149 q 444 208 428 181 l 444 328 l 403 328 q 304 303 336 328 q 272 231 272 279 q 292 171 272 193 q 346 149 311 149 m 381 1139 q 483 1100 443 1139 q 522 1003 522 1061 q 483 906 522 944 q 381 867 443 867 q 278 906 318 867 q 239 1003 239 944 q 278 1100 239 1061 q 381 1139 318 1139 z "},"ạ":{"ha":764,"x_min":29,"x_max":733,"o":"m 686 228 q 697 168 686 188 q 733 139 707 149 l 683 -21 q 567 8 613 -15 q 494 83 522 32 q 271 -25 424 -25 q 95 40 161 -25 q 29 207 29 104 q 119 394 29 329 q 381 460 210 460 l 444 460 l 444 485 q 419 566 444 544 q 329 588 394 588 q 242 577 294 588 q 136 549 190 567 l 82 708 q 225 751 149 736 q 367 765 301 765 q 610 699 533 765 q 686 497 686 633 l 686 228 m 346 149 q 402 165 376 149 q 444 208 428 181 l 444 328 l 403 328 q 304 303 336 328 q 272 231 272 279 q 292 171 272 193 q 346 149 311 149 m 381 -350 q 278 -311 318 -350 q 239 -214 239 -272 q 278 -117 239 -156 q 381 -78 318 -78 q 483 -117 443 -78 q 522 -214 522 -156 q 483 -311 522 -272 q 381 -350 443 -350 z "},"ǡ":{"ha":764,"x_min":29,"x_max":733,"o":"m 686 228 q 697 168 686 188 q 733 139 707 149 l 683 -21 q 567 8 613 -15 q 494 83 522 32 q 271 -25 424 -25 q 95 40 161 -25 q 29 207 29 104 q 119 394 29 329 q 381 460 210 460 l 444 460 l 444 485 q 419 566 444 544 q 329 588 394 588 q 242 577 294 588 q 136 549 190 567 l 82 708 q 225 751 149 736 q 367 765 301 765 q 610 699 533 765 q 686 497 686 633 l 686 228 m 346 149 q 402 165 376 149 q 444 208 428 181 l 444 328 l 403 328 q 304 303 336 328 q 272 231 272 279 q 292 171 272 193 q 346 149 311 149 m 379 1092 q 481 1053 442 1092 q 521 956 521 1014 q 481 858 521 897 q 379 819 442 819 q 277 858 317 819 q 238 956 238 897 q 277 1053 238 1014 q 379 1092 317 1092 m 599 1132 l 161 1132 l 161 1300 l 599 1300 l 599 1132 z "},"à":{"ha":764,"x_min":29,"x_max":733,"o":"m 686 228 q 697 168 686 188 q 733 139 707 149 l 683 -21 q 567 8 613 -15 q 494 83 522 32 q 271 -25 424 -25 q 95 40 161 -25 q 29 207 29 104 q 119 394 29 329 q 381 460 210 460 l 444 460 l 444 485 q 419 566 444 544 q 329 588 394 588 q 242 577 294 588 q 136 549 190 567 l 82 708 q 225 751 149 736 q 367 765 301 765 q 610 699 533 765 q 686 497 686 633 l 686 228 m 346 149 q 402 165 376 149 q 444 208 428 181 l 444 328 l 403 328 q 304 303 336 328 q 272 231 272 279 q 292 171 272 193 q 346 149 311 149 m 286 1175 l 597 982 l 531 858 l 192 992 l 286 1175 z "},"ả":{"ha":764,"x_min":29,"x_max":733,"o":"m 686 228 q 697 168 686 188 q 733 139 707 149 l 683 -21 q 567 8 613 -15 q 494 83 522 32 q 271 -25 424 -25 q 95 40 161 -25 q 29 207 29 104 q 119 394 29 329 q 381 460 210 460 l 444 460 l 444 485 q 419 566 444 544 q 329 588 394 588 q 242 577 294 588 q 136 549 190 567 l 82 708 q 225 751 149 736 q 367 765 301 765 q 610 699 533 765 q 686 497 686 633 l 686 228 m 346 149 q 402 165 376 149 q 444 208 428 181 l 444 328 l 403 328 q 304 303 336 328 q 272 231 272 279 q 292 171 272 193 q 346 149 311 149 m 310 978 q 385 992 363 981 q 408 1029 408 1003 q 394 1059 408 1049 q 356 1069 379 1069 q 313 1065 332 1069 q 271 1051 294 1061 l 232 1149 q 389 1186 296 1186 q 522 1146 475 1186 q 569 1040 569 1106 q 539 953 569 986 q 451 908 508 919 l 451 838 l 310 838 l 310 978 z "},"ȃ":{"ha":764,"x_min":29,"x_max":733,"o":"m 686 228 q 697 168 686 188 q 733 139 707 149 l 683 -21 q 567 8 613 -15 q 494 83 522 32 q 271 -25 424 -25 q 95 40 161 -25 q 29 207 29 104 q 119 394 29 329 q 381 460 210 460 l 444 460 l 444 485 q 419 566 444 544 q 329 588 394 588 q 242 577 294 588 q 136 549 190 567 l 82 708 q 225 751 149 736 q 367 765 301 765 q 610 699 533 765 q 686 497 686 633 l 686 228 m 346 149 q 402 165 376 149 q 444 208 428 181 l 444 328 l 403 328 q 304 303 336 328 q 272 231 272 279 q 292 171 272 193 q 346 149 311 149 m 379 1108 q 555 1035 490 1108 q 628 853 619 963 l 496 829 q 454 910 483 881 q 379 939 425 939 q 264 829 292 939 l 132 853 q 204 1035 140 963 q 379 1108 268 1108 z "},"ɑ":{"ha":829,"x_min":35,"x_max":808,"o":"m 750 264 q 763 192 750 217 q 808 151 775 168 l 738 -25 q 612 13 660 -14 q 536 86 564 40 q 442 5 497 35 q 319 -25 386 -25 q 108 81 181 -25 q 35 372 35 188 q 72 576 35 488 q 180 715 110 665 q 344 765 250 765 q 522 682 454 765 l 535 740 l 750 740 l 750 264 m 392 153 q 503 226 458 153 l 503 535 q 456 574 479 561 q 403 588 432 588 q 289 371 289 588 q 316 199 289 246 q 392 153 343 153 z "},"ɒ":{"ha":829,"x_min":21,"x_max":794,"o":"m 510 765 q 722 659 649 765 q 794 368 794 553 q 757 164 794 253 q 649 25 719 75 q 485 -25 579 -25 q 307 58 376 -25 l 294 0 l 79 0 l 79 476 q 67 548 79 524 q 21 589 54 572 l 92 765 q 217 727 169 754 q 293 654 265 700 q 388 735 332 706 q 510 765 443 765 m 426 153 q 540 369 540 153 q 513 541 540 494 q 438 588 486 588 q 326 514 371 588 l 326 206 q 374 166 350 179 q 426 153 397 153 z "},"ā":{"ha":764,"x_min":29,"x_max":733,"o":"m 686 228 q 697 168 686 188 q 733 139 707 149 l 683 -21 q 567 8 613 -15 q 494 83 522 32 q 271 -25 424 -25 q 95 40 161 -25 q 29 207 29 104 q 119 394 29 329 q 381 460 210 460 l 444 460 l 444 485 q 419 566 444 544 q 329 588 394 588 q 242 577 294 588 q 136 549 190 567 l 82 708 q 225 751 149 736 q 367 765 301 765 q 610 699 533 765 q 686 497 686 633 l 686 228 m 346 149 q 402 165 376 149 q 444 208 428 181 l 444 328 l 403 328 q 304 303 336 328 q 272 231 272 279 q 292 171 272 193 q 346 149 311 149 m 599 906 l 161 906 l 161 1074 l 599 1074 l 599 906 z "},"ą":{"ha":764,"x_min":29,"x_max":733,"o":"m 683 -21 q 522 -158 522 -78 q 594 -219 522 -219 q 679 -210 635 -219 l 663 -357 q 563 -368 615 -368 q 410 -322 469 -368 q 350 -200 350 -276 q 401 -68 350 -122 q 543 24 451 -14 q 494 83 513 47 q 271 -25 424 -25 q 95 40 161 -25 q 29 207 29 104 q 119 394 29 329 q 381 460 210 460 l 444 460 l 444 485 q 419 566 444 544 q 329 588 394 588 q 242 577 294 588 q 136 549 190 567 l 82 708 q 225 751 149 736 q 367 765 301 765 q 610 699 533 765 q 686 497 686 633 l 686 228 q 697 168 686 188 q 733 139 707 149 l 683 -21 m 346 149 q 402 165 376 149 q 444 208 428 181 l 444 328 l 403 328 q 304 303 336 328 q 272 231 272 279 q 292 171 272 193 q 346 149 311 149 z "},"å":{"ha":764,"x_min":29,"x_max":733,"o":"m 686 228 q 697 168 686 188 q 733 139 707 149 l 683 -21 q 567 8 613 -15 q 494 83 522 32 q 271 -25 424 -25 q 95 40 161 -25 q 29 207 29 104 q 119 394 29 329 q 381 460 210 460 l 444 460 l 444 485 q 419 566 444 544 q 329 588 394 588 q 242 577 294 588 q 136 549 190 567 l 82 708 q 225 751 149 736 q 367 765 301 765 q 610 699 533 765 q 686 497 686 633 l 686 228 m 346 149 q 402 165 376 149 q 444 208 428 181 l 444 328 l 403 328 q 304 303 336 328 q 272 231 272 279 q 292 171 272 193 q 346 149 311 149 m 381 1218 q 529 1162 474 1218 q 585 1025 585 1106 q 560 929 585 974 q 489 858 535 885 q 381 832 443 832 q 274 858 319 832 q 203 929 228 885 q 178 1025 178 974 q 233 1162 178 1106 q 381 1218 289 1218 m 381 1092 q 338 1075 354 1092 q 322 1025 322 1058 q 338 976 322 993 q 381 958 354 958 q 424 976 407 958 q 440 1025 440 993 q 424 1075 440 1058 q 381 1092 408 1092 z "},"ǻ":{"ha":764,"x_min":29,"x_max":733,"o":"m 583 1313 l 240 1189 l 178 1314 l 494 1494 l 583 1313 m 378 799 q 271 825 317 799 q 200 896 225 851 q 175 992 175 940 q 231 1128 175 1072 q 378 1185 286 1185 q 526 1128 471 1185 q 582 992 582 1072 q 557 896 582 940 q 486 825 532 851 q 378 799 440 799 m 378 1058 q 335 1042 351 1058 q 319 992 319 1025 q 335 942 319 960 q 378 925 351 925 q 421 942 404 925 q 438 992 438 960 q 422 1042 438 1025 q 378 1058 406 1058 m 686 228 q 697 168 686 188 q 733 139 707 149 l 683 -21 q 567 8 613 -15 q 494 83 522 32 q 271 -25 424 -25 q 95 40 161 -25 q 29 207 29 104 q 119 394 29 329 q 381 460 210 460 l 444 460 l 444 485 q 419 566 444 544 q 329 588 394 588 q 242 577 294 588 q 136 549 190 567 l 82 708 q 225 751 149 736 q 367 765 301 765 q 610 699 533 765 q 686 497 686 633 l 686 228 m 346 149 q 402 165 376 149 q 444 208 428 181 l 444 328 l 403 328 q 304 303 336 328 q 272 231 272 279 q 292 171 272 193 q 346 149 311 149 z "},"ⱥ":{"ha":764,"x_min":29,"x_max":733,"o":"m 686 228 q 697 168 686 188 q 733 139 707 149 l 683 -21 q 567 8 613 -15 q 494 83 522 32 q 324 -21 435 -7 l 303 -106 l 225 -87 l 240 -24 q 87 49 144 -14 q 29 207 29 111 q 113 380 29 317 q 354 449 197 443 l 392 604 q 363 606 382 606 q 253 595 317 606 q 136 567 189 585 l 82 708 q 225 751 149 736 q 367 765 301 765 q 429 763 390 765 l 447 836 l 525 819 l 508 750 q 643 663 600 725 q 686 497 686 600 l 686 228 m 478 501 q 465 568 478 546 l 436 449 l 478 449 l 478 501 m 361 140 q 478 204 424 150 l 478 328 l 407 328 l 361 140 m 250 225 q 282 150 250 169 l 324 321 q 250 225 250 303 z "},"ã":{"ha":764,"x_min":29,"x_max":733,"o":"m 686 228 q 697 168 686 188 q 733 139 707 149 l 683 -21 q 567 8 613 -15 q 494 83 522 32 q 271 -25 424 -25 q 95 40 161 -25 q 29 207 29 104 q 119 394 29 329 q 381 460 210 460 l 444 460 l 444 485 q 419 566 444 544 q 329 588 394 588 q 242 577 294 588 q 136 549 190 567 l 82 708 q 225 751 149 736 q 367 765 301 765 q 610 699 533 765 q 686 497 686 633 l 686 228 m 346 149 q 402 165 376 149 q 444 208 428 181 l 444 328 l 403 328 q 304 303 336 328 q 272 231 272 279 q 292 171 272 193 q 346 149 311 149 m 461 872 q 406 882 429 872 q 357 910 383 892 q 329 926 343 919 q 303 933 315 933 q 263 919 278 933 q 229 874 247 906 l 110 932 q 186 1058 138 1008 q 297 1108 235 1108 q 354 1099 331 1108 q 404 1071 378 1089 q 432 1054 418 1061 q 458 1047 446 1047 q 497 1061 482 1047 q 531 1107 513 1075 l 650 1049 q 572 922 621 971 q 461 872 524 872 z "},"ɐ":{"ha":764,"x_min":31,"x_max":735,"o":"m 435 153 q 522 163 469 153 q 628 192 574 174 l 682 32 q 539 -10 615 4 q 397 -25 463 -25 q 154 41 231 -25 q 78 243 78 107 l 78 513 q 67 572 78 553 q 31 601 57 592 l 81 761 q 197 732 151 756 q 269 657 242 708 q 493 765 340 765 q 669 701 603 765 q 735 533 735 636 q 644 346 735 411 q 383 281 554 281 l 319 281 l 319 256 q 344 174 319 196 q 435 153 369 153 m 418 592 q 362 576 388 592 q 319 532 336 560 l 319 413 l 361 413 q 460 437 428 413 q 492 510 492 461 q 472 569 492 547 q 418 592 453 592 z "},"æ":{"ha":1190,"x_min":29,"x_max":1164,"o":"m 1164 382 q 1158 299 1164 349 l 706 299 q 754 183 715 214 q 863 151 793 151 q 945 167 904 151 q 1035 217 986 183 l 1136 81 q 840 -25 1006 -25 q 664 8 740 -25 q 538 99 588 40 q 276 -25 451 -25 q 96 39 163 -25 q 29 207 29 103 q 121 394 29 329 q 390 460 213 460 l 454 460 l 454 482 q 428 564 454 542 q 339 586 403 586 q 252 576 304 586 q 146 547 200 565 l 92 708 q 235 751 158 736 q 376 765 311 765 q 604 676 531 765 q 831 765 693 765 q 1003 720 928 765 q 1122 588 1079 675 q 1164 382 1164 501 m 919 451 q 895 565 918 525 q 817 606 872 606 q 738 569 765 606 q 704 443 711 532 l 919 443 l 919 451 m 358 149 q 418 168 392 149 q 472 226 444 188 q 458 315 461 265 l 458 322 l 414 322 q 319 299 350 322 q 288 226 288 276 q 306 169 288 190 q 358 149 325 149 z "},"ǽ":{"ha":1190,"x_min":29,"x_max":1164,"o":"m 1164 382 q 1158 299 1164 349 l 706 299 q 754 183 715 214 q 863 151 793 151 q 945 167 904 151 q 1035 217 986 183 l 1136 81 q 840 -25 1006 -25 q 664 8 740 -25 q 538 99 588 40 q 276 -25 451 -25 q 96 39 163 -25 q 29 207 29 103 q 121 394 29 329 q 390 460 213 460 l 454 460 l 454 482 q 428 564 454 542 q 339 586 403 586 q 252 576 304 586 q 146 547 200 565 l 92 708 q 235 751 158 736 q 376 765 311 765 q 604 676 531 765 q 831 765 693 765 q 1003 720 928 765 q 1122 588 1079 675 q 1164 382 1164 501 m 919 451 q 895 565 918 525 q 817 606 872 606 q 738 569 765 606 q 704 443 711 532 l 919 443 l 919 451 m 358 149 q 418 168 392 149 q 472 226 444 188 q 458 315 461 265 l 458 322 l 414 322 q 319 299 350 322 q 288 226 288 276 q 306 169 288 190 q 358 149 325 149 m 693 1175 l 788 992 l 449 858 l 382 982 l 693 1175 z "},"ǣ":{"ha":1190,"x_min":29,"x_max":1164,"o":"m 1164 382 q 1158 299 1164 349 l 706 299 q 754 183 715 214 q 863 151 793 151 q 945 167 904 151 q 1035 217 986 183 l 1136 81 q 840 -25 1006 -25 q 664 8 740 -25 q 538 99 588 40 q 276 -25 451 -25 q 96 39 163 -25 q 29 207 29 103 q 121 394 29 329 q 390 460 213 460 l 454 460 l 454 482 q 428 564 454 542 q 339 586 403 586 q 252 576 304 586 q 146 547 200 565 l 92 708 q 235 751 158 736 q 376 765 311 765 q 604 676 531 765 q 831 765 693 765 q 1003 720 928 765 q 1122 588 1079 675 q 1164 382 1164 501 m 919 451 q 895 565 918 525 q 817 606 872 606 q 738 569 765 606 q 704 443 711 532 l 919 443 l 919 451 m 358 149 q 418 168 392 149 q 472 226 444 188 q 458 315 461 265 l 458 322 l 414 322 q 319 299 350 322 q 288 226 288 276 q 306 169 288 190 q 358 149 325 149 m 814 906 l 376 906 l 376 1074 l 814 1074 l 814 906 z "},"b":{"ha":831,"x_min":72,"x_max":790,"o":"m 517 765 q 719 661 649 765 q 790 369 790 557 q 755 166 790 256 q 653 26 719 76 q 494 -25 586 -25 q 384 -1 433 -25 q 301 68 335 24 l 292 0 l 72 0 l 72 1032 l 319 1057 l 319 668 q 404 739 351 713 q 517 765 457 765 m 421 153 q 505 203 475 153 q 535 369 535 253 q 508 540 535 494 q 431 586 481 586 q 319 508 365 586 l 319 215 q 421 153 357 153 z "},"ḃ":{"ha":831,"x_min":72,"x_max":790,"o":"m 517 765 q 719 661 649 765 q 790 369 790 557 q 755 166 790 256 q 653 26 719 76 q 494 -25 586 -25 q 384 -1 433 -25 q 301 68 335 24 l 292 0 l 72 0 l 72 1032 l 319 1057 l 319 668 q 404 739 351 713 q 517 765 457 765 m 421 153 q 505 203 475 153 q 535 369 535 253 q 508 540 535 494 q 431 586 481 586 q 319 508 365 586 l 319 215 q 421 153 357 153 m 444 1381 q 547 1342 507 1381 q 586 1244 586 1303 q 547 1147 586 1186 q 444 1108 507 1108 q 342 1147 382 1108 q 303 1244 303 1186 q 342 1342 303 1303 q 444 1381 382 1381 z "},"ḅ":{"ha":831,"x_min":72,"x_max":790,"o":"m 517 765 q 719 661 649 765 q 790 369 790 557 q 755 166 790 256 q 653 26 719 76 q 494 -25 586 -25 q 384 -1 433 -25 q 301 68 335 24 l 292 0 l 72 0 l 72 1032 l 319 1057 l 319 668 q 404 739 351 713 q 517 765 457 765 m 421 153 q 505 203 475 153 q 535 369 535 253 q 508 540 535 494 q 431 586 481 586 q 319 508 365 586 l 319 215 q 421 153 357 153 m 428 -350 q 326 -311 365 -350 q 286 -214 286 -272 q 326 -117 286 -156 q 428 -78 365 -78 q 530 -117 490 -78 q 569 -214 569 -156 q 530 -311 569 -272 q 428 -350 490 -350 z "},"ꞵ":{"ha":846,"x_min":72,"x_max":818,"o":"m 550 564 q 740 492 661 551 q 818 290 818 432 q 778 126 818 197 q 665 15 738 54 q 503 -25 593 -25 q 310 32 396 -25 l 310 -278 l 72 -312 l 72 760 q 115 920 72 853 q 235 1022 158 988 q 410 1057 311 1057 q 585 1023 511 1057 q 699 929 660 989 q 738 793 738 869 q 690 644 738 704 q 550 564 643 585 m 432 161 q 531 199 494 161 q 568 313 568 236 q 526 435 568 400 q 411 471 483 471 l 361 471 l 375 635 l 397 635 q 472 669 446 635 q 499 769 499 704 q 406 886 499 886 q 335 856 360 886 q 310 763 310 825 l 310 188 q 432 161 360 161 z "},"ɓ":{"ha":831,"x_min":72,"x_max":790,"o":"m 511 765 q 719 662 649 765 q 790 369 790 558 q 755 166 790 256 q 653 26 719 76 q 494 -25 586 -25 q 384 -1 433 -25 q 301 68 335 24 l 292 0 l 72 0 l 72 793 q 149 983 72 910 q 369 1057 225 1057 q 483 1044 426 1057 q 581 1008 539 1031 l 514 853 q 401 878 458 878 q 339 856 358 878 q 319 782 319 835 l 319 669 q 403 739 350 713 q 511 765 456 765 m 424 153 q 506 203 476 153 q 535 369 535 253 q 508 540 535 494 q 432 586 482 586 q 319 508 365 586 l 319 215 q 424 153 357 153 z "},"ʭ":{"ha":517,"x_min":42,"x_max":475,"o":"m 42 557 l 42 792 l 475 792 l 475 557 l 332 557 l 332 669 l 186 669 l 186 557 l 42 557 m 42 1 l 42 236 l 475 236 l 475 1 l 332 1 l 332 114 l 186 114 l 186 1 l 42 1 z "},"ʘ":{"ha":1110,"x_min":38,"x_max":1074,"o":"m 556 990 q 827 928 710 990 q 1009 751 944 865 q 1074 483 1074 636 q 1008 221 1074 336 q 826 40 943 106 q 556 -25 708 -25 q 284 38 401 -25 q 102 215 167 100 q 38 483 38 331 q 103 746 38 631 q 285 926 168 861 q 556 990 403 990 m 556 822 q 351 740 424 822 q 279 483 279 657 q 351 226 279 310 q 556 143 424 143 q 832 483 832 143 q 758 738 832 654 q 556 822 683 822 m 558 596 q 643 563 610 596 q 676 482 676 531 q 643 401 676 433 q 558 368 610 368 q 472 401 506 368 q 439 482 439 433 q 472 563 439 531 q 558 596 506 596 z "},"ʬ":{"ha":651,"x_min":43,"x_max":610,"o":"m 610 928 l 528 556 l 376 556 l 332 825 l 282 556 l 132 556 l 43 928 l 156 928 l 213 638 l 265 928 l 403 928 l 453 636 l 504 928 l 610 928 m 610 372 l 528 0 l 376 0 l 332 269 l 282 0 l 132 0 l 43 372 l 156 372 l 213 82 l 265 372 l 403 372 l 453 81 l 504 372 l 610 372 z "},"ƀ":{"ha":843,"x_min":6,"x_max":803,"o":"m 529 765 q 732 661 661 765 q 803 369 803 557 q 767 166 803 256 q 665 26 732 76 q 507 -25 599 -25 q 397 -1 446 -25 q 314 68 347 24 l 304 0 l 85 0 l 85 824 l 6 824 l 6 961 l 85 961 l 85 1032 l 332 1057 l 332 961 l 508 961 l 508 824 l 332 824 l 332 668 q 417 739 364 713 q 529 765 469 765 m 433 153 q 517 203 488 153 q 547 369 547 253 q 520 540 547 494 q 443 586 493 586 q 332 508 378 586 l 332 215 q 433 153 369 153 z "},"ƃ":{"ha":831,"x_min":72,"x_max":790,"o":"m 511 743 q 719 641 649 743 q 790 358 790 539 q 755 163 790 250 q 652 25 719 75 q 494 -25 585 -25 q 384 -1 433 -25 q 301 68 335 24 l 292 0 l 72 0 l 72 1032 l 619 1032 l 593 857 l 319 857 l 319 646 q 403 717 350 690 q 511 743 456 743 m 424 153 q 535 358 535 153 q 508 519 535 475 q 432 564 481 564 q 319 485 365 564 l 319 215 q 424 153 357 153 z "},"c":{"ha":665,"x_min":35,"x_max":668,"o":"m 407 765 q 551 742 488 765 q 668 671 615 718 l 564 526 q 429 578 500 578 q 326 528 361 578 q 292 365 292 479 q 326 210 292 254 q 426 167 361 167 q 490 178 461 167 q 561 215 519 189 l 668 64 q 414 -25 561 -25 q 212 24 297 -25 q 81 160 126 72 q 35 364 35 249 q 81 572 35 481 q 210 714 126 663 q 407 765 294 765 z "},"ć":{"ha":665,"x_min":35,"x_max":668,"o":"m 407 765 q 551 742 488 765 q 668 671 615 718 l 564 526 q 429 578 500 578 q 326 528 361 578 q 292 365 292 479 q 326 210 292 254 q 426 167 361 167 q 490 178 461 167 q 561 215 519 189 l 668 64 q 414 -25 561 -25 q 212 24 297 -25 q 81 160 126 72 q 35 364 35 249 q 81 572 35 481 q 210 714 126 663 q 407 765 294 765 m 501 1175 l 596 992 l 257 858 l 190 982 l 501 1175 z "},"č":{"ha":665,"x_min":35,"x_max":678,"o":"m 407 765 q 551 742 488 765 q 668 671 615 718 l 564 526 q 429 578 500 578 q 326 528 361 578 q 292 365 292 479 q 326 210 292 254 q 426 167 361 167 q 490 178 461 167 q 561 215 519 189 l 668 64 q 414 -25 561 -25 q 212 24 297 -25 q 81 160 126 72 q 35 364 35 249 q 81 572 35 481 q 210 714 126 663 q 407 765 294 765 m 592 1142 l 678 1043 l 479 843 l 329 843 l 131 1043 l 217 1142 l 404 1011 l 592 1142 z "},"ç":{"ha":665,"x_min":35,"x_max":668,"o":"m 668 64 q 456 -24 579 -11 l 456 -62 q 567 -109 529 -72 q 604 -207 604 -146 q 546 -327 604 -281 q 388 -374 488 -374 q 294 -360 338 -374 q 222 -328 251 -347 l 278 -218 q 365 -243 321 -243 q 429 -204 429 -243 q 399 -172 429 -182 q 300 -161 368 -161 l 318 -15 q 110 113 185 11 q 35 364 35 214 q 81 572 35 481 q 210 714 126 663 q 407 765 294 765 q 551 742 488 765 q 668 671 615 718 l 564 526 q 429 578 500 578 q 326 528 361 578 q 292 365 292 479 q 326 210 292 254 q 426 167 361 167 q 490 178 461 167 q 561 215 519 189 l 668 64 z "},"ĉ":{"ha":665,"x_min":35,"x_max":678,"o":"m 407 765 q 551 742 488 765 q 668 671 615 718 l 564 526 q 429 578 500 578 q 326 528 361 578 q 292 365 292 479 q 326 210 292 254 q 426 167 361 167 q 490 178 461 167 q 561 215 519 189 l 668 64 q 414 -25 561 -25 q 212 24 297 -25 q 81 160 126 72 q 35 364 35 249 q 81 572 35 481 q 210 714 126 663 q 407 765 294 765 m 217 856 l 131 954 l 329 1154 l 478 1154 l 678 954 l 592 856 l 404 986 l 217 856 z "},"ɕ":{"ha":701,"x_min":35,"x_max":700,"o":"m 519 363 q 649 317 597 363 q 700 190 700 271 q 624 30 700 85 q 431 -25 549 -25 q 333 -17 386 -25 l 286 -121 l 169 -76 l 217 25 q 82 158 129 69 q 35 364 35 246 q 81 572 35 481 q 210 714 126 663 q 407 765 294 765 q 551 742 488 765 q 668 671 615 718 l 564 525 q 429 578 501 578 q 326 528 361 578 q 292 365 292 479 q 314 225 292 279 q 397 331 347 299 q 519 363 447 363 m 461 147 q 535 199 535 147 q 496 236 535 236 q 448 217 469 236 q 406 154 426 197 q 461 147 436 147 z "},"ċ":{"ha":665,"x_min":35,"x_max":668,"o":"m 407 765 q 551 742 488 765 q 668 671 615 718 l 564 526 q 429 578 500 578 q 326 528 361 578 q 292 365 292 479 q 326 210 292 254 q 426 167 361 167 q 490 178 461 167 q 561 215 519 189 l 668 64 q 414 -25 561 -25 q 212 24 297 -25 q 81 160 126 72 q 35 364 35 249 q 81 572 35 481 q 210 714 126 663 q 407 765 294 765 m 404 1139 q 506 1100 467 1139 q 546 1003 546 1061 q 506 906 546 944 q 404 867 467 867 q 302 906 342 867 q 263 1003 263 944 q 302 1100 263 1061 q 404 1139 342 1139 z "},"ƈ":{"ha":665,"x_min":35,"x_max":894,"o":"m 699 1057 q 894 1006 810 1057 l 826 853 q 735 878 779 878 q 668 797 668 878 l 668 671 l 578 544 q 433 578 511 578 q 327 528 363 578 q 292 365 292 479 q 326 210 292 254 q 426 167 361 167 q 490 178 461 167 q 561 215 519 189 l 668 64 q 414 -25 561 -25 q 212 24 297 -25 q 81 160 126 72 q 35 364 35 249 q 79 571 35 479 q 201 714 124 663 q 374 765 279 765 q 456 754 418 765 l 456 815 q 516 994 456 932 q 699 1057 576 1057 z "},"ʗ":{"ha":675,"x_min":44,"x_max":679,"o":"m 438 765 q 679 671 578 765 l 579 532 q 451 578 513 578 q 340 495 376 578 q 303 222 303 413 q 338 -41 303 36 q 442 -118 374 -118 q 505 -107 476 -118 q 571 -71 533 -96 l 679 -221 q 435 -311 568 -311 q 145 -172 246 -311 q 44 222 44 -32 q 91 513 44 390 q 226 700 138 635 q 438 765 315 765 z "},"ȼ":{"ha":665,"x_min":35,"x_max":668,"o":"m 426 167 q 490 178 461 167 q 561 215 519 189 l 668 64 q 414 -25 561 -25 q 353 -21 382 -25 l 331 -106 l 249 -85 l 271 -3 q 97 132 158 36 q 35 364 35 228 q 81 572 35 481 q 210 714 126 663 q 407 765 294 765 q 474 761 443 765 l 493 836 l 575 817 l 554 740 q 668 671 617 717 l 564 526 q 507 561 535 549 l 403 168 q 426 167 411 167 m 292 365 q 326 210 292 257 l 425 578 q 325 527 358 576 q 292 365 292 478 z "},"d":{"ha":833,"x_min":42,"x_max":761,"o":"m 761 1032 l 761 0 l 542 0 l 532 82 q 447 5 499 35 q 322 -25 394 -25 q 113 81 183 -25 q 42 372 42 186 q 80 576 42 486 q 188 715 118 665 q 347 765 257 765 q 514 701 447 765 l 514 1057 l 761 1032 m 403 153 q 514 226 469 153 l 514 536 q 468 575 490 563 q 417 588 446 588 q 328 535 361 588 q 296 371 296 483 q 324 199 296 246 q 403 153 351 153 z "},"ð":{"ha":807,"x_min":35,"x_max":767,"o":"m 501 935 q 706 701 644 835 q 767 389 767 568 q 724 179 767 274 q 597 30 681 85 q 394 -25 513 -25 q 210 17 292 -25 q 81 138 128 58 q 35 324 35 217 q 74 499 35 421 q 179 623 113 578 q 325 668 246 668 q 422 653 379 668 q 503 611 465 639 q 453 712 483 668 q 369 797 422 756 l 300 728 l 146 799 l 217 872 q 100 899 160 889 l 149 1057 q 349 1008 244 1042 l 453 1117 l 576 1010 l 501 935 m 400 153 q 488 201 461 153 q 514 351 514 249 l 514 453 q 397 497 467 497 q 285 328 285 497 q 400 153 285 153 z "},"ȸ":{"ha":1217,"x_min":42,"x_max":1176,"o":"m 924 765 q 1110 660 1044 765 q 1176 369 1176 556 q 1142 166 1176 256 q 1042 26 1107 76 q 894 -25 978 -25 q 795 1 842 -25 q 718 76 749 28 l 707 0 l 514 0 l 503 81 q 420 4 469 33 q 308 -25 371 -25 q 110 82 179 -25 q 42 372 42 189 q 78 576 42 486 q 178 715 114 665 q 326 765 243 765 q 413 744 372 765 q 486 682 454 724 l 486 1032 l 733 1057 l 733 668 q 816 740 767 714 q 924 765 865 765 m 392 153 q 486 226 442 153 l 486 529 q 397 588 444 588 q 324 535 351 588 q 296 371 296 483 q 322 200 296 247 q 392 153 347 153 m 825 153 q 894 204 867 153 q 922 369 922 256 q 897 539 922 492 q 832 586 872 586 q 733 517 778 586 l 733 226 q 825 153 772 153 z "},"ď":{"ha":989,"x_min":42,"x_max":1025,"o":"m 761 1032 l 761 0 l 542 0 l 532 82 q 447 5 499 35 q 322 -25 394 -25 q 113 81 183 -25 q 42 372 42 186 q 80 576 42 486 q 188 715 118 665 q 347 765 257 765 q 514 701 447 765 l 514 1057 l 761 1032 m 403 153 q 514 226 469 153 l 514 536 q 468 575 490 563 q 417 588 446 588 q 328 535 361 588 q 296 371 296 483 q 324 199 296 246 q 403 153 351 153 m 947 718 l 1025 1031 l 844 1057 l 811 739 l 947 718 z "},"ḓ":{"ha":833,"x_min":42,"x_max":761,"o":"m 761 1032 l 761 0 l 542 0 l 532 82 q 447 5 499 35 q 322 -25 394 -25 q 113 81 183 -25 q 42 372 42 186 q 80 576 42 486 q 188 715 118 665 q 347 765 257 765 q 514 701 447 765 l 514 1057 l 761 1032 m 403 153 q 514 226 469 153 l 514 536 q 468 575 490 563 q 417 588 446 588 q 328 535 361 588 q 296 371 296 483 q 324 199 296 246 q 403 153 351 153 m 240 -383 l 154 -285 l 353 -86 l 501 -86 l 701 -285 l 615 -383 l 428 -254 l 240 -383 z "},"đ":{"ha":847,"x_min":42,"x_max":842,"o":"m 842 961 l 842 824 l 761 824 l 761 0 l 542 0 l 532 82 q 447 5 499 35 q 322 -25 394 -25 q 113 81 183 -25 q 42 372 42 186 q 80 576 42 486 q 188 715 118 665 q 347 765 257 765 q 514 701 447 765 l 514 824 l 333 824 l 333 961 l 514 961 l 514 1057 l 761 1032 l 761 961 l 842 961 m 403 153 q 514 226 469 153 l 514 536 q 468 575 490 563 q 417 588 446 588 q 328 535 361 588 q 296 371 296 483 q 324 199 296 246 q 403 153 351 153 z "},"ȡ":{"ha":1117,"x_min":42,"x_max":1121,"o":"m 949 350 q 1072 306 1022 350 q 1121 186 1121 261 q 1045 28 1121 81 q 847 -25 969 -25 q 783 -21 815 -25 l 739 -121 l 624 -76 l 665 13 q 556 113 594 47 q 455 10 511 46 q 322 -25 399 -25 q 113 81 183 -25 q 42 372 42 186 q 79 576 42 488 q 187 715 117 665 q 353 765 257 765 q 440 749 399 765 q 514 701 481 732 l 514 1057 l 761 1032 l 761 285 q 767 219 761 242 q 841 319 799 289 q 949 350 883 350 m 406 153 q 517 232 472 153 q 514 288 514 265 l 514 536 q 468 575 490 563 q 417 588 446 588 q 328 535 361 588 q 296 371 296 483 q 324 199 296 244 q 406 153 351 153 m 889 147 q 938 158 919 147 q 956 190 956 169 q 924 224 956 224 q 889 208 903 224 q 857 149 875 192 q 889 147 867 147 z "},"ḋ":{"ha":833,"x_min":42,"x_max":761,"o":"m 761 1032 l 761 0 l 542 0 l 532 82 q 447 5 499 35 q 322 -25 394 -25 q 113 81 183 -25 q 42 372 42 186 q 80 576 42 486 q 188 715 118 665 q 347 765 257 765 q 514 701 447 765 l 514 1057 l 761 1032 m 403 153 q 514 226 469 153 l 514 536 q 468 575 490 563 q 417 588 446 588 q 328 535 361 588 q 296 371 296 483 q 324 199 296 246 q 403 153 351 153 m 413 1381 q 515 1342 475 1381 q 554 1244 554 1303 q 515 1147 554 1186 q 413 1108 475 1108 q 310 1147 350 1108 q 271 1244 271 1186 q 310 1342 271 1303 q 413 1381 350 1381 z "},"ḍ":{"ha":833,"x_min":42,"x_max":761,"o":"m 761 1032 l 761 0 l 542 0 l 532 82 q 447 5 499 35 q 322 -25 394 -25 q 113 81 183 -25 q 42 372 42 186 q 80 576 42 486 q 188 715 118 665 q 347 765 257 765 q 514 701 447 765 l 514 1057 l 761 1032 m 403 153 q 514 226 469 153 l 514 536 q 468 575 490 563 q 417 588 446 588 q 328 535 361 588 q 296 371 296 483 q 324 199 296 246 q 403 153 351 153 m 428 -350 q 326 -311 365 -350 q 286 -214 286 -272 q 326 -117 286 -156 q 428 -78 365 -78 q 530 -117 490 -78 q 569 -214 569 -156 q 530 -311 569 -272 q 428 -350 490 -350 z "},"ƍ":{"ha":801,"x_min":35,"x_max":767,"o":"m 554 106 q 665 15 636 60 q 693 -93 693 -31 q 615 -251 693 -189 q 378 -312 536 -312 q 225 -288 294 -312 q 107 -225 156 -264 l 218 -97 q 363 -143 288 -143 q 435 -128 411 -143 q 458 -86 458 -112 q 449 -51 458 -65 q 413 -22 440 -37 q 328 18 386 -6 q 103 165 172 81 q 35 393 35 250 q 80 591 35 507 q 207 720 125 675 q 400 765 289 765 q 669 669 572 765 q 767 404 767 574 q 713 231 767 307 q 554 106 660 156 m 289 392 q 299 290 289 326 q 340 226 310 253 q 431 168 369 199 q 497 264 479 211 q 514 393 514 317 q 487 540 514 494 q 401 586 460 586 q 317 540 344 586 q 289 392 289 493 z "},"ʤ":{"ha":1444,"x_min":42,"x_max":1425,"o":"m 1133 297 q 1349 215 1274 286 q 1425 14 1425 144 q 1379 -153 1425 -79 q 1246 -269 1333 -226 q 1039 -311 1158 -311 q 701 -164 821 -311 l 831 -39 q 924 -105 881 -85 q 1022 -125 968 -125 q 1131 -86 1090 -125 q 1171 31 1171 -47 q 1131 129 1171 100 q 1010 158 1090 158 l 875 158 l 875 297 l 1097 558 l 761 558 l 761 0 l 542 0 l 532 82 q 447 5 499 35 q 322 -25 394 -25 q 113 81 183 -25 q 42 372 42 186 q 80 576 42 486 q 188 715 118 665 q 347 765 257 765 q 514 701 447 765 l 514 1057 l 761 1032 l 761 740 l 1376 740 l 1376 572 l 1133 297 m 403 153 q 514 226 469 153 l 514 536 q 468 575 490 563 q 417 588 446 588 q 328 535 361 588 q 296 371 296 483 q 324 199 296 246 q 403 153 351 153 z "},"ɗ":{"ha":833,"x_min":42,"x_max":988,"o":"m 792 1057 q 988 1006 903 1057 l 919 853 q 828 878 871 878 q 777 858 793 878 q 761 797 761 839 l 761 0 l 542 0 l 532 82 q 447 5 499 35 q 322 -25 394 -25 q 113 81 183 -25 q 42 372 42 186 q 79 576 42 488 q 187 715 117 665 q 353 765 257 765 q 440 749 399 765 q 514 701 481 732 l 514 792 q 585 983 514 910 q 792 1057 657 1057 m 406 153 q 514 226 469 153 l 514 536 q 468 575 490 563 q 417 588 446 588 q 328 535 361 588 q 296 371 296 483 q 324 199 296 244 q 406 153 351 153 z "},"ḏ":{"ha":833,"x_min":42,"x_max":761,"o":"m 761 1032 l 761 0 l 542 0 l 532 82 q 447 5 499 35 q 322 -25 394 -25 q 113 81 183 -25 q 42 372 42 186 q 80 576 42 486 q 188 715 118 665 q 347 765 257 765 q 514 701 447 765 l 514 1057 l 761 1032 m 403 153 q 514 226 469 153 l 514 536 q 468 575 490 563 q 417 588 446 588 q 328 535 361 588 q 296 371 296 483 q 324 199 296 246 q 403 153 351 153 m 646 -272 l 208 -272 l 208 -104 l 646 -104 l 646 -272 z "},"ɖ":{"ha":833,"x_min":42,"x_max":1014,"o":"m 1014 -251 q 806 -311 929 -311 q 592 -240 671 -311 q 514 -33 514 -169 l 514 60 q 322 -25 442 -25 q 113 81 183 -25 q 42 372 42 186 q 79 576 42 488 q 187 715 117 665 q 353 765 257 765 q 440 749 399 765 q 514 701 481 732 l 514 1057 l 761 1032 l 761 -56 q 781 -115 761 -94 q 836 -135 800 -135 q 883 -128 864 -135 q 932 -108 903 -122 l 1014 -251 m 406 153 q 514 226 469 153 l 514 536 q 468 575 490 563 q 417 588 446 588 q 328 535 361 588 q 296 371 296 483 q 324 199 296 244 q 406 153 351 153 z "},"ƌ":{"ha":833,"x_min":42,"x_max":761,"o":"m 761 0 l 542 0 l 532 82 q 447 5 499 35 q 322 -25 394 -25 q 113 79 183 -25 q 42 361 42 183 q 79 558 42 471 q 188 694 117 644 q 353 743 258 743 q 440 726 399 743 q 514 679 481 710 l 514 857 l 228 857 l 228 1032 l 761 1032 l 761 0 m 406 153 q 514 226 469 153 l 514 514 q 468 553 490 540 q 417 565 446 565 q 328 515 361 565 q 296 360 296 464 q 324 197 296 242 q 406 153 353 153 z "},"ǳ":{"ha":1479,"x_min":42,"x_max":1461,"o":"m 761 1032 l 761 0 l 542 0 l 532 82 q 447 5 499 35 q 322 -25 394 -25 q 113 81 183 -25 q 42 372 42 186 q 80 576 42 486 q 188 715 118 665 q 347 765 257 765 q 514 701 447 765 l 514 1057 l 761 1032 m 403 153 q 514 226 469 153 l 514 536 q 468 575 490 563 q 417 588 446 588 q 328 535 361 588 q 296 371 296 483 q 324 199 296 246 q 403 153 351 153 m 1451 740 l 1451 567 l 1133 185 l 1461 185 l 1439 0 l 846 0 l 846 174 l 1168 557 l 874 557 l 874 740 l 1451 740 z "},"ʣ":{"ha":1392,"x_min":42,"x_max":1372,"o":"m 1372 185 l 1350 0 l 542 0 l 532 82 q 447 5 499 35 q 322 -25 394 -25 q 113 81 183 -25 q 42 372 42 186 q 80 576 42 486 q 188 715 118 665 q 347 765 257 765 q 514 701 447 765 l 514 1057 l 761 1032 l 761 740 l 1364 740 l 1364 567 l 1032 185 l 1372 185 m 403 153 q 514 226 469 153 l 514 536 q 468 575 490 563 q 417 588 446 588 q 328 535 361 588 q 296 371 296 483 q 324 199 296 246 q 403 153 351 153 m 761 557 l 761 172 l 1092 557 l 761 557 z "},"ǆ":{"ha":1479,"x_min":42,"x_max":1461,"o":"m 761 1032 l 761 0 l 542 0 l 532 82 q 447 5 499 35 q 322 -25 394 -25 q 113 81 183 -25 q 42 372 42 186 q 80 576 42 486 q 188 715 118 665 q 347 765 257 765 q 514 701 447 765 l 514 1057 l 761 1032 m 403 153 q 514 226 469 153 l 514 536 q 468 575 490 563 q 417 588 446 588 q 328 535 361 588 q 296 371 296 483 q 324 199 296 246 q 403 153 351 153 m 1451 740 l 1451 567 l 1133 185 l 1461 185 l 1439 0 l 846 0 l 846 174 l 1168 557 l 874 557 l 874 740 l 1451 740 m 1350 1142 l 1436 1043 l 1238 843 l 1088 843 l 889 1043 l 975 1142 l 1163 1011 l 1350 1142 z "},"ʥ":{"ha":1538,"x_min":42,"x_max":1560,"o":"m 1379 390 q 1509 344 1458 390 q 1560 217 1560 297 q 1485 55 1560 111 q 1257 0 1410 -1 q 1250 -131 1250 -46 l 1250 -181 l 1114 -181 q 1121 0 1114 -64 l 542 0 l 532 82 q 447 5 499 35 q 322 -25 394 -25 q 113 81 183 -25 q 42 372 42 186 q 80 576 42 486 q 188 715 118 665 q 347 765 257 765 q 514 701 447 765 l 514 1057 l 761 1032 l 761 740 l 1364 740 l 1364 578 l 1022 185 l 1147 185 q 1236 342 1178 294 q 1379 390 1294 390 m 403 153 q 514 226 469 153 l 514 536 q 468 575 490 563 q 417 588 446 588 q 328 535 361 588 q 296 371 296 483 q 324 199 296 246 q 403 153 351 153 m 761 557 l 761 178 l 1090 557 l 761 557 m 1306 185 q 1374 196 1351 185 q 1396 232 1396 207 q 1387 258 1396 249 q 1360 267 1378 267 q 1283 185 1303 267 l 1306 185 m 1260 14 l 1264 31 l 1261 22 l 1260 14 z "},"e":{"ha":771,"x_min":35,"x_max":743,"o":"m 743 382 q 739 299 743 374 l 286 299 q 334 183 296 214 q 443 151 372 151 q 526 167 485 151 q 615 217 567 183 l 715 81 q 582 3 657 32 q 419 -25 507 -25 q 133 81 231 -25 q 35 367 35 188 q 76 569 35 479 q 197 713 117 660 q 392 765 278 765 q 649 665 554 765 q 743 382 743 564 m 500 451 q 475 565 499 525 q 396 606 451 606 q 318 569 344 606 q 285 443 292 533 l 500 443 l 500 451 z "},"é":{"ha":771,"x_min":35,"x_max":743,"o":"m 743 382 q 739 299 743 374 l 286 299 q 334 183 296 214 q 443 151 372 151 q 526 167 485 151 q 615 217 567 183 l 715 81 q 582 3 657 32 q 419 -25 507 -25 q 133 81 231 -25 q 35 367 35 188 q 76 569 35 479 q 197 713 117 660 q 392 765 278 765 q 649 665 554 765 q 743 382 743 564 m 500 451 q 475 565 499 525 q 396 606 451 606 q 318 569 344 606 q 285 443 292 533 l 500 443 l 500 451 m 492 1175 l 586 992 l 247 858 l 181 982 l 492 1175 z "},"ĕ":{"ha":771,"x_min":35,"x_max":743,"o":"m 743 382 q 739 299 743 374 l 286 299 q 334 183 296 214 q 443 151 372 151 q 526 167 485 151 q 615 217 567 183 l 715 81 q 582 3 657 32 q 419 -25 507 -25 q 133 81 231 -25 q 35 367 35 188 q 76 569 35 479 q 197 713 117 660 q 392 765 278 765 q 649 665 554 765 q 743 382 743 564 m 500 451 q 475 565 499 525 q 396 606 451 606 q 318 569 344 606 q 285 443 292 533 l 500 443 l 500 451 m 393 874 q 218 947 282 874 q 146 1129 154 1019 l 278 1153 q 393 1043 306 1043 q 468 1072 439 1043 q 510 1153 497 1101 l 642 1129 q 569 947 633 1019 q 393 874 504 874 z "},"ě":{"ha":771,"x_min":35,"x_max":743,"o":"m 743 382 q 739 299 743 374 l 286 299 q 334 183 296 214 q 443 151 372 151 q 526 167 485 151 q 615 217 567 183 l 715 81 q 582 3 657 32 q 419 -25 507 -25 q 133 81 231 -25 q 35 367 35 188 q 76 569 35 479 q 197 713 117 660 q 392 765 278 765 q 649 665 554 765 q 743 382 743 564 m 500 451 q 475 565 499 525 q 396 606 451 606 q 318 569 344 606 q 285 443 292 533 l 500 443 l 500 451 m 582 1142 l 668 1043 l 469 843 l 319 843 l 121 1043 l 207 1142 l 394 1011 l 582 1142 z "},"ȩ":{"ha":771,"x_min":35,"x_max":743,"o":"m 743 382 q 739 299 743 374 l 286 299 q 334 183 296 214 q 443 151 372 151 q 526 167 485 151 q 615 217 567 183 l 715 81 q 478 -21 610 -6 l 478 -62 q 589 -109 551 -72 q 626 -207 626 -146 q 568 -327 626 -281 q 410 -374 510 -374 q 317 -360 360 -374 q 244 -328 274 -347 l 300 -218 q 388 -243 343 -243 q 451 -204 451 -243 q 421 -172 451 -182 q 322 -161 390 -161 l 340 -19 q 113 106 190 3 q 35 367 35 208 q 76 569 35 479 q 197 713 117 660 q 392 765 278 765 q 649 665 554 765 q 743 382 743 564 m 500 451 q 475 565 499 525 q 396 606 451 606 q 318 569 344 606 q 285 443 292 533 l 500 443 l 500 451 z "},"ê":{"ha":771,"x_min":35,"x_max":743,"o":"m 743 382 q 739 299 743 374 l 286 299 q 334 183 296 214 q 443 151 372 151 q 526 167 485 151 q 615 217 567 183 l 715 81 q 582 3 657 32 q 419 -25 507 -25 q 133 81 231 -25 q 35 367 35 188 q 76 569 35 479 q 197 713 117 660 q 392 765 278 765 q 649 665 554 765 q 743 382 743 564 m 500 451 q 475 565 499 525 q 396 606 451 606 q 318 569 344 606 q 285 443 292 533 l 500 443 l 500 451 m 207 856 l 121 954 l 319 1154 l 468 1154 l 668 954 l 582 856 l 394 986 l 207 856 z "},"ế":{"ha":771,"x_min":35,"x_max":861,"o":"m 743 382 q 739 299 743 374 l 286 299 q 334 183 296 214 q 443 151 372 151 q 526 167 485 151 q 615 217 567 183 l 715 81 q 582 3 657 32 q 419 -25 507 -25 q 133 81 231 -25 q 35 367 35 188 q 76 569 35 479 q 197 713 117 660 q 392 765 278 765 q 649 665 554 765 q 743 382 743 564 m 500 451 q 475 565 499 525 q 396 606 451 606 q 318 569 344 606 q 285 443 292 533 l 500 443 l 500 451 m 206 810 l 119 908 l 318 1096 l 468 1096 l 667 908 l 581 810 l 393 928 l 206 810 m 729 1356 l 861 1226 l 632 1026 l 540 1108 l 729 1356 z "},"ệ":{"ha":771,"x_min":35,"x_max":743,"o":"m 743 382 q 739 299 743 374 l 286 299 q 334 183 296 214 q 443 151 372 151 q 526 167 485 151 q 615 217 567 183 l 715 81 q 582 3 657 32 q 419 -25 507 -25 q 133 81 231 -25 q 35 367 35 188 q 76 569 35 479 q 197 713 117 660 q 392 765 278 765 q 649 665 554 765 q 743 382 743 564 m 500 451 q 475 565 499 525 q 396 606 451 606 q 318 569 344 606 q 285 443 292 533 l 500 443 l 500 451 m 207 856 l 121 954 l 319 1154 l 468 1154 l 668 954 l 582 856 l 394 986 l 207 856 m 408 -350 q 306 -311 346 -350 q 267 -214 267 -272 q 306 -117 267 -156 q 408 -78 346 -78 q 510 -117 471 -78 q 550 -214 550 -156 q 510 -311 550 -272 q 408 -350 471 -350 z "},"ề":{"ha":771,"x_min":-72,"x_max":743,"o":"m 743 382 q 739 299 743 374 l 286 299 q 334 183 296 214 q 443 151 372 151 q 526 167 485 151 q 615 217 567 183 l 715 81 q 582 3 657 32 q 419 -25 507 -25 q 133 81 231 -25 q 35 367 35 188 q 76 569 35 479 q 197 713 117 660 q 392 765 278 765 q 649 665 554 765 q 743 382 743 564 m 500 451 q 475 565 499 525 q 396 606 451 606 q 318 569 344 606 q 285 443 292 533 l 500 443 l 500 451 m 206 810 l 119 908 l 318 1096 l 468 1096 l 667 908 l 581 810 l 393 928 l 206 810 m 60 1356 l 249 1108 l 156 1026 l -72 1226 l 60 1356 z "},"ể":{"ha":771,"x_min":35,"x_max":796,"o":"m 743 382 q 739 299 743 374 l 286 299 q 334 183 296 214 q 443 151 372 151 q 526 167 485 151 q 615 217 567 183 l 715 81 q 582 3 657 32 q 419 -25 507 -25 q 133 81 231 -25 q 35 367 35 188 q 76 569 35 479 q 197 713 117 660 q 392 765 278 765 q 649 665 554 765 q 743 382 743 564 m 500 451 q 475 565 499 525 q 396 606 451 606 q 318 569 344 606 q 285 443 292 533 l 500 443 l 500 451 m 206 810 l 119 908 l 318 1096 l 468 1096 l 667 908 l 581 810 l 393 928 l 206 810 m 536 1203 q 612 1217 589 1206 q 635 1254 635 1228 q 620 1284 635 1274 q 582 1294 606 1294 q 540 1290 558 1294 q 497 1276 521 1286 l 458 1374 q 615 1411 522 1411 q 749 1371 701 1411 q 796 1265 796 1331 q 765 1178 796 1211 q 678 1133 735 1144 l 678 1063 l 536 1063 l 536 1203 z "},"ễ":{"ha":771,"x_min":35,"x_max":743,"o":"m 743 382 q 739 299 743 374 l 286 299 q 334 183 296 214 q 443 151 372 151 q 526 167 485 151 q 615 217 567 183 l 715 81 q 582 3 657 32 q 419 -25 507 -25 q 133 81 231 -25 q 35 367 35 188 q 76 569 35 479 q 197 713 117 660 q 392 765 278 765 q 649 665 554 765 q 743 382 743 564 m 500 451 q 475 565 499 525 q 396 606 451 606 q 318 569 344 606 q 285 443 292 533 l 500 443 l 500 451 m 206 807 l 119 906 l 318 1093 l 468 1093 l 667 906 l 581 807 l 393 925 l 206 807 m 474 1129 q 417 1138 442 1129 q 369 1164 393 1147 q 342 1178 356 1172 q 315 1185 328 1185 q 275 1172 290 1185 q 242 1131 260 1160 l 122 1185 q 199 1301 150 1256 q 310 1346 247 1346 q 367 1337 343 1346 q 417 1311 390 1328 q 444 1297 431 1303 q 471 1290 458 1290 q 509 1303 493 1290 q 543 1344 525 1315 l 663 1292 q 585 1174 633 1219 q 474 1129 536 1129 z "},"ȅ":{"ha":771,"x_min":35,"x_max":743,"o":"m 743 382 q 739 299 743 374 l 286 299 q 334 183 296 214 q 443 151 372 151 q 526 167 485 151 q 615 217 567 183 l 715 81 q 582 3 657 32 q 419 -25 507 -25 q 133 81 231 -25 q 35 367 35 188 q 76 569 35 479 q 197 713 117 660 q 392 765 278 765 q 649 665 554 765 q 743 382 743 564 m 500 451 q 475 565 499 525 q 396 606 451 606 q 318 569 344 606 q 285 443 292 533 l 500 443 l 500 451 m 228 1207 l 367 924 l 243 865 l 68 1126 l 228 1207 m 481 1207 l 610 921 l 483 871 l 319 1132 l 481 1207 z "},"ë":{"ha":771,"x_min":35,"x_max":743,"o":"m 743 382 q 739 299 743 374 l 286 299 q 334 183 296 214 q 443 151 372 151 q 526 167 485 151 q 615 217 567 183 l 715 81 q 582 3 657 32 q 419 -25 507 -25 q 133 81 231 -25 q 35 367 35 188 q 76 569 35 479 q 197 713 117 660 q 392 765 278 765 q 649 665 554 765 q 743 382 743 564 m 500 451 q 475 565 499 525 q 396 606 451 606 q 318 569 344 606 q 285 443 292 533 l 500 443 l 500 451 m 228 1124 q 315 1089 279 1124 q 350 1004 350 1054 q 315 919 350 954 q 228 885 279 885 q 142 919 178 885 q 106 1004 106 954 q 142 1089 106 1054 q 228 1124 178 1124 m 558 1124 q 645 1089 610 1124 q 681 1004 681 1054 q 645 919 681 954 q 558 885 610 885 q 472 919 508 885 q 436 1004 436 954 q 472 1089 436 1054 q 558 1124 508 1124 z "},"ė":{"ha":771,"x_min":35,"x_max":743,"o":"m 743 382 q 739 299 743 374 l 286 299 q 334 183 296 214 q 443 151 372 151 q 526 167 485 151 q 615 217 567 183 l 715 81 q 582 3 657 32 q 419 -25 507 -25 q 133 81 231 -25 q 35 367 35 188 q 76 569 35 479 q 197 713 117 660 q 392 765 278 765 q 649 665 554 765 q 743 382 743 564 m 500 451 q 475 565 499 525 q 396 606 451 606 q 318 569 344 606 q 285 443 292 533 l 500 443 l 500 451 m 394 1139 q 497 1100 457 1139 q 536 1003 536 1061 q 497 906 536 944 q 394 867 457 867 q 292 906 332 867 q 253 1003 253 944 q 292 1100 253 1061 q 394 1139 332 1139 z "},"ẹ":{"ha":771,"x_min":35,"x_max":743,"o":"m 743 382 q 739 299 743 374 l 286 299 q 334 183 296 214 q 443 151 372 151 q 526 167 485 151 q 615 217 567 183 l 715 81 q 582 3 657 32 q 419 -25 507 -25 q 133 81 231 -25 q 35 367 35 188 q 76 569 35 479 q 197 713 117 660 q 392 765 278 765 q 649 665 554 765 q 743 382 743 564 m 500 451 q 475 565 499 525 q 396 606 451 606 q 318 569 344 606 q 285 443 292 533 l 500 443 l 500 451 m 408 -350 q 306 -311 346 -350 q 267 -214 267 -272 q 306 -117 267 -156 q 408 -78 346 -78 q 510 -117 471 -78 q 550 -214 550 -156 q 510 -311 550 -272 q 408 -350 471 -350 z "},"è":{"ha":771,"x_min":35,"x_max":743,"o":"m 743 382 q 739 299 743 374 l 286 299 q 334 183 296 214 q 443 151 372 151 q 526 167 485 151 q 615 217 567 183 l 715 81 q 582 3 657 32 q 419 -25 507 -25 q 133 81 231 -25 q 35 367 35 188 q 76 569 35 479 q 197 713 117 660 q 392 765 278 765 q 649 665 554 765 q 743 382 743 564 m 500 451 q 475 565 499 525 q 396 606 451 606 q 318 569 344 606 q 285 443 292 533 l 500 443 l 500 451 m 300 1175 l 611 982 l 544 858 l 206 992 l 300 1175 z "},"ẻ":{"ha":771,"x_min":35,"x_max":743,"o":"m 743 382 q 739 299 743 374 l 286 299 q 334 183 296 214 q 443 151 372 151 q 526 167 485 151 q 615 217 567 183 l 715 81 q 582 3 657 32 q 419 -25 507 -25 q 133 81 231 -25 q 35 367 35 188 q 76 569 35 479 q 197 713 117 660 q 392 765 278 765 q 649 665 554 765 q 743 382 743 564 m 500 451 q 475 565 499 525 q 396 606 451 606 q 318 569 344 606 q 285 443 292 533 l 500 443 l 500 451 m 324 978 q 399 992 376 981 q 422 1029 422 1003 q 408 1059 422 1049 q 369 1069 393 1069 q 327 1065 346 1069 q 285 1051 308 1061 l 246 1149 q 403 1186 310 1186 q 536 1146 489 1186 q 583 1040 583 1106 q 553 953 583 986 q 465 908 522 919 l 465 838 l 324 838 l 324 978 z "},"ȇ":{"ha":771,"x_min":35,"x_max":743,"o":"m 743 382 q 739 299 743 374 l 286 299 q 334 183 296 214 q 443 151 372 151 q 526 167 485 151 q 615 217 567 183 l 715 81 q 582 3 657 32 q 419 -25 507 -25 q 133 81 231 -25 q 35 367 35 188 q 76 569 35 479 q 197 713 117 660 q 392 765 278 765 q 649 665 554 765 q 743 382 743 564 m 500 451 q 475 565 499 525 q 396 606 451 606 q 318 569 344 606 q 285 443 292 533 l 500 443 l 500 451 m 393 1108 q 569 1035 504 1108 q 642 853 633 963 l 510 829 q 468 910 497 881 q 393 939 439 939 q 278 829 306 939 l 146 853 q 218 1035 154 963 q 393 1108 282 1108 z "},"ē":{"ha":771,"x_min":35,"x_max":743,"o":"m 743 382 q 739 299 743 374 l 286 299 q 334 183 296 214 q 443 151 372 151 q 526 167 485 151 q 615 217 567 183 l 715 81 q 582 3 657 32 q 419 -25 507 -25 q 133 81 231 -25 q 35 367 35 188 q 76 569 35 479 q 197 713 117 660 q 392 765 278 765 q 649 665 554 765 q 743 382 743 564 m 500 451 q 475 565 499 525 q 396 606 451 606 q 318 569 344 606 q 285 443 292 533 l 500 443 l 500 451 m 613 906 l 175 906 l 175 1074 l 613 1074 l 613 906 z "},"ę":{"ha":771,"x_min":35,"x_max":743,"o":"m 743 382 q 739 299 743 374 l 286 299 q 334 183 296 214 q 443 151 372 151 q 526 167 485 151 q 615 217 567 183 l 715 81 q 553 -6 639 19 q 440 -124 440 -57 q 513 -185 440 -185 q 597 -175 554 -185 l 582 -322 q 482 -333 533 -333 q 329 -287 389 -333 q 269 -165 269 -242 q 357 -22 269 -75 q 117 100 199 -4 q 35 367 35 204 q 76 569 35 479 q 197 713 117 660 q 392 765 278 765 q 649 665 554 765 q 743 382 743 564 m 500 451 q 475 565 499 525 q 396 606 451 606 q 318 569 344 606 q 285 443 292 533 l 500 443 l 500 451 z "},"ɛ":{"ha":672,"x_min":35,"x_max":674,"o":"m 367 765 q 654 678 538 765 l 556 553 q 478 587 514 576 q 400 597 442 597 q 335 580 360 597 q 311 531 311 563 q 334 476 311 496 q 403 456 357 456 l 497 456 l 475 301 l 392 301 q 289 225 289 301 q 400 147 289 147 q 482 160 442 147 q 572 201 522 172 l 674 64 q 538 -2 617 21 q 363 -25 458 -25 q 126 35 217 -25 q 35 204 35 94 q 236 393 35 371 q 63 561 63 429 q 146 710 63 656 q 367 765 229 765 z "},"ʚ":{"ha":799,"x_min":35,"x_max":764,"o":"m 385 -25 q 129 36 224 -25 q 35 213 35 97 q 85 335 35 292 q 236 394 135 379 q 69 558 69 435 q 157 709 69 653 q 386 765 244 765 q 664 659 564 765 q 764 371 764 553 q 666 78 764 181 q 385 -25 568 -25 m 385 147 q 467 169 438 147 q 508 240 496 192 q 519 371 519 288 q 489 544 519 492 q 392 597 458 597 q 334 580 354 597 q 314 529 314 563 q 337 474 314 493 q 406 456 360 456 l 419 456 l 433 301 l 388 301 q 309 285 335 301 q 283 229 283 268 q 385 147 283 147 z "},"ɜ":{"ha":690,"x_min":-1,"x_max":656,"o":"m 324 765 q 537 710 453 765 q 621 560 621 654 q 454 394 621 435 q 606 335 556 379 q 656 213 656 292 q 561 35 656 96 q 306 -25 467 -25 q -1 63 118 -25 l 114 199 q 203 158 163 169 q 296 147 244 147 q 401 226 401 147 q 294 301 401 301 l 174 301 l 188 456 l 276 456 q 371 531 371 456 q 349 581 371 564 q 288 597 328 597 q 208 585 243 597 q 133 550 172 574 l 21 679 q 324 765 147 765 z "},"ɞ":{"ha":799,"x_min":35,"x_max":764,"o":"m 414 -25 q 133 78 231 -25 q 35 371 35 181 q 135 659 35 553 q 413 765 235 765 q 642 709 554 765 q 729 558 729 653 q 563 394 729 435 q 714 335 664 379 q 764 213 764 292 q 669 36 764 97 q 414 -25 575 -25 m 414 147 q 515 229 515 147 q 490 285 515 268 q 411 301 464 301 l 365 301 l 379 456 l 393 456 q 462 474 439 456 q 485 529 485 493 q 465 580 485 563 q 407 597 444 597 q 310 544 340 597 q 279 371 279 492 q 291 240 279 288 q 332 169 303 192 q 414 147 361 147 z "},"ɝ":{"ha":1072,"x_min":-1,"x_max":1089,"o":"m 1089 475 q 911 424 1014 424 q 758 467 814 424 q 686 588 701 511 l 685 594 l 621 557 q 454 394 619 435 q 606 335 556 379 q 656 213 656 292 q 561 35 656 96 q 306 -25 467 -25 q -1 63 118 -25 l 114 199 q 203 158 163 169 q 296 147 244 147 q 401 226 401 147 q 294 301 401 301 l 174 301 l 188 456 l 276 456 q 371 531 371 456 q 349 581 371 564 q 288 597 328 597 q 208 585 243 597 q 133 550 172 574 l 21 679 q 324 765 147 765 q 465 744 401 765 q 568 685 529 724 l 674 740 l 874 740 l 874 661 q 892 609 874 626 q 940 592 910 592 q 976 596 961 592 q 1005 605 992 600 q 1022 611 1018 610 l 1089 475 z "},"ɘ":{"ha":771,"x_min":28,"x_max":736,"o":"m 379 765 q 647 657 557 765 q 736 367 736 549 q 638 82 736 189 q 351 -25 539 -25 q 54 81 185 -25 l 156 217 q 245 167 204 182 q 331 151 286 151 q 438 183 400 151 q 485 299 475 214 l 32 299 q 28 382 28 336 q 123 664 28 563 q 379 765 218 765 m 271 443 l 486 443 q 456 571 481 536 q 378 606 431 606 q 296 565 319 606 q 271 451 272 525 l 271 443 z "},"ʃ":{"ha":392,"x_min":-181,"x_max":546,"o":"m 350 1057 q 546 1006 461 1057 l 478 853 q 386 878 431 878 q 335 858 351 878 q 319 797 319 839 l 319 -33 q 241 -240 319 -169 q 28 -311 163 -311 q -181 -251 -96 -311 l -99 -108 q -50 -128 -69 -122 q -3 -135 -31 -135 q 53 -115 33 -135 q 72 -56 72 -94 l 72 792 q 144 983 72 910 q 350 1057 215 1057 z "},"ʆ":{"ha":485,"x_min":-108,"x_max":639,"o":"m 479 878 q 428 858 444 878 q 413 797 413 839 l 413 740 l 414 60 q 411 -3 414 36 q 547 -58 488 -28 l 504 -157 q 392 -115 463 -137 q 292 -263 363 -215 q 106 -311 222 -311 q -53 -267 3 -311 q -108 -144 -108 -224 q -49 -9 -108 -57 q 114 39 11 39 q 165 38 149 39 l 165 792 q 237 983 165 910 q 443 1057 308 1057 q 639 1006 554 1057 l 571 853 q 479 878 522 878 m 86 -189 q 143 -163 124 -189 q 165 -76 163 -137 q 113 -74 150 -74 q 31 -136 31 -74 q 45 -175 31 -161 q 86 -189 60 -189 z "},"ƪ":{"ha":599,"x_min":-39,"x_max":779,"o":"m 779 -251 q 571 -311 694 -311 q 358 -240 436 -311 q 279 -33 279 -169 l 279 572 q 192 557 233 557 q 25 625 89 557 q -39 806 -39 693 q -6 935 -39 878 q 89 1024 26 992 q 236 1057 151 1057 q 450 982 374 1057 q 526 783 526 907 l 526 -56 q 546 -115 526 -94 q 601 -135 565 -135 q 649 -128 629 -135 q 697 -108 668 -122 l 779 -251 m 238 724 q 279 729 261 724 l 279 821 q 226 890 279 890 q 169 808 169 890 q 238 724 169 724 z "},"ʅ":{"ha":692,"x_min":-18,"x_max":708,"o":"m 708 35 q 500 -25 624 -25 q 287 46 365 -25 q 208 253 208 117 l 208 506 q 192 567 208 547 q 142 586 176 586 q 50 561 99 586 l -18 714 q 178 765 67 765 q 384 692 313 765 q 456 500 456 618 l 456 231 q 475 172 456 192 q 531 151 494 151 q 578 158 558 151 q 626 178 597 164 l 708 35 z "},"ɇ":{"ha":771,"x_min":35,"x_max":743,"o":"m 411 304 l 372 157 q 443 151 400 151 q 526 167 485 151 q 615 217 567 183 l 715 81 q 582 3 657 32 q 419 -25 507 -25 q 326 -17 371 -25 l 303 -106 l 225 -85 l 249 4 q 89 140 143 46 q 35 367 35 235 q 76 569 35 479 q 197 713 117 660 q 392 765 278 765 q 451 761 422 765 l 471 836 l 547 817 l 528 743 q 687 614 631 707 q 743 382 743 521 q 739 304 743 379 l 411 304 m 396 611 q 299 572 331 611 q 261 438 268 533 l 364 438 l 411 611 l 396 611 m 528 446 q 517 528 526 494 q 485 583 508 563 l 447 438 l 528 438 l 528 446 m 329 304 l 261 304 q 300 197 269 235 l 329 304 z "},"ẽ":{"ha":771,"x_min":35,"x_max":743,"o":"m 743 382 q 739 299 743 374 l 286 299 q 334 183 296 214 q 443 151 372 151 q 526 167 485 151 q 615 217 567 183 l 715 81 q 582 3 657 32 q 419 -25 507 -25 q 133 81 231 -25 q 35 367 35 188 q 76 569 35 479 q 197 713 117 660 q 392 765 278 765 q 649 665 554 765 q 743 382 743 564 m 500 451 q 475 565 499 525 q 396 606 451 606 q 318 569 344 606 q 285 443 292 533 l 500 443 l 500 451 m 475 872 q 420 882 443 872 q 371 910 397 892 q 343 926 357 919 q 317 933 329 933 q 276 919 292 933 q 243 874 261 906 l 124 932 q 200 1058 151 1008 q 311 1108 249 1108 q 368 1099 344 1108 q 418 1071 392 1089 q 446 1054 432 1061 q 472 1047 460 1047 q 511 1061 496 1047 q 544 1107 526 1075 l 664 1049 q 586 922 635 971 q 475 872 538 872 z "},"ǝ":{"ha":772,"x_min":28,"x_max":739,"o":"m 374 765 q 647 658 556 765 q 739 371 739 551 q 697 169 739 260 q 574 27 656 79 q 379 -25 493 -25 q 123 76 218 -25 q 28 358 28 178 q 32 442 28 404 l 503 442 q 463 556 497 519 q 364 593 428 593 q 270 579 314 593 q 178 535 226 565 l 76 669 q 208 740 136 715 q 374 765 281 765 m 379 146 q 467 181 436 146 q 503 297 497 217 l 260 297 l 260 288 q 292 183 261 221 q 379 146 322 146 z "},"ə":{"ha":772,"x_min":28,"x_max":739,"o":"m 374 765 q 647 658 556 765 q 739 371 739 551 q 697 169 739 260 q 574 27 656 79 q 379 -25 493 -25 q 123 76 218 -25 q 28 358 28 178 q 32 442 28 404 l 503 442 q 463 556 497 519 q 364 593 428 593 q 270 579 314 593 q 178 535 226 565 l 76 669 q 208 740 136 715 q 374 765 281 765 m 379 146 q 467 181 436 146 q 503 297 497 217 l 260 297 l 260 288 q 292 183 261 221 q 379 146 322 146 z "},"ɚ":{"ha":1168,"x_min":28,"x_max":1186,"o":"m 1186 475 q 1008 424 1111 424 q 855 467 911 424 q 783 588 799 511 l 782 594 l 710 553 q 739 371 739 472 q 697 169 739 260 q 574 27 656 79 q 379 -25 493 -25 q 123 76 218 -25 q 28 358 28 178 q 32 442 28 404 l 503 442 q 463 556 497 519 q 364 593 428 593 q 270 579 314 593 q 178 535 226 565 l 76 669 q 208 740 136 715 q 374 765 281 765 q 638 669 544 765 l 771 740 l 971 740 l 971 661 q 989 609 971 626 q 1038 592 1007 592 q 1074 596 1058 592 q 1102 605 1089 600 q 1119 611 1115 610 l 1186 475 m 379 146 q 467 181 436 146 q 503 297 497 217 l 260 297 l 260 288 q 292 183 261 221 q 379 146 322 146 z "},"ʒ":{"ha":719,"x_min":-22,"x_max":701,"o":"m 410 297 q 626 215 550 286 q 701 14 701 144 q 656 -153 701 -79 q 522 -269 610 -226 q 315 -311 435 -311 q -22 -164 97 -311 l 107 -39 q 201 -105 157 -85 q 299 -125 244 -125 q 407 -86 367 -125 q 447 31 447 -47 q 407 129 447 100 q 286 158 367 158 l 151 158 l 151 297 l 374 558 l 36 558 l 36 740 l 653 740 l 653 572 l 410 297 z "},"ǯ":{"ha":719,"x_min":-22,"x_max":701,"o":"m 410 297 q 626 215 550 286 q 701 14 701 144 q 656 -153 701 -79 q 522 -269 610 -226 q 315 -311 435 -311 q -22 -164 97 -311 l 107 -39 q 201 -105 157 -85 q 299 -125 244 -125 q 407 -86 367 -125 q 447 31 447 -47 q 407 129 447 100 q 286 158 367 158 l 151 158 l 151 297 l 374 558 l 36 558 l 36 740 l 653 740 l 653 572 l 410 297 m 532 1142 l 618 1043 l 419 843 l 269 843 l 71 1043 l 157 1142 l 344 1011 l 532 1142 z "},"ʓ":{"ha":719,"x_min":-32,"x_max":701,"o":"m 701 19 q 641 -169 701 -89 q 464 -286 581 -250 l 500 -362 l 382 -408 l 338 -308 q 274 -311 296 -311 q 50 -253 132 -311 q -32 -87 -32 -194 q 19 42 -32 -4 q 150 89 71 89 q 274 49 225 89 q 367 -87 322 10 l 375 -106 q 447 35 447 -71 q 407 140 447 108 q 286 171 367 171 l 151 171 l 151 308 l 378 558 l 36 558 l 36 740 l 653 740 l 653 572 l 410 308 q 626 225 550 296 q 701 19 701 154 m 133 -76 q 160 -115 133 -104 q 258 -125 188 -125 q 217 -56 236 -76 q 174 -36 199 -36 q 144 -47 154 -36 q 133 -76 133 -57 z "},"ƹ":{"ha":719,"x_min":19,"x_max":743,"o":"m 743 -164 q 403 -311 621 -311 q 198 -269 285 -311 q 65 -156 111 -228 q 19 7 19 -83 q 95 211 19 138 q 310 297 171 285 l 67 572 l 67 740 l 683 740 l 683 558 l 342 558 l 568 292 l 568 158 l 435 158 q 272 22 272 158 q 313 -87 272 -49 q 418 -125 353 -125 q 519 -106 474 -125 q 617 -42 565 -86 l 743 -164 z "},"ƺ":{"ha":722,"x_min":29,"x_max":693,"o":"m 271 -312 q 100 -226 163 -282 q 38 -96 38 -171 q 96 29 38 -17 q 278 100 154 75 q 405 138 369 118 q 440 194 440 158 q 415 241 440 226 q 331 256 389 256 l 156 256 l 156 382 l 358 569 l 29 569 l 29 740 l 644 740 l 644 583 l 419 393 l 444 393 q 627 337 561 393 q 693 186 693 281 q 619 22 693 78 q 418 -57 546 -33 q 294 -88 325 -74 q 263 -124 263 -103 q 278 -152 263 -139 q 325 -179 294 -165 l 271 -312 z "}}}
